<svg height="489pt" viewBox="0 -90 489.332 489" width="489pt" xmlns="http://www.w3.org/2000/svg"><path d="m425.664062 304.164062h-362c-5.519531 0-10-4.476562-10-10v-280c0-5.519531 4.480469-10 10-10h362c5.523438 0 10 4.480469 10 10v280c0 5.523438-4.476562 10-10 10zm0 0" fill="#7befe4"/><path d="m391.664062 58.164062v192c0 5.523438-4.476562 10-10 10h-274c-5.519531 0-10-4.476562-10-10v-192c0-5.519531 4.480469-10 10-10h274c5.523438 0 10 4.480469 10 10zm0 0" fill="#1c868e"/><path d="m391.664062 58.164062v192c0 5.523438-4.476562 10-10 10h-247c-5.519531 0-10-4.476562-10-10v-192c0-5.519531 4.480469-10 10-10h247c5.523438 0 10 4.480469 10 10zm0 0" fill="#40c4df"/><path d="m92.164062 32.164062c0 6.351563-5.148437 11.5-11.5 11.5-6.347656 0-11.5-5.148437-11.5-11.5 0-6.347656 5.152344-11.5 11.5-11.5 6.351563 0 11.5 5.152344 11.5 11.5zm0 0" fill="#1c868e"/><path d="m420.164062 32.164062c0 6.351563-5.148437 11.5-11.5 11.5-6.347656 0-11.5-5.148437-11.5-11.5 0-6.347656 5.152344-11.5 11.5-11.5 6.351563 0 11.5 5.152344 11.5 11.5zm0 0" fill="#1c868e"/><path d="m92.164062 276.164062c0 6.351563-5.148437 11.5-11.5 11.5-6.347656 0-11.5-5.148437-11.5-11.5 0-6.347656 5.152344-11.5 11.5-11.5 6.351563 0 11.5 5.152344 11.5 11.5zm0 0" fill="#1c868e"/><path d="m420.164062 276.164062c0 6.351563-5.148437 11.5-11.5 11.5-6.347656 0-11.5-5.148437-11.5-11.5 0-6.347656 5.152344-11.5 11.5-11.5 6.351563 0 11.5 5.152344 11.5 11.5zm0 0" fill="#1c868e"/><g fill="#491352"><path d="m183.765625 164.574219h-8.488281c-.390625 0-.746094.230469-.910156.585937-2.859376 6.242188-8.308594 9.542969-15.757813 9.542969-11.28125 0-18.863281-8.238281-18.863281-20.496094 0-12.304687 7.582031-20.574219 18.863281-20.574219 7.460937 0 12.910156 3.324219 15.753906 9.617188.164063.359375.519531.589844.914063.589844h8.488281c.328125 0 .636719-.164063.824219-.4375.183594-.269532.226562-.617188.109375-.925782-4.179688-10.851562-13.6875-17.074218-26.089844-17.074218-16.019531 0-28.101563 12.382812-28.101563 28.804687 0 16.332031 12.082032 28.648438 28.101563 28.648438 12.410156 0 21.917969-6.167969 26.085937-16.917969.121094-.304688.082032-.652344-.105468-.925781-.1875-.273438-.496094-.4375-.824219-.4375zm0 0"/><path d="m249.339844 126.492188h-7.554688c-.394531 0-.753906.230468-.914062.59375l-19.023438 42.507812-19.027344-42.507812c-.160156-.363282-.515624-.59375-.914062-.59375h-7.628906c-.550782 0-1 .449218-1 1v53.894531c0 .550781.449218 1 1 1h7.085937c.550781 0 1-.449219 1-1v-35.574219l16.078125 35.980469c.164063.359375.519532.59375.914063.59375h4.984375c.394531 0 .753906-.234375.914062-.59375l16-35.894531v35.488281c0 .550781.449219 1 1 1h7.085938c.550781 0 1-.449219 1-1v-53.894531c0-.554688-.449219-1-1-1zm0 0"/><path d="m285.945312 125.480469c-16.109374 0-28.261718 12.347656-28.261718 28.726562 0 16.375 12.152344 28.722657 28.261718 28.722657 16.109376 0 28.257813-12.351563 28.257813-28.722657 0-16.378906-12.152344-28.726562-28.257813-28.726562zm0 49.296875c-11.375 0-19.015624-8.265625-19.015624-20.570313 0-12.308593 7.640624-20.574219 19.015624-20.574219 11.371094 0 19.015626 8.265626 19.015626 20.574219-.003907 12.304688-7.644532 20.570313-19.015626 20.570313zm0 0"/><path d="m341.484375 150.105469c-6.410156-1.765625-11.941406-3.289063-11.941406-8.90625 0-2.195313.695312-3.984375 2.074219-5.324219 1.667968-1.628906 4.265624-2.515625 7.347656-2.398438 5.945312.070313 9.109375 3.671876 9.535156 6.992188.0625.5.488281.875.992188.875h7.789062c.285156 0 .554688-.121094.746094-.328125.1875-.210937.277344-.492187.25-.777344-.933594-9.011719-8.386719-14.835937-18.984375-14.835937-11.359375 0-18.992188 6.445312-18.992188 16.03125 0 11.660156 9.128907 14.097656 17.179688 16.25 6.539062 1.742187 12.183593 3.25 12.183593 9.214844 0 4.882812-3.886718 8.039062-9.902343 8.039062-8.707031 0-10.023438-6.230469-10.222657-8.140625-.050781-.507813-.480468-.894531-.996093-.894531h-7.554688c-.265625 0-.523437.109375-.710937.296875-.1875.191406-.292969.453125-.289063.71875.167969 9.429687 8.296875 16.015625 19.773438 16.015625 12.515625 0 19.066406-8.222656 19.066406-16.34375-.003906-11.710938-9.214844-14.246094-17.34375-16.484375zm0 0"/><path d="m395.664062 58.164062c0-7.714843-6.277343-14-14-14h-274c-7.71875 0-14 6.285157-14 14v192c0 7.71875 6.28125 14 14 14h274c7.722657 0 14-6.28125 14-14zm-8 192c0 3.308594-2.691406 6-6 6h-274c-3.304687 0-6-2.691406-6-6v-192c0-3.304687 2.695313-6 6-6h274c3.308594 0 6 2.695313 6 6zm0 0"/><path d="m485.332031 230.164062c2.207031 0 4-1.789062 4-4 0-2.207031-1.792969-4-4-4h-45.667969v-28h45.667969c5.285157 0 5.292969-8 0-8h-45.667969v-28h45.667969c5.285157 0 5.292969-8 0-8h-45.667969v-28h45.667969c5.285157 0 5.292969-8 0-8h-45.667969v-28h45.667969c2.207031 0 4-1.789062 4-4 0-2.207031-1.792969-4-4-4h-45.667969v-28h45.667969c5.285157 0 5.292969-8 0-8h-45.667969v-28c0-7.714843-6.277343-14-14-14h-362c-7.71875 0-14 6.285157-14 14v28h-45.664062c-5.285156 0-5.292969 8 0 8h45.664062v28h-45.664062c-2.207031 0-4 1.792969-4 4 0 2.210938 1.792969 4 4 4h45.664062v28h-45.664062c-5.285156 0-5.292969 8 0 8h45.664062v28h-45.664062c-2.207031 0-4 1.792969-4 4 0 2.210938 1.792969 4 4 4h45.664062v28h-45.664062c-5.285156 0-5.292969 8 0 8h45.664062v28h-45.664062c-5.285156 0-5.292969 8 0 8h45.664062v28h-45.664062c-5.285156 0-5.292969 8 0 8h45.664062v28c0 7.71875 6.28125 14 14 14h362c7.722657 0 14-6.28125 14-14v-28h45.667969c5.285157 0 5.292969-8 0-8h-45.667969v-28zm-53.667969 64c0 3.308594-2.691406 6-6 6h-362c-3.304687 0-6-2.691406-6-6v-280c0-3.304687 2.695313-6 6-6h362c3.308594 0 6 2.695313 6 6zm0 0"/><path d="m80.664062 47.664062c8.546876 0 15.5-6.953124 15.5-15.5 0-8.542968-6.953124-15.5-15.5-15.5-8.542968 0-15.5 6.957032-15.5 15.5 0 8.546876 6.957032 15.5 15.5 15.5zm0-23c4.136719 0 7.5 3.367188 7.5 7.5 0 4.136719-3.363281 7.5-7.5 7.5-4.132812 0-7.5-3.363281-7.5-7.5 0-4.132812 3.367188-7.5 7.5-7.5zm0 0"/><path d="m408.664062 16.664062c-8.542968 0-15.5 6.957032-15.5 15.5 0 8.546876 6.957032 15.5 15.5 15.5 8.546876 0 15.5-6.953124 15.5-15.5 0-8.542968-6.953124-15.5-15.5-15.5zm0 23c-4.132812 0-7.5-3.363281-7.5-7.5 0-4.132812 3.367188-7.5 7.5-7.5 4.136719 0 7.5 3.367188 7.5 7.5 0 4.136719-3.363281 7.5-7.5 7.5zm0 0"/><path d="m80.664062 260.664062c-8.542968 0-15.5 6.957032-15.5 15.5 0 8.546876 6.957032 15.5 15.5 15.5 8.546876 0 15.5-6.953124 15.5-15.5 0-8.542968-6.953124-15.5-15.5-15.5zm0 23c-4.132812 0-7.5-3.363281-7.5-7.5 0-4.132812 3.367188-7.5 7.5-7.5 4.136719 0 7.5 3.367188 7.5 7.5 0 4.136719-3.363281 7.5-7.5 7.5zm0 0"/><path d="m408.664062 260.664062c-8.542968 0-15.5 6.957032-15.5 15.5 0 8.546876 6.957032 15.5 15.5 15.5 8.546876 0 15.5-6.953124 15.5-15.5 0-8.542968-6.953124-15.5-15.5-15.5zm0 23c-4.132812 0-7.5-3.363281-7.5-7.5 0-4.132812 3.367188-7.5 7.5-7.5 4.136719 0 7.5 3.367188 7.5 7.5 0 4.136719-3.363281 7.5-7.5 7.5zm0 0"/></g></svg>