<svg height="508pt" viewBox="-5 0 508 508.998" width="508pt" xmlns="http://www.w3.org/2000/svg"><path d="m221.558594 293.839844h55.320312v168.320312h-55.320312zm0 0" fill="#d8d6d7"/><path d="m255.398438 293.839844h21.480468v168.320312h-21.480468zm0 0" fill="#fff"/><path d="m483.9375 330.292969h-469.4375c-5.523438 0-10-4.476563-10-10v-305.792969c0-5.523438 4.476562-10 10-10h469.4375c5.523438 0 10 4.476562 10 10v305.792969c0 5.523437-4.476562 10-10 10zm0 0" fill="#d8d6d7"/><path d="m467.9375 40.5v253.800781c0 5.519531-4.476562 10-10 10h-417.4375c-5.519531 0-10-4.480469-10-10v-253.800781c0-5.519531 4.480469-10 10-10h417.4375c5.523438 0 10 4.480469 10 10zm0 0" fill="#56c1b3"/><path d="m467.9375 40.5v253.800781c0 5.519531-4.476562 10-10 10h-373.9375c-5.519531 0-10-4.480469-10-10v-253.800781c0-5.519531 4.480469-10 10-10h373.9375c5.523438 0 10 4.480469 10 10zm0 0" fill="#7befe4"/><path d="m376.558594 472.160156v23.339844c0 5.519531-4.480469 10-10 10h-234.679688c-5.519531 0-10-4.480469-10-10v-23.339844c0-5.519531 4.480469-10 10-10h234.679688c5.519531 0 10 4.480469 10 10zm0 0" fill="#d8d6d7"/><path d="m376.558594 472.160156v23.339844c0 5.519531-4.480469 10-10 10h-202.679688c-5.519531 0-10-4.480469-10-10v-23.339844c0-5.519531 4.480469-10 10-10h202.679688c5.519531 0 10 4.480469 10 10zm0 0" fill="#fff"/><path d="m396.609375 263.859375h-227c-5.523437 0-10-4.476563-10-10v-194.878906c0-5.519531 4.476563-10 10-10h227c5.523437 0 10 4.480469 10 10v194.878906c0 5.523437-4.476563 10-10 10zm0 0" fill="#f85252"/><path d="m401.390625 263.859375h-236.5625c-2.882813 0-5.21875-2.335937-5.21875-5.21875v-204.4375c0-2.882813 2.335937-5.222656 5.21875-5.222656h59.730469l25.511718 31.699219c1.773438 2.199218 4.449219 3.480468 7.273438 3.480468h149.265625v174.480469c0 2.882813-2.335937 5.21875-5.21875 5.21875zm0 0" fill="#fff"/><path d="m367.347656 66.878906c0 3.808594-3.089844 6.894532-6.898437 6.894532-3.808594 0-6.894531-3.085938-6.894531-6.894532s3.085937-6.898437 6.894531-6.898437c3.808593 0 6.898437 3.089843 6.898437 6.898437zm0 0" fill="#fff"/><path d="m392.589844 66.878906c0 3.808594-3.089844 6.894532-6.898438 6.894532s-6.894531-3.085938-6.894531-6.894532 3.085937-6.898437 6.894531-6.898437 6.898438 3.089843 6.898438 6.898437zm0 0" fill="#fff"/><path d="m255.589844 199.730469-32.484375-30.03125c-3.460938-3.199219-3.464844-8.683594 0-11.890625l32.484375-30.03125c3.28125-3.035156 8.402344-2.835938 11.4375.449218 3.039062 3.28125 2.835937 8.402344-.445313 11.4375l-26.054687 24.09375 26.054687 24.089844c3.28125 3.035156 3.484375 8.15625.445313 11.4375-3.039063 3.285156-8.160156 3.480469-11.4375.445313zm0 0" fill="#40c4df"/><path d="m337.503906 201.882812h-39.25c-4.535156 0-8.207031-3.675781-8.207031-8.207031 0-4.535156 3.671875-8.207031 8.207031-8.207031h39.25c4.53125 0 8.207032 3.671875 8.207032 8.207031 0 4.535157-3.675782 8.207031-8.207032 8.207031zm0 0" fill="#40c4df"/><path d="m222.117188 202.019531h-11.898438c-1.039062-3.5-2.441406-6.917969-4.21875-10.179687l8.417969-8.417969c2.0625-2.042969 2.0625-5.382813 0-7.441406l-13.777344-13.761719c-2.0625-2.058594-5.382813-2.058594-7.441406 0l-8.421875 8.421875c-3.257813-1.78125-6.679688-3.179687-10.179688-4.21875v-11.902344c0-2.898437-2.359375-5.257812-5.257812-5.257812h-19.480469c-2.898437 0-5.261719 2.359375-5.261719 5.257812v11.902344c-3.5 1.039063-6.898437 2.4375-10.179687 4.21875l-8.417969-8.421875c-2.039062-2.058594-5.382812-2.058594-7.441406 0l-13.757813 13.761719c-2.0625 2.058593-2.0625 5.398437 0 7.441406l8.417969 8.417969c-1.941406 3.558594-3.417969 7.28125-4.480469 11.101562h-11.640625c-2.917968 0-5.257812 2.359375-5.257812 5.238282v19.480468c0 2.917969 2.339844 5.28125 5.257812 5.28125h12.179688c.980468 3.179688 2.300781 6.277344 3.941406 9.257813l-8.417969 8.421875c-2.0625 2.058594-2.0625 5.378906 0 7.4375l13.757813 13.78125c2.058594 2.039062 5.402344 2.039062 7.441406 0l8.417969-8.417969c3.28125 1.777344 6.679687 3.179687 10.179687 4.21875v11.898437c0 2.921876 2.363282 5.28125 5.261719 5.28125h19.480469c2.898437 0 5.257812-2.359374 5.257812-5.28125v-11.898437c3.5-1.039063 6.921875-2.441406 10.203125-4.21875l8.398438 8.417969c2.058593 2.039062 5.378906 2.039062 7.441406 0l13.777344-13.78125c2.0625-2.058594 2.0625-5.378906 0-7.4375l-8.417969-8.402344c1.777344-3.277344 3.179688-6.699219 4.21875-10.199219h11.898438c2.921874 0 5.261718-2.359375 5.261718-5.257812v-19.480469c0-2.902344-2.339844-5.261719-5.261718-5.261719zm-62.5 47c-17.757813 0-32-14.398437-32-31.980469 0-17.757812 14.402343-32 32-32 17.660156 0 31.980468 14.320313 31.980468 32 0 17.722657-14.359375 31.980469-31.980468 31.980469zm0 0" fill="#f85252"/><g fill="#491352"><path d="m483.9375 0h-469.4375c-7.71875 0-14 6.28125-14 14v305.792969c0 7.71875 6.28125 14 14 14h203.058594v123.863281h-85.671875c-7.71875 0-14 6.28125-14 14v23.339844c0 7.722656 6.28125 14 14 14h234.667969c7.714843 0 14-6.277344 14-14v-23.339844c0-7.71875-6.285157-14-14-14h-85.675782v-123.863281h203.058594c7.71875 0 14-6.28125 14-14v-305.792969c0-7.71875-6.277344-14-14-14zm-117.382812 465.65625c3.304687 0 6 2.695312 6 6v23.34375c0 3.308594-2.695313 6-6 6h-234.667969c-3.308594 0-6-2.691406-6-6v-23.34375c0-3.304688 2.691406-6 6-6zm-140.996094-8v-123.863281h47.320312v123.863281zm264.378906-137.863281c0 3.308593-2.691406 6-6 6h-469.4375c-3.308594 0-6-2.691407-6-6v-305.792969c0-3.308594 2.691406-6 6-6h469.4375c3.308594 0 6 2.691406 6 6zm0 0"/><path d="m457.9375 26h-417.4375c-7.71875 0-14 6.28125-14 14v253.792969c0 7.71875 6.28125 14 14 14h417.441406c7.71875 0 14-6.28125 14-14v-253.792969c-.003906-7.71875-6.28125-14-14.003906-14zm6 267.792969c0 3.308593-2.691406 6-6 6h-417.4375c-3.308594 0-6-2.691407-6-6v-253.792969c0-3.308594 2.691406-6 6-6h417.441406c3.308594 0 6 2.691406 6 6v253.792969zm0 0"/><path d="m159.609375 181.035156c-19.847656 0-35.996094 16.148438-35.996094 36 0 19.84375 16.148438 35.992188 35.996094 35.992188s35.992187-16.148438 35.992187-35.992188c0-19.851562-16.144531-36-35.992187-36zm-4.390625 63.609375c-13.355469-2.117187-23.605469-13.671875-23.605469-27.609375 0-13.941406 10.25-25.5 23.605469-27.621094zm8 .121094v-55.472656c13.734375 1.78125 24.382812 13.527343 24.382812 27.742187 0 14.207032-10.648437 25.949219-24.382812 27.730469zm0 0"/><path d="m396.617188 44.980469c-103.675782 0-126.816407 0-231.796876 0-5.074218 0-9.203124 4.136719-9.203124 9.21875v91.054687h-5.75c-5.109376 0-9.265626 4.152344-9.265626 9.261719v9c-1.832031.648437-3.636718 1.394531-5.402343 2.238281l-6.363281-6.355468c-3.65625-3.671876-9.535157-3.582032-13.097657-.007813l-13.769531 13.761719c-3.628906 3.628906-3.613281 9.5-.003906 13.097656l6.363281 6.371094c-.96875 2.039062-1.820313 4.148437-2.542969 6.3125h-8.691406c-5.109375 0-9.265625 4.152344-9.265625 9.253906v19.476562c0 5.109376 4.15625 9.265626 9.265625 9.265626h9.324219c.566406 1.519531 1.203125 3.023437 1.90625 4.5l-6.363281 6.367187c-3.601563 3.617187-3.597657 9.492187.003906 13.09375l13.773437 13.777344c3.609375 3.609375 9.480469 3.609375 13.089844 0l6.371094-6.371094c1.753906.835937 3.558593 1.585937 5.402343 2.242187v9.003907c0 5.109375 4.15625 9.265625 9.265626 9.265625h19.464843c5.109375 0 9.265625-4.15625 9.265625-9.265625v-9.003907c1.855469-.660156 3.660156-1.40625 5.414063-2.238281l6.371093 6.382813c3.613282 3.578125 9.480469 3.578125 13.089844-.011719l6.808594-6.8125h191.117188c5.085937 0 9.21875-4.136719 9.21875-9.21875 0-19.789063 0-166.335937 0-199.660156 0-7.71875-6.277344-14-14-14zm-185.023438 210.253906c-.089844.089844-.160156.160156-.234375.234375 0 0-.007813.007812-.039063.039062-.101562.101563-.191406.191407-.261718.265626-.003906 0-.003906 0-.003906.003906-.066407.0625-.128907.125-.183594.179687-.058594.0625-.097656.097657-.109375.109375-1.195313 1.195313-4.535157 4.535156-12.941407 12.945313-.496093.492187-1.308593.492187-1.792968.007812l-8.410156-8.425781c-1.25-1.25-3.179688-1.539062-4.738282-.6875-2.945312 1.601562-6.117187 2.914062-9.429687 3.90625-1.691407.503906-2.851563 2.0625-2.851563 3.832031v11.902344c0 .699219-.570312 1.265625-1.265625 1.265625h-19.46875c-.695312 0-1.265625-.566406-1.265625-1.265625v-11.902344c0-1.769531-1.160156-3.328125-2.851562-3.832031-3.285156-.984375-6.453125-2.296875-9.414063-3.90625-1.570312-.851562-3.496093-.554688-4.738281.6875l-8.421875 8.421875c-.480469.480469-1.292969.480469-1.777344 0l-13.773437-13.777344c-.488282-.492187-.488282-1.292969 0-1.789062l8.417968-8.421875c1.257813-1.257813 1.53125-3.191406.679688-4.75-1.496094-2.730469-2.714844-5.597656-3.617188-8.523438-.519531-1.679687-2.066406-2.824218-3.824218-2.824218h-12.1875c-.699219 0-1.265625-.566407-1.265625-1.265626v-19.472656c0-.695312.566406-1.257812 1.265625-1.257812h11.648437c1.796875 0 3.375-1.203125 3.855469-2.933594.992188-3.589844 2.378906-7.03125 4.128906-10.234375.847656-1.558594.566406-3.488281-.683594-4.742187l-8.421874-8.433594c-.484376-.484375-.480469-1.289063.007812-1.777344l13.777344-13.769531c.480468-.480469 1.273437-.492188 1.773437.007812l8.425781 8.417969c1.246094 1.25 3.175782 1.535156 4.734376.683594 3.003906-1.632813 6.164062-2.941406 9.398437-3.894532 1.699219-.5 2.867187-2.0625 2.867187-3.835937v-11.902344c0-.699219.570313-1.265625 1.265626-1.265625h19.46875c.695312 0 1.265624.566406 1.265624 1.265625v11.902344c0 1.773437 1.167969 3.335937 2.871094 3.835937 3.28125.964844 6.441406 2.277344 9.394532 3.890626 1.558593.851562 3.488281.570312 4.746093-.683594l8.410157-8.410156c.503906-.5 1.292968-.503907 1.792968-.003907l13.777344 13.761719c.484375.484375.5 1.289062 0 1.785156l-8.425781 8.425782c-1.257813 1.253906-1.53125 3.191406-.679688 4.75 1.605469 2.929687 2.917969 6.089843 3.898438 9.390624.503906 1.699219 2.0625 2.863282 3.835937 2.863282h11.902344c.699219 0 1.265625.566406 1.265625 1.261718v19.46875c0 .699219-.566406 1.265626-1.265625 1.265626h-11.902344c-1.773437 0-3.332031 1.164062-3.835937 2.859374-.984375 3.3125-2.296875 6.480469-3.898438 9.414063-.851562 1.5625-.574219 3.496094.683594 4.75l8.414063 8.398437c.496093.496094.496093 1.300782.007812 1.789063zm191.023438-1.375c0 3.308594-2.691407 6-6 6h-178.527344c2.699218-3.617187 2.445312-8.765625-.84375-12.070313l-6.363282-6.351562c.835938-1.75 1.585938-3.5625 2.238282-5.417969h9.003906c5.109375 0 9.265625-4.15625 9.265625-9.261719v-19.46875c0-5.109374-4.15625-9.265624-9.265625-9.265624h-9.003906c-.652344-1.847657-1.402344-3.65625-2.238282-5.40625l6.359376-6.359376c1.75-1.742187 2.71875-4.066406 2.71875-6.542968.003906-4.957032-1.910157-5.761719-16.488282-20.324219-3.605468-3.601563-9.476562-3.605469-13.101562 0l-6.359375 6.359375c-1.757813-.839844-3.566407-1.585938-5.414063-2.238281v-8.996094c0-5.109375-4.15625-9.265625-9.265625-9.265625h-5.714843v-86.269531c0-3.308594 2.695312-6 6-6h53.027343l24.308594 30.199219c2.535156 3.164062 6.316406 4.980468 10.382813 4.980468h145.28125zm0-173.699219h-145.277344c-1.601563 0-3.144532-.738281-4.144532-1.988281l-20.28125-25.191406h163.703126c3.308593 0 6 2.691406 6 6zm0 0"/><path d="m217.867188 68.039062c0-2.207031-1.789063-4-4-4h-34.539063c-2.210937 0-4 1.792969-4 4 0 2.207032 1.789063 4 4 4h34.539063c2.210937 0 4-1.792968 4-4zm0 0"/><path d="m360.449219 55.980469c-6.007813 0-10.894531 4.890625-10.894531 10.898437 0 6.007813 4.886718 10.894532 10.894531 10.894532 6.011719 0 10.898437-4.886719 10.898437-10.894532 0-6.007812-4.886718-10.898437-10.898437-10.898437zm0 13.796875c-1.597657 0-2.894531-1.300782-2.894531-2.898438 0-1.59375 1.296874-2.894531 2.894531-2.894531 1.601562 0 2.898437 1.300781 2.898437 2.894531 0 1.597656-1.296875 2.898438-2.898437 2.898438zm0 0"/><path d="m385.691406 55.980469c-6.007812 0-10.894531 4.890625-10.894531 10.898437 0 6.007813 4.886719 10.894532 10.894531 10.894532 6.007813 0 10.898438-4.886719 10.898438-10.894532 0-6.007812-4.890625-10.898437-10.898438-10.898437zm0 13.796875c-1.597656 0-2.894531-1.300782-2.894531-2.898438 0-1.59375 1.296875-2.894531 2.894531-2.894531s2.898438 1.300781 2.898438 2.894531c0 1.597656-1.300782 2.898438-2.898438 2.898438zm0 0"/><path d="m216.507812 163.757812c0 7.042969 1.742188 6.898438 36.371094 38.910157 7.851563 7.265625 20.71875 1.40625 20.292969-9.355469-.253906-6.472656-2.199219-6.855469-26.75-29.558594 24.507813-22.660156 26.496094-23.078125 26.75-29.558594.425781-10.789062-12.4375-16.621093-20.292969-9.355468-34.675781 32.054687-36.375 31.886718-36.371094 38.917968zm47.355469-27.027343-26.050781 24.089843c-1.710938 1.578126-1.710938 4.292969 0 5.875 28.210938 26.085938 27.273438 24.601563 27.367188 26.933594.140624 3.597656-4.175782 5.664063-6.875 3.167969-35.074219-32.425781-33.796876-30.519531-33.796876-33.039063-.003906-2.511718-1.285156-.605468 33.800782-33.042968 3.964844-3.671875 9.527344 2.34375 5.554687 6.015625zm0 0"/><path d="m298.253906 205.882812h39.25c6.730469 0 12.207032-5.476562 12.207032-12.207031s-5.476563-12.207031-12.207032-12.207031h-39.25c-6.730468 0-12.207031 5.476562-12.207031 12.207031s5.472656 12.207031 12.207031 12.207031zm0-16.414062h39.25c5.5625 0 5.5625 8.414062 0 8.414062h-39.25c-5.5625 0-5.566406-8.414062 0-8.414062zm0 0"/></g></svg>