<svg height="506pt" viewBox="-107 0 506 506.834" width="506pt" xmlns="http://www.w3.org/2000/svg"><path d="m289.371094 13.996094v478.839844c0 5.519531-4.476563 10-10 10h-264.957032c-5.519531 0-10-4.480469-10-10v-478.839844c0-5.519532 4.480469-10 10-10h264.957032c5.523437 0 10 4.480468 10 10zm0 0" fill="#1c868e"/><path d="m289.371094 13.996094v478.839844c0 5.519531-4.476563 10-10 10h-241.957032c-5.519531 0-10-4.480469-10-10v-478.839844c0-5.519532 4.480469-10 10-10h241.957032c5.523437 0 10 4.480468 10 10zm0 0" fill="#40c4df"/><path d="m289.371094 13.996094v148.378906l-37.578125 45.820312-4.519531 5.519532c-3.980469 4.882812-9.941407 7.699218-16.242188 7.699218h-168.277344c-6.300781 0-12.261718-2.816406-16.242187-7.699218l-42.097657-51.339844v-148.378906c0-5.519532 4.480469-10 10-10h264.957032c5.523437 0 10 4.480468 10 10zm0 0" fill="#d73735"/><path d="m289.371094 13.996094v148.378906l-37.578125 45.820312h-166.039063c-6.300781 0-12.261718-2.820312-16.242187-7.699218l-42.097657-51.339844v-145.160156h251.957032c5.523437 0 10 4.480468 10 10zm0 0" fill="#f85252"/><path d="m249.734375 65.835938v20c0 5.519531-4.480469 10-10 10h-185.679687c-5.523438 0-10-4.480469-10-10v-20c0-5.519532 4.476562-10 10-10h185.679687c5.519531 0 10 4.480468 10 10zm0 0" fill="#d8d6d7"/><path d="m249.734375 65.835938c0 5.519531-4.480469 10-10 10h-185.679687c-5.523438 0-10-4.480469-10-10 0-5.519532 4.476562-10 10-10h185.679687c5.519531 0 10 4.480468 10 10zm0 0" fill="#fff"/><path d="m208.644531 400.105469c0 34.101562-27.648437 61.75-61.75 61.75-34.105469 0-61.75-27.648438-61.75-61.75 0-34.105469 27.644531-61.75 61.75-61.75 34.101563 0 61.75 27.644531 61.75 61.75zm0 0" fill="#fff"/><path d="m185.574219 400.097656c0 17.859375-12.082031 32.878906-28.519531 37.339844-3.242188.878906-6.640626 1.359375-10.160157 1.359375-21.363281 0-38.679687-17.320313-38.679687-38.699219 0-21.363281 17.316406-38.683594 38.679687-38.683594 3.519531 0 6.917969.460938 10.160157 1.363282 16.4375 4.4375 28.519531 19.480468 28.519531 37.320312zm0 0" fill="#1c868e"/><path d="m185.574219 400.097656c0 17.859375-12.082031 32.878906-28.519531 37.339844-16.460938-4.460938-28.542969-19.480469-28.542969-37.339844 0-17.839844 12.082031-32.882812 28.542969-37.320312 16.4375 4.4375 28.519531 19.480468 28.519531 37.320312zm0 0" fill="#40c4df"/><g fill="#491352"><path d="m279.367188 0h-264.949219c-7.722657 0-14 6.28125-14 14v478.835938c0 7.71875 6.277343 14 14 14h264.953125c7.71875 0 14-6.28125 14-14v-478.835938c-.003906-7.71875-6.28125-14-14.003906-14zm6 492.832031c0 3.308594-2.691407 6-6 6h-264.949219c-3.308594 0-6-2.691406-6-6v-319.265625l34.996093 42.675782c4.753907 5.832031 11.804688 9.171874 19.339844 9.171874h168.28125c7.539063 0 14.585938-3.339843 19.332032-9.160156l35.003906-42.6875v319.265625zm0-331.882812-41.195313 50.238281c-3.226563 3.957031-8.015625 6.226562-13.140625 6.226562h-168.277344c-5.125 0-9.914062-2.269531-13.148437-6.234374l-41.1875-50.230469v-146.949219c0-3.308594 2.691406-6 6-6h264.953125c3.308594 0 6 2.691406 6 6v146.949219zm0 0"/><path d="m239.726562 51.832031h-185.667968c-7.71875 0-14 6.28125-14 14v20c0 7.71875 6.28125 14 14 14h185.667968c7.71875 0 14-6.28125 14-14v-20c0-7.71875-6.28125-14-14-14zm6 34c0 3.308594-2.691406 6-6 6h-185.667968c-3.308594 0-6-2.691406-6-6v-20c0-3.308593 2.691406-6 6-6h185.667968c3.304688 0 6 2.691407 6 6zm0 0"/><path d="m224.394531 71.832031h-17.335937c-5.285156 0-5.292969 8 0 8h17.335937c2.207031 0 4-1.792969 4-4s-1.792969-4-4-4zm0 0"/><path d="m146.894531 334.355469c-36.253906 0-65.75 29.496093-65.75 65.75 0 36.253906 29.496094 65.75 65.75 65.75 36.253907 0 65.75-29.496094 65.75-65.75 0-36.253907-29.496093-65.75-65.75-65.75zm0 123.5c-31.84375 0-57.75-25.90625-57.75-57.75s25.90625-57.75 57.75-57.75 57.75 25.90625 57.75 57.75-25.90625 57.75-57.75 57.75zm0 0"/><path d="m146.894531 357.414062c-23.539062 0-42.691406 19.152344-42.691406 42.691407 0 23.535156 19.152344 42.6875 42.691406 42.6875 23.535157 0 42.6875-19.152344 42.6875-42.6875 0-23.539063-19.152343-42.691407-42.6875-42.691407zm0 77.378907c-19.128906 0-34.691406-15.5625-34.691406-34.6875 0-19.128907 15.5625-34.691407 34.691406-34.691407 19.125 0 34.6875 15.5625 34.6875 34.691407 0 19.125-15.5625 34.6875-34.6875 34.6875zm0 0"/><path d="m217.308594 249.414062h-140.832032c-5.285156 0-5.292968 8 0 8h140.835938c5.28125 0 5.289062-8-.003906-8zm0 0"/><path d="m217.308594 281.414062h-140.832032c-5.285156 0-5.292968 8 0 8h140.835938c5.28125 0 5.289062-8-.003906-8zm0 0"/></g></svg>