<svg height="508pt" viewBox="-5 0 508 508.998" width="508pt" xmlns="http://www.w3.org/2000/svg"><path d="m376.558594 472.160156v23.339844c0 5.519531-4.480469 10-10 10h-234.679688c-5.519531 0-10-4.480469-10-10v-23.339844c0-5.519531 4.480469-10 10-10h234.679688c5.519531 0 10 4.480469 10 10zm0 0" fill="#d8d6d7"/><path d="m221.558594 293.839844h55.320312v168.320312h-55.320312zm0 0" fill="#d8d6d7"/><path d="m483.9375 330.292969h-469.4375c-5.523438 0-10-4.476563-10-10v-305.792969c0-5.523438 4.476562-10 10-10h469.4375c5.523438 0 10 4.476562 10 10v305.792969c0 5.523437-4.476562 10-10 10zm0 0" fill="#d8d6d7"/><path d="m467.9375 40.5v253.800781c0 5.519531-4.476562 10-10 10h-417.4375c-5.519531 0-10-4.480469-10-10v-253.800781c0-5.519531 4.480469-10 10-10h417.4375c5.523438 0 10 4.480469 10 10zm0 0" fill="#56c1b3"/><path d="m467.9375 40.5v253.800781c0 5.519531-4.476562 10-10 10h-373.9375c-5.519531 0-10-4.480469-10-10v-253.800781c0-5.519531 4.480469-10 10-10h373.9375c5.523438 0 10 4.480469 10 10zm0 0" fill="#7befe4"/><path d="m376.558594 472.160156v23.339844c0 5.519531-4.480469 10-10 10h-202.679688c-5.519531 0-10-4.480469-10-10v-23.339844c0-5.519531 4.480469-10 10-10h202.679688c5.519531 0 10 4.480469 10 10zm0 0" fill="#fff"/><path d="m263.800781 255.558594h-29.160156c-5.523437 0-10-4.476563-10-10v-22.242188h49.160156v22.242188c0 5.523437-4.480469 10-10 10zm0 0" fill="#1c868e"/><path d="m240.558594 128.984375-45.804688 79.332031c-3.847656 6.667969.964844 15 8.660156 15h91.605469c7.699219 0 12.511719-8.332031 8.660157-15l-45.800782-79.332031c-3.847656-6.667969-13.472656-6.667969-17.320312 0zm0 0" fill="#40c4df"/><path d="m255.398438 330.292969h21.480468v131.867187h-21.480468zm0 0" fill="#fff"/><g fill="#491352"><path d="m483.9375 0h-469.4375c-7.722656 0-14 6.28125-14 14v305.792969c0 7.71875 6.277344 14 14 14h203.050781v123.863281h-85.664062c-7.722657 0-14 6.28125-14 14v23.339844c0 7.722656 6.277343 14 14 14h234.664062c7.71875 0 14-6.277344 14-14v-23.339844c0-7.71875-6.28125-14-14-14h-85.667969v-123.863281h203.054688c7.71875 0 14-6.28125 14-14v-305.792969c0-7.71875-6.28125-14-14-14zm-117.382812 465.65625c3.304687 0 6 2.695312 6 6v23.34375c0 3.308594-2.695313 6-6 6h-234.667969c-3.308594 0-6-2.691406-6-6v-23.34375c0-3.304688 2.691406-6 6-6zm-141.003907-8v-123.863281h47.335938v123.863281zm264.386719-137.863281c0 3.308593-2.691406 6-6 6-8.441406 0-446.71875 0-469.4375 0-3.308594 0-6-2.691407-6-6v-305.792969c0-3.308594 2.691406-6 6-6h469.4375c3.308594 0 6 2.691406 6 6zm0 0"/><path d="m457.9375 26h-417.4375c-7.722656 0-14 6.28125-14 14v253.792969c0 7.71875 6.277344 14 14 14h417.4375c7.71875 0 14-6.28125 14-14v-253.792969c0-7.71875-6.28125-14-14-14zm6 267.792969c0 3.308593-2.691406 6-6 6h-417.4375c-3.308594 0-6-2.691407-6-6v-253.792969c0-3.308594 2.691406-6 6-6h417.4375c3.308594 0 6 2.691406 6 6zm0 0"/><path d="m261.34375 126.984375c-5.390625-9.332031-18.855469-9.34375-24.25 0l-45.804688 79.332031c-5.386718 9.332032 1.339844 21 12.125 21h17.226563v18.242188c0 7.722656 6.277344 14 14 14h29.160156c7.714844 0 14-6.277344 14-14v-18.242188c16.527344 0 24.28125 1.773438 29.347657-7 2.53125-4.378906 2.527343-9.613281 0-14zm8.457031 118.574219c0 3.308594-2.695312 6-6 6h-29.160156c-3.308594 0-6-2.691406-6-6v-18.242188h41.160156zm30.417969-29.242188c-2.339844 4.054688.800781 3-79.578125 3-17.832031 0-20.179687.886719-22.421875-3-1.082031-1.875-1.082031-4.121094 0-6 49.347656-85.46875 46.117188-82.332031 51-82.332031 2.167969 0 4.109375 1.121094 5.195312 3 49.347657 85.476563 48.242188 81.109375 45.804688 85.332031zm0 0"/><path d="m253.21875 102.234375v-24c0-5.285156-8-5.289063-8 0v24c0 5.285156 8 5.289063 8 0zm0 0"/><path d="m209.070312 117.707031c3.039063 0 5.007813-3.316406 3.457032-6l-12-20.785156c-1.101563-1.914063-3.546875-2.570313-5.460938-1.464844-1.914062 1.105469-2.570312 3.550781-1.464844 5.464844 12.703126 22.003906 12.347657 22.785156 15.46875 22.785156zm0 0"/><path d="m182.027344 140.257812-20.785156-12c-1.914063-1.105468-4.359376-.449218-5.464844 1.464844-1.101563 1.914063-.449219 4.359375 1.464844 5.464844l20.785156 12c4.574218 2.644531 8.582031-4.285156 4-6.929688zm0 0"/><path d="m289.367188 117.707031c3.132812 0 2.78125-.804687 15.46875-22.785156 2.640624-4.578125-4.28125-8.582031-6.929688-4l-12 20.785156c-1.542969 2.679688.410156 6 3.460938 6zm0 0"/><path d="m337.195312 128.257812-20.785156 12c-4.574218 2.640626-.585937 9.578126 4 6.929688l20.785156-12c1.914063-1.105469 2.570313-3.550781 1.464844-5.464844-1.105468-1.914062-3.546875-2.574218-5.464844-1.464844zm0 0"/></g></svg>