<svg height="508pt" viewBox="-5 0 508 508.998" width="508pt" xmlns="http://www.w3.org/2000/svg"><path d="m221.558594 293.339844h55.320312v168.320312h-55.320312zm0 0" fill="#d8d6d7"/><path d="m255.398438 293.339844h21.480468v168.320312h-21.480468zm0 0" fill="#fff"/><path d="m483.9375 329.792969h-469.4375c-5.523438 0-10-4.476563-10-10v-305.792969c0-5.523438 4.476562-10 10-10h469.4375c5.523438 0 10 4.476562 10 10v305.792969c0 5.523437-4.476562 10-10 10zm0 0" fill="#d8d6d7"/><path d="m467.9375 40v253.800781c0 5.519531-4.476562 10-10 10h-417.4375c-5.519531 0-10-4.480469-10-10v-253.800781c0-5.519531 4.480469-10 10-10h417.4375c5.523438 0 10 4.480469 10 10zm0 0" fill="#56c1b3"/><path d="m467.9375 40v253.800781c0 5.519531-4.476562 10-10 10h-373.9375c-5.519531 0-10-4.480469-10-10v-253.800781c0-5.519531 4.480469-10 10-10h373.9375c5.523438 0 10 4.480469 10 10zm0 0" fill="#7befe4"/><path d="m376.558594 471.660156v23.339844c0 5.519531-4.480469 10-10 10h-234.679688c-5.519531 0-10-4.480469-10-10v-23.339844c0-5.519531 4.480469-10 10-10h234.679688c5.519531 0 10 4.480469 10 10zm0 0" fill="#d8d6d7"/><path d="m376.558594 471.660156v23.339844c0 5.519531-4.480469 10-10 10h-202.679688c-5.519531 0-10-4.480469-10-10v-23.339844c0-5.519531 4.480469-10 10-10h202.679688c5.519531 0 10 4.480469 10 10zm0 0" fill="#fff"/><path d="m271.019531 166.894531c0 12.042969-9.761719 21.800781-21.800781 21.800781s-21.800781-9.757812-21.800781-21.800781c0-12.039062 9.761719-21.796875 21.800781-21.796875s21.800781 9.757813 21.800781 21.796875zm0 0" fill="#f85252"/><g fill="#491352"><path d="m483.9375 0h-469.4375c-7.71875 0-14 6.28125-14 14v305.792969c0 7.71875 6.28125 14 14 14h203.058594v123.863281h-85.671875c-7.71875 0-14 6.28125-14 14v23.339844c0 7.722656 6.28125 14 14 14h234.667969c7.714843 0 14-6.277344 14-14v-23.339844c0-7.71875-6.285157-14-14-14h-85.675782v-123.863281h203.058594c7.71875 0 14-6.28125 14-14v-305.792969c0-7.71875-6.277344-14-14-14zm-117.382812 465.65625c3.304687 0 6 2.695312 6 6v23.34375c0 3.308594-2.695313 6-6 6h-234.667969c-3.308594 0-6-2.691406-6-6v-23.34375c0-3.304688 2.691406-6 6-6zm-140.996094-8v-123.863281h47.320312v123.863281zm264.378906-137.863281c0 3.308593-2.691406 6-6 6h-469.4375c-3.308594 0-6-2.691407-6-6v-305.792969c0-3.308594 2.691406-6 6-6h469.4375c3.308594 0 6 2.691406 6 6zm0 0"/><path d="m457.9375 26h-417.4375c-7.71875 0-14 6.28125-14 14v253.792969c0 7.71875 6.28125 14 14 14h417.441406c7.71875 0 14-6.28125 14-14v-253.792969c-.003906-7.71875-6.28125-14-14.003906-14zm6 267.792969c0 3.308593-2.691406 6-6 6h-417.4375c-3.308594 0-6-2.691407-6-6v-253.792969c0-3.308594 2.691406-6 6-6h417.441406c3.308594 0 6 2.691406 6 6v253.792969zm0 0"/><path d="m291.855469 91.714844c-21.046875-64.785156-64.175781-64.894532-85.261719-.035156-67.5-15.46875-89.027344 22.9375-41.949219 75.214843-46.921875 52.109375-25.832031 90.75 41.949219 75.21875 21.0625 64.78125 64.1875 64.832031 85.261719-.035156 68.039062 15.632813 88.707031-23.25 41.941406-75.183594 46.730469-51.890625 26.15625-90.828125-41.941406-75.179687zm36.398437 69.273437c-7.804687-7.933593-16.9375-15.847656-27.175781-23.476562-1.398437-13.800781-3.761719-26.632813-6.929687-38.117188 59.941406-13.554687 74.757812 16.328125 34.105468 61.59375zm-26.285156-12.632812c7.667969 6.082031 14.625 12.320312 20.734375 18.539062-6.109375 6.222657-13.066406 12.460938-20.734375 18.542969.765625-12.316406.765625-24.746094 0-37.082031zm-9.738281-17.183594c-10.757813-7.390625-21.953125-14.042969-33.589844-19.960937 9.4375-4.0625 18.738281-7.386719 27.667969-9.855469 2.507812 9.117187 4.515625 19.144531 5.921875 29.816406zm-8.203125-37.484375c-11.207032 3.113281-22.933594 7.492188-34.78125 12.953125-12.058594-5.574219-23.785156-9.902344-34.832032-12.964844 18.429688-56.691406 51.179688-56.710937 69.613282.011719zm-71.917969 7.742188c8.8125 2.453124 18.113281 5.726562 27.652344 9.8125-11.492188 5.839843-22.609375 12.414062-33.554688 19.929687 1.402344-10.640625 3.402344-20.644531 5.902344-29.742187zm-7.828125-2.015626c-3.164062 11.480469-5.523438 24.304688-6.921875 38.097657-10.238281 7.628906-19.371094 15.542969-27.175781 23.476562-40.769532-45.394531-25.605469-75.257812 34.097656-61.574219zm-7.8125 86.023438c-7.664062-6.082031-14.625-12.320312-20.734375-18.542969 6.109375-6.21875 13.070313-12.457031 20.734375-18.539062-.765625 12.316406-.765625 24.746093 0 37.082031zm-26.28125-12.632812c7.800781 7.933593 16.933594 15.84375 27.175781 23.480468 1.394531 13.789063 3.757813 26.613282 6.921875 38.09375-59.222656 13.574219-75.1875-15.828125-34.097656-61.574218zm36.019531 29.816406c10.941407 7.511718 22.058594 14.085937 33.546875 19.925781-9.53125 4.082031-18.835937 7.375-27.644531 9.828125-2.496094-9.097656-4.5-19.109375-5.902344-29.753906zm8.207031 37.492187c11.046876-3.066406 22.769532-7.390625 34.828126-12.964843 11.847656 5.464843 23.578124 9.84375 34.785156 12.957031-18.425782 56.699219-51.175782 56.730469-69.613282.007812zm71.894532-7.675781c-8.9375-2.472656-18.234375-5.796875-27.679688-9.863281 11.488282-5.84375 22.554688-12.367188 33.601563-19.953125-1.40625 10.671875-3.414063 20.699218-5.921875 29.816406zm-37.125-14.15625c-14.914063-7.140625-29.816406-15.890625-44.160156-26.339844-1.480469-16.410156-1.53125-33.121094 0-50.089844 14.359374-10.460937 29.273437-19.214843 44.148437-26.335937 15.585937 7.417969 30.269531 16.15625 44.242187 26.335937 1.480469 16.410157 1.53125 33.117188 0 50.089844-13.613281 9.921875-28.359374 18.78125-44.230468 26.339844zm44.964844 16.117188c3.167968-11.484376 5.53125-24.3125 6.929687-38.113282 10.238281-7.632812 19.371094-15.546875 27.175781-23.480468 40.730469 45.351562 25.726563 75.125-34.105468 61.59375zm0 0"/><path d="m249.21875 141.097656c-14.222656 0-25.796875 11.574219-25.796875 25.796875 0 14.226563 11.574219 25.800781 25.796875 25.800781 14.226562 0 25.800781-11.574218 25.800781-25.800781 0-14.222656-11.574219-25.796875-25.800781-25.796875zm0 43.597656c-9.8125 0-17.796875-7.984374-17.796875-17.800781 0-9.8125 7.984375-17.796875 17.796875-17.796875s17.800781 7.984375 17.800781 17.796875c0 9.816407-7.988281 17.800781-17.800781 17.800781zm0 0"/></g></svg>