<svg height="502pt" viewBox="-97 0 502 502.326" width="502pt" xmlns="http://www.w3.org/2000/svg"><path d="m283.742188 13.996094v56.660156h-57.28125v-56.660156c0-5.519532 4.480468-10 10-10h37.28125c5.519531 0 10 4.480468 10 10zm0 0" fill="#d8d6d7"/><path d="m259.566406 263.65625h-8.921875c-5.523437 0-10-4.476562-10-10v-56.664062h28.921875v56.664062c0 5.523438-4.480468 10-10 10zm0 0" fill="#d8d6d7"/><path d="m303.839844 47.316406v134.261719c0 22.859375-15.738282 42.039063-36.980469 47.300781-3.757813.9375-7.699219 1.4375-11.757813 1.4375-26.921874 0-48.742187-21.820312-48.742187-48.738281v-134.261719c0-5.519531 4.480469-10 10-10h77.480469c5.542968 0 10 4.480469 10 10zm0 0" fill="#d73735"/><path d="m283.742188 13.996094v56.660156h-33.78125v-56.660156c0-5.519532 4.480468-10 10-10h13.78125c5.519531 0 10 4.480468 10 10zm0 0" fill="#fff"/><path d="m303.839844 47.316406v134.261719c0 22.859375-15.738282 42.039063-36.980469 47.300781-21.257813-5.242187-37-24.421875-37-47.300781v-134.261719c0-5.519531 4.480469-10 10-10h53.980469c5.542968 0 10 4.480469 10 10zm0 0" fill="#f85252"/><path d="m81.542969 171.5v56.660156h-57.28125v-56.660156c0-5.519531 4.480469-10 10-10h37.28125c5.519531 0 10 4.480469 10 10zm0 0" fill="#d8d6d7"/><path d="m57.367188 421.160156h-8.925782c-5.519531 0-10-4.476562-10-10v-56.667968h28.921875v56.667968c.003907 5.523438-4.472656 10-9.996093 10zm0 0" fill="#d8d6d7"/><path d="m101.644531 204.820312v134.257813c0 22.863281-15.742187 42.042969-36.980469 47.300781-3.761718.941406-7.699218 1.441406-11.761718 1.441406-26.917969 0-48.738282-21.820312-48.738282-48.742187v-134.257813c0-5.519531 4.480469-10 10-10h77.480469c5.539063 0 10 4.480469 10 10zm0 0" fill="#d73735"/><path d="m81.542969 171.5v56.660156h-33.78125v-56.660156c0-5.519531 4.480469-10 10-10h13.78125c5.519531 0 10 4.480469 10 10zm0 0" fill="#fff"/><path d="m101.644531 204.820312v134.257813c0 22.863281-15.742187 42.042969-36.980469 47.300781-21.261718-5.238281-37-24.417968-37-47.300781v-134.257813c0-5.519531 4.480469-10 10-10h53.980469c5.539063 0 10 4.480469 10 10zm0 0" fill="#f85252"/><g fill="#491352"><path d="m293.84375 33.320312h-6.101562v-19.320312c0-7.71875-6.277344-14-14-14h-37.277344c-7.722656 0-14 6.28125-14 14v19.320312h-6.101563c-7.71875 0-14 6.28125-14 14v134.257813c0 22.582031 14.28125 41.902344 34.28125 49.402344v22.679687c0 7.234375 5.628907 14 14.457031 14v220.664063c0 3.308593-2.691406 6-6 6h-182.195312c-3.308594 0-6-2.691407-6-6v-63.164063c8.746094 0 14.457031-6.695312 14.457031-14v-22.679687c20-7.5 34.28125-26.820313 34.28125-49.402344v-134.257813c0-7.71875-6.28125-14-14-14h-6.101562v-19.320312c0-7.71875-6.28125-14-14-14h-37.28125c-7.71875 0-14 6.28125-14 14v19.320312h-6.097657c-7.722656 0-14 6.28125-14 14v134.257813c0 22.582031 14.277344 41.902344 34.277344 49.402344v22.679687c0 7.222656 5.621094 14 14.464844 14v63.164063c0 7.722656 6.28125 14 14 14h182.195312c7.71875 0 14-6.277344 14-14v-220.664063c8.761719 0 14.460938-6.707031 14.460938-14v-22.679687c20-7.5 34.28125-26.820313 34.28125-49.402344v-134.257813c0-7.71875-6.28125-14-14-14zm-265.582031 138.179688c0-3.320312 2.703125-6 6-6h37.28125c3.320312 0 6 2.679688 6 6v19.320312h-49.28125zm-20.097657 167.578125v-134.257813c0-3.300781 2.679688-6 6-6h77.480469c3.320313 0 6 2.699219 6 6v134.257813c0 18.101563-10.78125 33.722656-26.28125 40.742187-29.355469 13.40625-63.199219-8.148437-63.199219-40.742187zm34.277344 51.683594c6.828125 1.414062 14.089844 1.414062 20.921875 0v20.398437c0 3.300782-2.679687 6-6 6-17.441406 0-14.921875 1.664063-14.921875-26.398437zm188.023438-376.761719c0-3.320312 2.679687-6 6-6h37.277344c3.300781 0 6 2.679688 6 6v19.320312h-49.277344zm20.179687 245.660156c-3.320312 0-6-2.699218-6-6v-20.398437c6.824219 1.414062 14.085938 1.414062 20.917969 0 0 28.453125 2.203125 26.398437-14.917969 26.398437zm49.199219-78.082031c0 18.101563-10.78125 33.722656-26.28125 40.742187-29.652344 13.539063-63.199219-8.433593-63.199219-40.742187v-134.257813c0-3.300781 2.679688-6 6-6h77.480469c3.320312 0 6 2.699219 6 6zm0 0"/><path d="m246.058594 16.910156h-6.0625c-5.28125 0-5.292969 8 0 8h6.0625c5.285156 0 5.292968-8 0-8zm0 0"/><path d="m270.203125 16.910156h-6.058594c-5.285156 0-5.292969 8 0 8h6.058594c5.285156 0 5.292969-8 0-8zm0 0"/><path d="m43.863281 174.410156h-6.058593c-5.285157 0-5.292969 8 0 8h6.058593c5.285157 0 5.292969-8 0-8zm0 0"/><path d="m68.007812 174.410156h-6.0625c-5.28125 0-5.289062 8 0 8h6.0625c5.285157 0 5.292969-8 0-8zm0 0"/></g></svg>