<svg height="502pt" viewBox="0 -76 502.418 502" width="502pt" xmlns="http://www.w3.org/2000/svg"><path d="m454.285156 39.058594v248.796875h-406.160156v-248.796875c0-17.742188 13.28125-32.402344 30.460938-34.523438 1.421874-.179687 2.878906-.277344 4.339843-.277344h336.558594c19.222656 0 34.800781 15.578126 34.800781 34.800782zm0 0" fill="#1c868e"/><path d="m454.285156 39.058594v248.796875h-375.699218v-283.320313c1.421874-.179687 2.878906-.277344 4.339843-.277344h336.558594c19.222656 0 34.800781 15.578126 34.800781 34.800782zm0 0" fill="#40c4df"/><path d="m498.40625 299.996094v9.339844c0 20.121093-16.300781 36.441406-36.421875 36.441406h-421.558594c-20.121093 0-36.417969-16.320313-36.417969-36.441406v-9.339844c0-6.699219 5.4375-12.140625 12.136719-12.140625h470.121094c6.699219 0 12.140625 5.441406 12.140625 12.140625zm0 0" fill="#56c1b3"/><path d="m498.40625 299.996094v9.339844c0 20.121093-16.300781 36.441406-36.421875 36.441406h-391.097656c-20.121094 0-36.421875-16.320313-36.421875-36.441406v-9.339844c0-6.699219 5.441406-12.140625 12.140625-12.140625h439.660156c6.699219 0 12.140625 5.441406 12.140625 12.140625zm0 0" fill="#7befe4"/><path d="m432.707031 35.855469v252h-363v-252c0-5.136719 3.878907-9.378907 8.878907-9.917969.359374-.058594.738281-.082031 1.121093-.082031h343c5.519531 0 10 4.480469 10 10zm0 0" fill="#d8d6d7"/><path d="m432.707031 35.855469v252h-332.542969v-262h322.542969c5.519531 0 10 4.480469 10 10zm0 0" fill="#fff"/><path d="m454.285156 39.058594v248.796875h-21.578125v-252c0-5.519531-4.480469-10-10-10h-343c-.382812 0-.761719.023437-1.121093.082031v-21.402344c1.421874-.179687 2.878906-.277344 4.339843-.277344h336.558594c19.222656 0 34.800781 15.578126 34.800781 34.800782zm0 0" fill="#40c4df"/><path d="m388.207031 79.324219v155c0 5.519531-4.480469 10-10 10h-254c-5.519531 0-10-4.480469-10-10v-155c0-5.519531 4.480469-10 10-10h254c5.519531 0 10 4.480469 10 10zm0 0" fill="#40c4df"/><path d="m388.207031 79.324219v26.859375l-3 1.800781h-271v-28.660156c0-5.519531 4.480469-10 10-10h254c5.519531 0 10 4.480469 10 10zm0 0" fill="#f85252"/><path d="m266.3125 176.648438 36.449219-36.449219c4.152343-4.152344 4.152343-10.949219 0-15.101563-4.15625-4.15625-10.953125-4.15625-15.105469 0l-36.449219 36.449219-36.445312-36.449219c-4.15625-4.15625-10.953125-4.15625-15.105469 0-4.152344 4.152344-4.152344 10.949219 0 15.101563l36.449219 36.449219-36.449219 36.445312c-4.152344 4.15625-4.152344 10.953125 0 15.105469 4.152344 4.152343 10.949219 4.152343 15.105469 0l36.445312-36.445313 36.449219 36.445313c4.152344 4.15625 10.949219 4.15625 15.105469 0 4.152343-4.152344 4.152343-10.949219 0-15.101563zm0 0" fill="#f85252"/><path d="m307.863281 288.109375v10.222656c0 10.34375-8.402343 18.746094-18.746093 18.746094h-75.027344c-10.347656 0-18.746094-8.402344-18.746094-18.746094v-10.222656zm0 0" fill="#56c1b3"/><g fill="#491352"><path d="m486.277344 283.800781h-27.980469v-244.792969c0-21.394531-17.40625-38.796874-38.800781-38.796874h-336.578125c-21.394531 0-38.800781 17.402343-38.800781 38.796874v244.792969h-27.976563c-8.902344 0-16.140625 7.238281-16.140625 16.140625v9.347656c0 22.292969 18.132812 40.425782 40.421875 40.425782h421.574219c22.289062 0 40.421875-18.132813 40.421875-40.425782v-9.347656c-.003907-8.902344-7.242188-16.140625-16.140625-16.140625zm-434.160156-244.792969c0-16.984374 13.816406-30.796874 30.800781-30.796874h336.578125c16.984375 0 30.800781 13.8125 30.800781 30.796874v244.792969h-13.589844v-248.003906c0-7.71875-6.28125-14-14-14h-343c-7.71875 0-14 6.28125-14 14v248.003906h-13.589843zm21.589843 244.789063v-248c0-3.308594 2.691407-6 6-6h343c3.308594 0 6 2.691406 6 6v248zm229.761719 8.003906v6.222657c0 8.128906-6.613281 14.746093-14.746094 14.746093h-75.03125c-8.128906 0-14.742187-6.617187-14.742187-14.746093v-6.222657zm190.945312 17.488281c0 17.878907-14.542968 32.425782-32.421874 32.425782h-421.570313c-17.878906 0-32.425781-14.546875-32.425781-32.425782v-9.347656c0-4.488281 3.652344-8.140625 8.140625-8.140625h174.808593v6.222657c0 12.542968 10.203126 22.746093 22.746094 22.746093h75.03125c12.542969 0 22.742188-10.203125 22.742188-22.746093v-6.222657h174.808594c4.488281 0 8.140624 3.652344 8.140624 8.140625zm0 0"/><path d="m378.207031 65.296875h-254c-7.71875 0-14 6.28125-14 14v155c0 7.714844 6.28125 14 14 14h254c7.71875 0 14-6.285156 14-14v-155c0-7.71875-6.28125-14-14-14zm6 169c0 3.304687-2.691406 6-6 6h-254c-3.308593 0-6-2.695313-6-6v-122.335937h266zm0-130.335937h-266v-24.664063c0-3.308594 2.691407-6 6-6h254c3.308594 0 6 2.691406 6 6zm0 0"/><path d="m196.828125 231.007812c5.722656 5.71875 15.039063 5.722657 20.761719 0l33.617187-33.621093c36.117188 36.121093 35.96875 37.914062 44 37.914062 13 0 19.621094-15.8125 10.378907-25.054687l-33.621094-33.617188 33.621094-33.621094c2.765624-2.765624 4.289062-6.449218 4.289062-10.378906 0-13.222656-15.96875-19.46875-25.046875-10.378906l-33.621094 33.617188-33.617187-33.621094c-9.070313-9.074219-25.046875-2.863282-25.046875 10.382812 0 8.089844 1.964843 8.054688 37.90625 43.996094l-33.621094 33.621094c-5.722656 5.726562-5.722656 15.035156 0 20.761718zm5.65625-15.105468 36.449219-36.449219c1.5625-1.558594 1.5625-4.09375 0-5.652344-39.769532-39.769531-38.390625-37.34375-38.390625-41.171875 0-6.203125 7.476562-8.640625 11.390625-4.722656l36.449218 36.445312c1.5625 1.5625 4.09375 1.5625 5.65625 0l36.445313-36.445312c3.921875-3.921875 11.390625-1.472656 11.390625 4.722656 0 3.832032 1.335938 1.445313-38.390625 41.171875-1.558594 1.558594-1.558594 4.09375 0 5.652344l36.449219 36.449219c6.242187 6.242187-3.195313 15.691406-9.449219 9.449218l-36.445313-36.449218c-1.5625-1.5625-4.09375-1.5625-5.65625 0l-36.449218 36.449218c-6.246094 6.234376-15.691406-3.203124-9.449219-9.449218zm0 0"/></g></svg>