<svg height="506pt" viewBox="-50 0 505 506" width="506pt" xmlns="http://www.w3.org/2000/svg"><path d="m400.867188 115.875v379.480469c0 5.519531-4.460938 10-10 10h-376.359376c-5.539062 0-10-4.480469-10-10v-478c0-5.519531 4.460938-10 10-10h279.378907c2.679687 0 5.261719 1.058593 7.140625 2.980469l96.980468 98.519531c1.839844 1.878906 2.859376 4.402343 2.859376 7.019531zm0 0" fill="#1c868e"/><path d="m400.867188 115.875v379.480469c0 5.519531-4.460938 10-10 10h-345.9375c-5.523438 0-10-4.480469-10-10v-478c0-5.519531 4.476562-10 10-10h248.957031c2.679687 0 5.261719 1.058593 7.140625 2.980469l96.980468 98.519531c1.839844 1.878906 2.859376 4.402343 2.859376 7.019531zm0 0" fill="#40c4df"/><path d="m4.5 179.804688h396.375v245.773437h-396.375zm0 0" fill="#fff"/><path d="m4.507812 179.8125h30.421876v245.761719h-30.421876zm0 0" fill="#d8d6d7"/><path d="m37.195312 331.570312c-9.210937 0-16.417968 7.210938-16.417968 16.414063 0 9.207031 7.207031 16.417969 16.417968 16.417969 8.863282 0 16.078126-7.363282 16.078126-16.417969 0-9.050781-7.214844-16.414063-16.078126-16.414063zm0 0" fill="#40c4df"/><path d="m149.09375 322.964844c-5.097656 11.136718-14.890625 17.019531-28.320312 17.019531-20.480469 0-34.238282-15.089844-34.238282-37.546875 0-22.550781 13.761719-37.703125 34.238282-37.703125 13.441406 0 23.234374 5.929687 28.308593 17.152344l1.570313 3.476562h29.589844l-3.097657-8.039062c-8.925781-23.171875-30-37.007813-56.371093-37.007813-34.605469 0-60.703126 26.707032-60.703126 62.121094 0 35.234375 26.097657 61.804688 60.703126 61.804688 26.378906 0 47.453124-13.710938 56.367187-36.679688l3.125-8.046875h-29.59375zm0 0" fill="#40c4df"/><path d="m243.234375 290.398438c-14.796875-4.074219-21.28125-6.652344-21.28125-14.253907 0-3.34375 1.015625-6.027343 3.015625-7.980469 2.621094-2.550781 6.875-3.902343 12.097656-3.742187 9.699219.113281 14.8125 5.648437 15.464844 10.738281l.660156 5.164063h27.503906l-.675781-6.519531c-2.113281-20.34375-18.695312-33.488282-42.25-33.488282-24.898437 0-42.285156 14.929688-42.285156 36.300782 0 26.558593 21.742187 32.363281 37.617187 36.601562 15.117188 4.035156 21.742188 6.664062 21.742188 14.882812 0 7.621094-6.183594 12.351563-16.128906 12.351563-13.445313 0-16.292969-8.117187-16.792969-12.960937l-.550781-5.300782h-26.617188l.105469 6.015625c.371094 21.308594 18.40625 36.191407 43.855469 36.191407 27.859375 0 42.4375-18.578126 42.4375-36.925782 0-26.636718-21.917969-32.667968-37.917969-37.074218zm0 0" fill="#40c4df"/><path d="m346.683594 290.398438c-14.800782-4.074219-21.285156-6.652344-21.285156-14.253907 0-3.34375 1.015624-6.027343 3.019531-7.980469 2.621093-2.550781 6.863281-3.902343 12.097656-3.742187 9.695313.113281 14.8125 5.648437 15.460937 10.738281l.660157 5.164063h27.503906l-.675781-6.519531c-2.109375-20.34375-18.691406-33.488282-42.25-33.488282-24.894532 0-42.28125 14.929688-42.28125 36.300782 0 26.558593 21.742187 32.363281 37.617187 36.601562 15.113281 4.035156 21.742188 6.664062 21.742188 14.882812 0 7.621094-6.183594 12.351563-16.132813 12.351563-13.441406 0-16.289062-8.117187-16.792968-12.960937l-.546876-5.300782h-26.617187l.101563 6.015625c.375 21.308594 18.40625 36.191407 43.855468 36.191407 27.863282 0 42.441406-18.578126 42.441406-36.925782 0-26.636718-21.917968-32.667968-37.917968-37.074218zm0 0" fill="#40c4df"/><g fill="#491352"><path d="m400.855469 102.707031-96.984375-98.527343c-2.613282-2.65625-6.25-4.179688-9.976563-4.179688h-279.394531c-7.71875 0-14 6.28125-14 14v478c0 7.71875 6.28125 14 14 14h376.375c7.722656 0 14-6.28125 14-14 0-16.128906 0-362.933594 0-379.46875 0-3.695312-1.425781-7.183594-4.019531-9.824219zm-3.980469 389.292969c0 3.308594-2.691406 6-6 6h-376.375c-3.308594 0-6-2.691406-6-6v-65.773438h388.375zm0-73.773438h-388.375v-237.769531h388.375zm0-245.769531h-388.375v-158.457031c0-3.308594 2.691406-6 6-6h279.394531c1.597657 0 3.15625.652344 4.277344 1.792969l96.980469 98.527343c1.113281 1.132813 1.722656 2.628907 1.722656 4.210938zm0 0"/><path d="m37.195312 368.394531c11.070313 0 20.078126-9.160156 20.078126-20.417969 0-11.257812-9.007813-20.414062-20.078126-20.414062-11.453124 0-20.417968 8.96875-20.417968 20.414062 0 11.449219 8.964844 20.417969 20.417968 20.417969zm0-32.832031c6.660157 0 12.078126 5.570312 12.078126 12.414062 0 6.847657-5.417969 12.417969-12.078126 12.417969-16.460937 0-16.46875-24.832031 0-24.832031zm0 0"/><path d="m180.871094 329.003906 3.121094-8.046875c1.019531-2.613281-.914063-5.449219-3.726563-5.449219h-29.589844c-3.15625 0-3.84375 2.78125-5.21875 5.785157-10.703125 23.386719-54.921875 20.710937-54.921875-18.859375 0-20.472656 11.871094-33.703125 30.242188-33.703125 11.921875 0 20.21875 4.976562 24.664062 14.796875 3.582032 7.921875-.148437 5.828125 34.800782 5.828125 1.320312 0 2.554687-.652344 3.300781-1.738281.746093-1.085938.90625-2.46875.433593-3.703126l-3.097656-8.035156c-24.011718-62.34375-124.808594-49.226562-124.808594 26.550782 0 75.460937 100.820313 88.375 124.800782 26.574218zm-6.457032-47.648437h-21.179687c-15.261719-33.75-70.699219-26.46875-70.699219 21.078125 0 47.386718 55.433594 54.488281 70.707032 21.074218h21.179687c-22.714844 58.523438-110.351563 44.171876-110.351563-21.074218 0-65.332032 87.554688-80.277344 110.34375-21.078125zm0 0"/><path d="m238.710938 336.449219c-19.890626 0-8.328126-18.261719-17.339844-18.261719-33.347656 0-30.734375-2.375-30.511719 10.082031.929687 53.390625 94.289063 53.96875 94.289063-.800781 0-29.683594-25.132813-36.625-41.398438-41.105469l-.003906.015625c-15.1875-4.210937-17.796875-6.277344-17.796875-10.242187 0-6.070313 5-7.917969 11.070312-7.722657 7.304688.085938 11.105469 3.816407 11.542969 7.25l.660156 5.160157c.253906 1.996093 1.957032 3.492187 3.96875 3.492187h27.5c2.367188 0 4.222656-2.046875 3.980469-4.410156l-.679687-6.523438c-5.382813-51.855468-92.507813-48.457031-92.507813 3.226563 0 46.628906 59.359375 35.53125 59.359375 51.484375 0 7.539062-8.484375 8.355469-12.132812 8.355469zm-39.226563-59.839844c0-41.519531 72.21875-44.164063 76.554687-2.398437l.21875 2.109374h-19.546874c-2.796876-21.808593-38.761719-21.179687-38.761719-.179687 0 25.636719 59.199219 9.664063 59.199219 51.328125 0 43.0625-77.503907 45.574219-78.328126-1.28125h18.941407c1.324219 12.792969 9.175781 18.261719 20.949219 18.261719 12.230468 0 20.128906-6.417969 20.128906-16.351563.003906-27.171875-59.355469-9.394531-59.355469-51.488281zm0 0"/><path d="m342.160156 336.449219c-7.96875 0-12.160156-3.066407-12.8125-9.371094-.453125-4.351563-.15625-8.890625-4.527344-8.890625h-26.621093c-2.226563 0-4.039063 1.828125-4 4.070312l.105469 6.011719c.929687 53.390625 94.292968 53.96875 94.292968-.800781 0-29.683594-25.128906-36.605469-41.394531-41.085938-15.191406-4.210937-17.804687-6.277343-17.804687-10.242187 0-6.09375 5.003906-7.902344 11.070312-7.726563 7.304688.089844 11.101562 3.820313 11.542969 7.25.542969 4.265626.355469 8.65625 4.625 8.65625 34.597656 0 32.203125 2.519532 30.808593-10.933593-2.339843-22.523438-20.484374-37.074219-46.230468-37.074219-27.25 0-46.28125 16.570312-46.28125 40.296875 0 46.628906 59.359375 35.535156 59.359375 51.488281 0 7.535156-8.484375 8.351563-12.132813 8.351563zm-39.222656-59.839844c0-19.015625 15.742188-32.296875 38.28125-32.296875 19.855469 0 36.179688 9.75 38.488281 32.007812h-19.546875c-1.394531-10.882812-9.71875-15.785156-19.519531-15.902343-10.65625-.359375-19.242187 4.9375-19.242187 15.722656 0 25.664063 59.203124 9.582031 59.203124 51.328125 0 43.0625-77.507812 45.574219-78.332031-1.28125h18.941407c1.324218 12.792969 9.175781 18.261719 20.949218 18.261719 12.230469 0 20.128906-6.417969 20.128906-16.351563.003907-27.175781-59.351562-9.386718-59.351562-51.488281zm0 0"/></g></svg>