<svg height="508pt" viewBox="-5 0 508 508.998" width="508pt" xmlns="http://www.w3.org/2000/svg"><path d="m221.558594 293.839844h55.320312v168.320312h-55.320312zm0 0" fill="#d8d6d7"/><path d="m255.398438 293.839844h21.480468v168.320312h-21.480468zm0 0" fill="#fff"/><path d="m483.9375 330.292969h-469.4375c-5.523438 0-10-4.476563-10-10v-305.792969c0-5.523438 4.476562-10 10-10h469.4375c5.523438 0 10 4.476562 10 10v305.792969c0 5.523437-4.476562 10-10 10zm0 0" fill="#d8d6d7"/><path d="m467.9375 40.5v253.800781c0 5.519531-4.476562 10-10 10h-417.4375c-5.519531 0-10-4.480469-10-10v-253.800781c0-5.519531 4.480469-10 10-10h417.4375c5.523438 0 10 4.480469 10 10zm0 0" fill="#56c1b3"/><path d="m467.9375 40.5v253.800781c0 5.519531-4.476562 10-10 10h-373.9375c-5.519531 0-10-4.480469-10-10v-253.800781c0-5.519531 4.480469-10 10-10h373.9375c5.523438 0 10 4.480469 10 10zm0 0" fill="#7befe4"/><path d="m376.558594 472.160156v23.339844c0 5.519531-4.480469 10-10 10h-234.679688c-5.519531 0-10-4.480469-10-10v-23.339844c0-5.519531 4.480469-10 10-10h234.679688c5.519531 0 10 4.480469 10 10zm0 0" fill="#d8d6d7"/><path d="m376.558594 472.160156v23.339844c0 5.519531-4.480469 10-10 10h-202.679688c-5.519531 0-10-4.480469-10-10v-23.339844c0-5.519531 4.480469-10 10-10h202.679688c5.519531 0 10 4.480469 10 10zm0 0" fill="#fff"/><path d="m340.878906 104.140625v167.917969c0 5.519531-4.480468 10-10 10h-163.320312c-5.519532 0-10-4.480469-10-10v-210.320313c0-5.519531 4.480468-10 10-10h121.601562c2.679688 0 5.238282 1.082031 7.117188 2.980469l41.722656 42.402344c1.839844 1.878906 2.878906 4.398437 2.878906 7.019531zm0 0" fill="#fff"/><path d="m340.878906 104.140625v27.359375h-183.320312v-69.761719c0-5.519531 4.480468-10 10-10h121.601562c2.679688 0 5.238282 1.082031 7.117188 2.980469l41.722656 42.402344c1.839844 1.878906 2.878906 4.398437 2.878906 7.019531zm0 0" fill="#40c4df"/><path d="m340.878906 245.160156v26.898438c0 5.519531-4.480468 10-10 10h-163.320312c-5.519532 0-10-4.480469-10-10v-26.898438zm0 0" fill="#40c4df"/><g fill="#491352"><path d="m483.9375 0h-469.4375c-7.722656 0-14 6.28125-14 14v305.792969c0 7.71875 6.277344 14 14 14h203.058594v123.863281h-85.671875c-7.722657 0-14 6.28125-14 14v23.339844c0 7.722656 6.277343 14 14 14h234.664062c7.71875 0 14-6.277344 14-14v-23.339844c0-7.71875-6.28125-14-14-14h-85.671875v-123.863281h203.058594c7.722656 0 14-6.28125 14-14v-305.792969c0-7.71875-6.277344-14-14-14zm-117.382812 465.65625c3.304687 0 6 2.695312 6 6v23.34375c0 3.308594-2.695313 6-6 6h-234.667969c-3.308594 0-6-2.691406-6-6v-23.34375c0-3.304688 2.691406-6 6-6zm-140.996094-8v-123.863281h47.320312v123.863281zm264.378906-137.863281c0 3.308593-2.691406 6-6 6h-469.4375c-3.308594 0-6-2.691407-6-6v-305.792969c0-3.308594 2.691406-6 6-6h469.4375c3.308594 0 6 2.691406 6 6zm0 0"/><path d="m457.9375 26h-417.4375c-7.722656 0-14 6.28125-14 14v253.792969c0 7.71875 6.277344 14 14 14h417.4375c7.722656 0 14-6.28125 14-14v-253.792969c0-7.71875-6.277344-14-14-14zm6 267.792969c0 3.308593-2.691406 6-6 6h-417.4375c-3.308594 0-6-2.691407-6-6v-253.792969c0-3.308594 2.691406-6 6-6h417.4375c3.308594 0 6 2.691406 6 6zm0 0"/><path d="m177.019531 193.484375c11.1875 3.605469-8.355469 31.671875 13.878907 31.671875 4.355468 0 4.550781-6.703125.046874-6.808594-2.574218-.0625-3.882812-.632812-3.882812-3.589844 0-10.214843 4.242188-20.996093-3.5-24.828124 5.632812-2.726563 4.898438-9.335938 4.125-16.289063-1.144531-10.300781-1.253906-11.980469 3.273438-12.09375 4.617187-.117187 4.183593-7.039063-.289063-6.734375-22.601563 1.464844-1.679687 27.617188-13.707031 31.59375-3.28125 1.089844-3.066406 6.074219.054687 7.078125zm0 0"/><path d="m224.835938 209.324219c0-6.417969-9.445313-6.265625-9.445313 0 0 6.261719 9.445313 6.425781 9.445313 0zm0 0"/><path d="m249.28125 214.109375c6.179688 0 6.1875-9.570313 0-9.570313-6.339844 0-6.34375 9.570313 0 9.570313zm0 0"/><path d="m278.390625 214.109375c6.175781 0 6.183594-9.570313 0-9.570313-6.339844 0-6.34375 9.570313 0 9.570313zm0 0"/><path d="m307.53125 161.542969c4.503906.113281 4.367188 1.855469 3.222656 12.0625-.78125 6.964843-1.519531 13.59375 4.125 16.324219-7.710937 3.820312-3.5 14.539062-3.5 24.824218 0 2.941406-1.300781 3.515625-3.859375 3.585938-4.484375.121094-4.386719 6.84375.089844 6.84375 22.257813-.179688 2.527344-28.035156 13.792969-31.691406 1.820312-.589844 2.414062-1.996094 2.414062-3.859376 0-4.457031-6.226562-2.304687-6.226562-8.261718 0-12.152344 6.175781-26.636719-10.007813-26.636719-4.429687 0-4.566406 6.695313-.050781 6.808594zm0 0"/><path d="m299.128906 51.921875c-2.613281-2.65625-6.25-4.183594-9.976562-4.183594h-121.59375c-7.71875 0-14 6.28125-14 14v210.320313c0 7.722656 6.28125 14 14 14h163.320312c7.71875 0 14-6.277344 14-14v-167.921875c0-3.699219-1.429687-7.1875-4.023437-9.820313zm37.75 220.136719c0 3.308594-2.691406 6-6 6h-163.320312c-3.308594 0-6-2.691406-6-6v-22.894532h175.320312zm0-30.894532h-175.320312v-105.664062h175.320312zm0-113.664062h-175.320312v-65.761719c0-3.304687 2.691406-6 6-6h121.59375c1.597656 0 3.15625.65625 4.273437 1.792969l41.730469 42.398438c2.296875 2.332031 1.722656 2.347656 1.722656 27.570312zm0 0"/></g></svg>