<svg height="508pt" viewBox="-5 0 508 508.998" width="508pt" xmlns="http://www.w3.org/2000/svg"><path d="m221.558594 293.339844h55.320312v168.320312h-55.320312zm0 0" fill="#d8d6d7"/><path d="m255.398438 293.339844h21.480468v168.320312h-21.480468zm0 0" fill="#fff"/><path d="m483.9375 329.792969h-469.4375c-5.523438 0-10-4.476563-10-10v-305.792969c0-5.523438 4.476562-10 10-10h469.4375c5.523438 0 10 4.476562 10 10v305.792969c0 5.523437-4.476562 10-10 10zm0 0" fill="#d8d6d7"/><path d="m467.9375 40v253.800781c0 5.519531-4.476562 10-10 10h-417.4375c-5.519531 0-10-4.480469-10-10v-253.800781c0-5.519531 4.480469-10 10-10h417.4375c5.523438 0 10 4.480469 10 10zm0 0" fill="#56c1b3"/><path d="m467.9375 40v253.800781c0 5.519531-4.476562 10-10 10h-373.9375c-5.519531 0-10-4.480469-10-10v-253.800781c0-5.519531 4.480469-10 10-10h373.9375c5.523438 0 10 4.480469 10 10zm0 0" fill="#7befe4"/><path d="m376.558594 471.660156v23.339844c0 5.519531-4.480469 10-10 10h-234.679688c-5.519531 0-10-4.480469-10-10v-23.339844c0-5.519531 4.480469-10 10-10h234.679688c5.519531 0 10 4.480469 10 10zm0 0" fill="#d8d6d7"/><path d="m376.558594 471.660156v23.339844c0 5.519531-4.480469 10-10 10h-202.679688c-5.519531 0-10-4.480469-10-10v-23.339844c0-5.519531 4.480469-10 10-10h202.679688c5.519531 0 10 4.480469 10 10zm0 0" fill="#fff"/><path d="m370.886719 269.871094h-14c-5.523438 0-10-4.480469-10-10v-185.949219c0-5.523437 4.476562-10 10-10h14c5.519531 0 10 4.476563 10 10v185.949219c0 5.523437-4.476563 10-10 10zm0 0" fill="#40c4df"/><path d="m313.554688 269.871094h-14c-5.523438 0-10-4.480469-10-10v-92.101563c0-5.523437 4.476562-10 10-10h14c5.519531 0 10 4.476563 10 10v92.101563c0 5.523437-4.480469 10-10 10zm0 0" fill="#40c4df"/><path d="m256.21875 269.871094h-14c-5.523438 0-10-4.480469-10-10v-152.101563c0-5.523437 4.476562-10 10-10h14c5.523438 0 10 4.476563 10 10v152.101563c0 5.523437-4.476562 10-10 10zm0 0" fill="#40c4df"/><path d="m198.886719 269.871094h-14c-5.523438 0-10-4.480469-10-10v-92.101563c0-5.523437 4.476562-10 10-10h14c5.519531 0 10 4.476563 10 10v92.101563c0 5.523437-4.476563 10-10 10zm0 0" fill="#40c4df"/><path d="m141.554688 269.871094h-14c-5.523438 0-10-4.480469-10-10v-32.105469c0-5.523437 4.476562-10 10-10h14c5.519531 0 10 4.476563 10 10v32.105469c0 5.523437-4.480469 10-10 10zm0 0" fill="#40c4df"/><g fill="#491352"><path d="m483.9375 0h-469.4375c-7.71875 0-14 6.28125-14 14v305.792969c0 7.71875 6.28125 14 14 14h203.054688v123.863281h-85.667969c-7.71875 0-14 6.28125-14 14v23.339844c0 7.722656 6.28125 14 14 14h234.667969c7.714843 0 14-6.277344 14-14v-23.339844c0-7.71875-6.285157-14-14-14h-85.667969v-123.863281h203.050781c7.71875 0 14-6.28125 14-14v-305.792969c0-7.71875-6.277344-14-14-14zm-117.382812 465.65625c3.304687 0 6 2.695312 6 6v23.34375c0 3.308594-2.695313 6-6 6h-234.667969c-3.308594 0-6-2.691406-6-6v-23.34375c0-3.304688 2.691406-6 6-6zm-141-8v-123.863281h47.332031v123.863281zm264.382812-137.863281c0 3.308593-2.691406 6-6 6-8.441406 0-446.71875 0-469.441406 0-3.308594 0-6-2.691407-6-6v-305.792969c0-3.308594 2.691406-6 6-6h469.441406c3.308594 0 6 2.691406 6 6zm0 0"/><path d="m457.9375 26h-417.4375c-7.71875 0-14 6.28125-14 14v253.792969c0 7.71875 6.28125 14 14 14h417.441406c7.71875 0 14-6.28125 14-14v-253.792969c-.003906-7.71875-6.28125-14-14.003906-14zm6 267.792969c0 3.308593-2.691406 6-6 6h-417.4375c-3.308594 0-6-2.691407-6-6v-253.792969c0-3.308594 2.691406-6 6-6h417.441406c3.308594 0 6 2.691406 6 6v253.792969zm0 0"/><path d="m370.886719 59.921875h-14c-7.71875 0-14 6.28125-14 14v185.949219c0 7.71875 6.28125 14 14 14h14c7.714843 0 14-6.28125 14-14v-185.949219c0-7.71875-6.285157-14-14-14zm6 199.949219c0 3.308594-2.695313 6-6 6h-14c-3.308594 0-6-2.691406-6-6v-185.949219c0-3.308594 2.691406-6 6-6h14c3.304687 0 6 2.691406 6 6zm0 0"/><path d="m313.554688 153.769531h-14c-7.71875 0-14 6.277344-14 14v92.101563c0 7.71875 6.28125 14 14 14h14c7.714843 0 14-6.28125 14-14v-92.101563c0-7.722656-6.285157-14-14-14zm6 106.101563c0 3.308594-2.695313 6-6 6h-14c-3.308594 0-6-2.691406-6-6v-92.101563c0-3.308593 2.691406-6 6-6h14c3.304687 0 6 2.691407 6 6zm0 0"/><path d="m256.21875 93.769531h-14c-7.71875 0-14 6.277344-14 14v152.101563c0 7.71875 6.28125 14 14 14h14c7.71875 0 14-6.28125 14-14v-152.101563c0-7.722656-6.28125-14-14-14zm6 166.101563c0 3.308594-2.691406 6-6 6h-14c-3.308594 0-6-2.691406-6-6v-152.101563c0-3.308593 2.691406-6 6-6h14c3.308594 0 6 2.691407 6 6zm0 0"/><path d="m198.886719 153.769531h-14c-7.71875 0-14 6.277344-14 14v92.101563c0 7.71875 6.28125 14 14 14h14c7.714843 0 14-6.28125 14-14v-92.101563c0-7.722656-6.285157-14-14-14zm6 106.101563c0 3.308594-2.695313 6-6 6h-14c-3.308594 0-6-2.691406-6-6v-92.101563c0-3.308593 2.691406-6 6-6h14c3.304687 0 6 2.691407 6 6zm0 0"/><path d="m141.554688 213.769531h-14c-7.71875 0-14 6.277344-14 14v32.101563c0 7.71875 6.28125 14 14 14h14c7.714843 0 14-6.28125 14-14v-32.101563c0-7.722656-6.285157-14-14-14zm6 46.101563c0 3.308594-2.695313 6-6 6h-14c-3.308594 0-6-2.691406-6-6v-32.101563c0-3.308593 2.691406-6 6-6h14c3.304687 0 6 2.691407 6 6zm0 0"/><path d="m53.21875 62.335938h125.335938c5.28125 0 5.289062-8 0-8h-125.335938c-5.285156 0-5.292969 8 0 8zm0 0"/><path d="m53.21875 92.335938h125.335938c2.207031 0 4-1.792969 4-4 0-2.210938-1.792969-4-4-4h-125.335938c-5.285156 0-5.292969 8 0 8zm0 0"/><path d="m53.21875 122.335938h125.335938c5.28125 0 5.289062-8 0-8h-125.335938c-5.285156 0-5.292969 8 0 8zm0 0"/><path d="m151.554688 144.335938h-98.335938c-5.285156 0-5.292969 8 0 8h98.335938c2.207031 0 4-1.792969 4-4 0-2.210938-1.792969-4-4-4zm0 0"/><path d="m446.21875 228.539062h-45.949219c-5.28125 0-5.289062 8 0 8h45.949219c5.285156 0 5.292969-8 0-8zm0 0"/><path d="m446.21875 247.203125h-45.949219c-5.28125 0-5.289062 8 0 8h45.949219c5.285156 0 5.292969-8 0-8zm0 0"/><path d="m446.21875 265.871094h-45.949219c-5.28125 0-5.289062 8 0 8h45.949219c5.285156 0 5.292969-8 0-8zm0 0"/></g></svg>