<svg height="494pt" viewBox="0 0 494 494.68" width="494pt" xmlns="http://www.w3.org/2000/svg"><path d="m247.683594 384.070312c-75.480469 0-136.746094-61.339843-136.746094-136.730468 0-75.3125 61.203125-136.738282 136.742188-136.738282 75.191406 0 136.738281 61.089844 136.738281 136.738282.003906 75.152344-61.019531 136.730468-136.734375 136.730468zm0 0" fill="#fff"/><path d="m465.78125 222.101562h-28.542969c-11.257812-85.421874-78.898437-153.0625-164.316406-164.320312v-28.542969c0-13.910156-11.304687-25.238281-25.242187-25.238281-13.835938 0-25.238282 11.203125-25.238282 25.238281v28.542969c-38.117187 5.023438-73.667968 21.476562-102.121094 46.9375-33.28125 29.722656-56.082031 70.921875-62.199218 117.382812h-28.542969c-13.9375 0-25.238281 11.296876-25.238281 25.238282 0 13.789062 11.171875 25.238281 25.238281 25.238281h28.542969c6.117187 46.460937 28.917968 87.660156 62.199218 117.382813 28.613282 25.59375 64.148438 41.933593 102.121094 46.9375v28.542968c0 13.9375 11.296875 25.238282 25.238282 25.238282 13.917968 0 25.242187-11.3125 25.242187-25.238282v-28.542968c85.417969-11.257813 153.058594-78.898438 164.316406-164.320313h28.542969c13.9375 0 25.238281-11.296875 25.238281-25.238281 0-13.789063-11.171875-25.238282-25.238281-25.238282zm-218.101562 165.976563c-77.71875 0-140.738282-63.019531-140.738282-140.738281 0-77.699219 63-140.738282 140.738282-140.738282 77.550781 0 140.742187 62.855469 140.742187 140.738282 0 77.761718-63.074219 140.738281-140.742187 140.738281zm0 0" fill="#d73735"/><path d="m465.78125 222.101562h-28.542969c-11.257812-85.421874-78.898437-153.0625-164.316406-164.320312v-28.542969c0-13.910156-11.304687-25.238281-25.242187-25.238281-13.835938 0-25.238282 11.203125-25.238282 25.238281v28.542969c-38.117187 5.023438-73.667968 21.476562-102.121094 46.9375-18.859374 43.742188-29.300781 91.960938-29.300781 142.621094s10.441407 98.878906 29.300781 142.621094c28.613282 25.59375 64.148438 41.933593 102.121094 46.9375v28.542968c0 13.9375 11.296875 25.238282 25.238282 25.238282 13.917968 0 25.242187-11.3125 25.242187-25.238282v-28.542968c85.417969-11.257813 153.058594-78.898438 164.316406-164.320313h28.542969c13.9375 0 25.238281-11.296875 25.238281-25.238281 0-13.789063-11.171875-25.238282-25.238281-25.238282zm-218.101562 165.976563c-77.71875 0-140.738282-63.019531-140.738282-140.738281 0-77.699219 63-140.738282 140.738282-140.738282 77.550781 0 140.742187 62.855469 140.742187 140.738282 0 77.761718-63.074219 140.738281-140.742187 140.738281zm0 0" fill="#f85252"/><path d="m261.351562 155.695312c-18.21875-7.546874-39.101562 1.105469-46.648437 19.320313-7.542969 18.214844 1.105469 39.101563 19.324219 46.644531 18.214844 7.546875 39.097656-1.105468 46.644531-19.320312s-1.105469-39.101563-19.320313-46.644532zm0 0" fill="#7befe4"/><path d="m283.378906 188.679688c0 19.699218-15.980468 35.699218-35.699218 35.699218v-71.398437c19.71875 0 35.699218 15.980469 35.699218 35.699219zm0 0" fill="#56c1b3"/><path d="m314.140625 275.234375c0 36.707031-29.753906 66.464844-66.460937 66.464844-36.707032 0-66.460938-29.757813-66.460938-66.464844 0-36.703125 29.753906-66.460937 66.460938-66.460937 36.707031 0 66.460937 29.757812 66.460937 66.460937zm0 0" fill="#40c4df"/><path d="m314.140625 275.234375c0 36.714844-29.75 66.464844-66.460937 66.464844v-132.925781c36.710937 0 66.460937 29.75 66.460937 66.460937zm0 0" fill="#1c868e"/><g fill="#491352"><path d="m347.941406 271.238281h-29.917968c-.390626-6.945312-1.792969-13.628906-4.058594-19.898437h16.796875c2.207031 0 4-1.792969 4-4 0-2.207032-1.792969-4-4-4h-20.28125c-6.789063-13.3125-17.683594-24.191406-31.011719-30.960938 10.828125-14.425781 10.601562-34.527344-1.046875-48.78125l15.269531-15.273437c1.5625-1.558594 1.5625-4.09375 0-5.652344-1.5625-1.5625-4.09375-1.5625-5.65625 0l-15.269531 15.269531c-14.390625-11.765625-35.21875-12.09375-50.011719-.117187l-15.210937-15.359375c-1.550781-1.570313-4.085938-1.578125-5.65625-.027344-1.570313 1.554688-1.582031 4.085938-.027344 5.660156l15.199219 15.347656c-11.601563 14.050782-12.191406 34.242188-1.164063 48.9375-13.328125 6.765626-24.21875 17.644532-31.011719 30.960938h-20.28125c-2.210937 0-4 1.789062-4 4 0 2.207031 1.789063 4 4 4h16.792969c-2.265625 6.269531-3.667969 12.949219-4.054687 19.898438h-29.917969c-2.210937 0-4 1.792968-4 4 0 2.207031 1.789063 4 4 4h29.917969c.390625 6.949218 1.789062 13.628906 4.058594 19.898437h-16.796876c-2.210937 0-4 1.792969-4 4 0 2.210937 1.789063 4 4 4h20.285157c11.660156 22.859375 35.421875 38.558594 62.792969 38.558594 27.371093 0 51.132812-15.699219 62.792968-38.558594h20.289063c2.207031 0 4-1.789063 4-4 0-2.207031-1.792969-4-4-4h-16.800781c2.269531-6.269531 3.667968-12.949219 4.0625-19.898437h29.917968c2.207032 0 4-1.792969 4-4 0-2.207032-1.792968-4.003907-4-4.003907zm-124.527344-62.175781c-17.148437-20.273438-2.824218-52.082031 24.265626-52.082031 27.035156 0 41.460937 31.75 24.265624 52.082031-7.746093-2.835938-16.1875-4.289062-24.265624-4.289062-7.875 0-16.339844 1.386718-24.265626 4.289062zm-38.195312 66.195312c0-.003906 0-.011718 0-.015624 0-.007813 0-.011719 0-.015626.003906-32.65625 25.402344-60.207031 58.460938-62.304687v124.636719c-32.574219-2.074219-58.453126-29.214844-58.460938-62.300782zm66.460938 62.296876v-124.632813c32.746093 2.046875 58.457031 29.367187 58.460937 62.300781v.015625.015625c-.007813 33.089844-25.882813 60.230469-58.460937 62.300782zm0 0"/><path d="m247.679688 102.609375c-79.988282 0-144.738282 65.039063-144.738282 144.730469 0 79.808594 64.894532 144.738281 144.738282 144.738281 79.824218 0 144.742187-64.898437 144.742187-144.738281 0-79.664063-64.726563-144.730469-144.742187-144.730469zm.003906 281.460937c-75.480469 0-136.746094-61.339843-136.746094-136.730468 0-75.3125 61.203125-136.738282 136.742188-136.738282 75.191406 0 136.738281 61.089844 136.738281 136.738282.003906 75.152344-61.019531 136.730468-136.734375 136.730468zm0 0"/><path d="m465.78125 218.101562h-25.066406c-12.679688-84.46875-79.324219-151.117187-163.792969-163.796874v-25.066407c0-16.121093-13.117187-29.238281-29.238281-29.238281-16.125 0-29.242188 13.117188-29.242188 29.238281v25.066407c-84.46875 12.679687-151.117187 79.328124-163.792968 163.796874h-25.070313c-16.121094 0-29.238281 13.117188-29.238281 29.238282s13.117187 29.238281 29.238281 29.238281h25.066406c12.679688 84.46875 79.324219 151.117187 163.792969 163.796875v25.066406c0 16.121094 13.117188 29.238282 29.242188 29.238282 16.121093 0 29.238281-13.117188 29.238281-29.238282v-25.066406c84.46875-12.679688 151.117187-79.328125 163.792969-163.796875h25.066406c16.121094 0 29.238281-13.117187 29.238281-29.238281s-13.113281-29.238282-29.234375-29.238282zm0 50.476563h-28.542969c-2.007812 0-3.703125 1.488281-3.960937 3.480469-11.035156 83.6875-77.1875 149.84375-160.878906 160.875-1.988282.261718-3.476563 1.957031-3.476563 3.964844v28.542968c0 11.710938-9.527344 21.238282-21.238281 21.238282-11.714844 0-21.242188-9.527344-21.242188-21.238282v-28.542968c0-2.003907-1.488281-3.703126-3.476562-3.964844-83.691406-11.03125-149.84375-77.1875-160.875-160.875-.265625-1.992188-1.960938-3.480469-3.964844-3.480469h-28.546875c-11.707031 0-21.238281-9.527344-21.238281-21.238281 0-11.710938 9.53125-21.238282 21.238281-21.238282h28.542969c2.007812 0 3.703125-1.488281 3.964844-3.480468 11.03125-83.6875 77.1875-149.84375 160.875-160.875 1.988281-.261719 3.476562-1.957032 3.476562-3.964844v-28.542969c0-11.710937 9.527344-21.238281 21.242188-21.238281 11.710937 0 21.238281 9.527344 21.238281 21.238281v28.542969c0 2.003906 1.488281 3.703125 3.476562 3.964844 83.691407 11.03125 149.84375 77.1875 160.878907 160.875.261718 1.992187 1.957031 3.480468 3.960937 3.480468h28.542969c11.707031 0 21.238281 9.527344 21.238281 21.238282 0 11.710937-9.527344 21.238281-21.234375 21.238281zm0 0"/></g></svg>