<svg height="509pt" viewBox="-6 0 509 509" width="509pt" xmlns="http://www.w3.org/2000/svg"><path d="m221.058594 293.839844h55.320312v168.320312h-55.320312zm0 0" fill="#d8d6d7"/><path d="m254.898438 293.839844h21.480468v168.320312h-21.480468zm0 0" fill="#fff"/><path d="m483.441406 330.292969h-469.441406c-5.523438 0-10-4.476563-10-10v-305.792969c0-5.523438 4.476562-10 10-10h469.441406c5.519532 0 10 4.476562 10 10v305.792969c0 5.523437-4.480468 10-10 10zm0 0" fill="#d8d6d7"/><path d="m467.441406 40.5v253.800781c0 5.519531-4.480468 10-10 10h-417.441406c-5.519531 0-10-4.480469-10-10v-253.800781c0-5.519531 4.480469-10 10-10h417.441406c5.519532 0 10 4.480469 10 10zm0 0" fill="#56c1b3"/><path d="m467.441406 40.5v253.800781c0 5.519531-4.480468 10-10 10h-373.941406c-5.519531 0-10-4.480469-10-10v-253.800781c0-5.519531 4.480469-10 10-10h373.941406c5.519532 0 10 4.480469 10 10zm0 0" fill="#7befe4"/><path d="m376.058594 472.160156v23.339844c0 5.519531-4.480469 10-10 10h-234.679688c-5.519531 0-10-4.480469-10-10v-23.339844c0-5.519531 4.480469-10 10-10h234.679688c5.519531 0 10 4.480469 10 10zm0 0" fill="#d8d6d7"/><path d="m376.058594 472.160156v23.339844c0 5.519531-4.480469 10-10 10h-202.679688c-5.519531 0-10-4.480469-10-10v-23.339844c0-5.519531 4.480469-10 10-10h202.679688c5.519531 0 10 4.480469 10 10zm0 0" fill="#fff"/><path d="m411.796875 69.089844h-326.152344c-4.621093 0-8.367187 3.746094-8.367187 8.367187v196.140625c0 4.621094 3.746094 8.367188 8.367187 8.367188h326.152344c4.621094 0 8.367187-3.746094 8.367187-8.367188v-196.140625c-.003906-4.621093-3.746093-8.367187-8.367187-8.367187zm0 0" fill="#f85252"/><path d="m240.355469 51.828125h-137.78125c-4.621094 0-8.367188 3.746094-8.367188 8.367187v193.246094c0 4.617188 3.746094 8.363282 8.367188 8.363282h137.78125c4.617187 0 8.363281-3.746094 8.363281-8.363282v-193.246094c0-4.621093-3.742188-8.367187-8.363281-8.367187zm0 0" fill="#fff"/><path d="m394.867188 51.828125h-137.78125c-4.621094 0-8.367188 3.746094-8.367188 8.367187v193.246094c0 4.617188 3.746094 8.363282 8.367188 8.363282h137.78125c4.617187 0 8.363281-3.746094 8.363281-8.363282v-193.246094c0-4.621093-3.746094-8.367187-8.363281-8.367187zm0 0" fill="#fff"/><g fill="#491352"><path d="m483.441406 0h-469.441406c-7.71875 0-14 6.28125-14 14v305.792969c0 7.71875 6.28125 14 14 14h203.058594v123.863281h-85.671875c-7.71875 0-14 6.285156-14 14v23.34375c0 7.71875 6.28125 14 14 14h234.667969c7.71875 0 14-6.28125 14-14v-23.34375c0-7.714844-6.28125-14-14-14h-85.675782v-123.863281h203.0625c7.714844 0 14-6.28125 14-14v-305.792969c0-7.71875-6.28125-14-14-14zm-117.386718 465.65625c3.308593 0 6 2.695312 6 6v23.34375c0 3.308594-2.691407 6-6 6h-234.667969c-3.308594 0-6-2.691406-6-6v-23.34375c0-3.304688 2.691406-6 6-6zm-140.996094-8v-123.863281h47.320312v123.863281zm264.382812-137.863281c0 3.308593-2.695312 6-6 6h-469.441406c-3.308594 0-6-2.691407-6-6v-305.792969c0-3.308594 2.691406-6 6-6h469.441406c3.304688 0 6 2.691406 6 6zm0 0"/><path d="m457.441406 26h-417.4375c-7.71875 0-14 6.28125-14 14v253.792969c0 7.71875 6.28125 14 14 14h417.4375c7.71875 0 14-6.28125 14-14v-253.792969c0-7.71875-6.28125-14-14-14zm6 267.792969c0 3.308593-2.695312 6-6 6h-417.4375c-3.308594 0-6-2.691407-6-6v-253.792969c0-3.308594 2.691406-6 6-6h417.4375c3.308594 0 6 2.691406 6 6zm0 0"/><path d="m411.800781 65.078125h-4.570312v-4.882813c0-6.816406-5.542969-12.367187-12.363281-12.367187h-137.78125c-3.230469 0-6.164063 1.253906-8.367188 3.289063-2.203125-2.03125-5.140625-3.289063-8.367188-3.289063h-137.78125c-6.816406 0-12.367187 5.546875-12.367187 12.367187v4.882813h-4.5625c-6.816406 0-12.359375 5.554687-12.359375 12.382813v196.136718c0 6.816406 5.542969 12.363282 12.359375 12.363282h326.160156c6.8125 0 12.359375-5.546876 12.359375-12.363282v-196.136718c0-6.828126-5.546875-12.382813-12.359375-12.382813zm-159.082031-4.882813c0-2.40625 1.960938-4.367187 4.367188-4.367187h137.78125c2.40625 0 4.367187 1.960937 4.367187 4.367187v193.246094c0 2.40625-1.957031 4.367188-4.367187 4.367188h-137.78125c-2.40625 0-4.367188-1.957032-4.367188-4.367188zm-154.511719 0c0-2.40625 1.957031-4.367187 4.367188-4.367187h137.78125c2.40625 0 4.367187 1.960937 4.367187 4.367187v193.246094c0 2.40625-1.957031 4.367188-4.367187 4.367188h-137.78125c-2.40625 0-4.367188-1.957032-4.367188-4.367188zm317.953125 213.40625c0 2.402344-1.957031 4.359376-4.359375 4.359376h-326.160156c-2.40625 0-4.359375-1.957032-4.359375-4.359376v-196.140624c0-2.417969 1.953125-4.382813 4.359375-4.382813h4.566406v180.363281c0 6.816406 5.550781 12.367188 12.367188 12.367188h137.78125c3.230469 0 6.164062-1.253906 8.367187-3.285156 2.203125 2.03125 5.136719 3.285156 8.367188 3.285156h137.78125c6.816406 0 12.363281-5.546875 12.363281-12.367188v-180.363281h4.570313c2.402343 0 4.359374 1.964844 4.359374 4.382813v196.140624zm0 0"/><path d="m117.101562 235.347656h106.523438c5.28125 0 5.289062-8 0-8h-106.523438c-5.285156 0-5.292968 8 0 8zm0 0"/><path d="m117.101562 210.382812h106.523438c5.28125 0 5.289062-8 0-8h-106.523438c-5.285156 0-5.292968 8 0 8zm0 0"/><path d="m153.632812 177.417969c-5.285156 0-5.292968 8 0 8h69.992188c5.28125 0 5.289062-8 0-8zm0 0"/><path d="m117.101562 185.417969h19.519532c5.285156 0 5.292968-8 0-8h-19.519532c-5.285156 0-5.292968 8 0 8zm0 0"/><path d="m117.101562 160.457031h106.523438c5.28125 0 5.289062-8 0-8h-106.523438c-5.285156 0-5.292968 8 0 8zm0 0"/><path d="m201.875 127.488281c-5.285156 0-5.292969 8 0 8h21.75c5.28125 0 5.289062-8 0-8zm0 0"/><path d="m117.101562 135.488281h69.15625c5.28125 0 5.289063-8 0-8h-69.15625c-5.285156 0-5.292968 8 0 8zm0 0"/><path d="m117.101562 110.527344h106.523438c5.28125 0 5.289062-8 0-8h-106.523438c-5.285156 0-5.292968 8 0 8zm0 0"/><path d="m117.101562 86.84375h106.523438c5.28125 0 5.289062-8 0-8h-106.523438c-5.285156 0-5.292968 8 0 8zm0 0"/><path d="m271.867188 110.527344h106.523437c5.285156 0 5.292969-8 0-8h-106.523437c-5.28125 0-5.292969 8 0 8zm0 0"/><path d="m271.867188 86.84375h106.523437c5.285156 0 5.292969-8 0-8h-106.523437c-5.28125 0-5.292969 8 0 8zm0 0"/><path d="m271.867188 135.488281h106.523437c5.285156 0 5.292969-8 0-8h-106.523437c-5.28125 0-5.292969 8 0 8zm0 0"/><path d="m271.867188 160.457031h69.992187c5.285156 0 5.292969-8 0-8h-69.992187c-5.28125 0-5.292969 8 0 8zm0 0"/><path d="m358.871094 152.457031c-5.285156 0-5.292969 8 0 8h19.519531c5.285156 0 5.292969-8 0-8zm0 0"/><path d="m271.867188 185.417969h106.523437c5.285156 0 5.292969-8 0-8h-106.523437c-5.28125 0-5.292969 8 0 8zm0 0"/><path d="m271.867188 210.382812h21.753906c5.28125 0 5.289062-8 0-8h-21.753906c-5.28125 0-5.292969 8 0 8zm0 0"/><path d="m309.234375 202.382812c-5.28125 0-5.289063 8 0 8h69.15625c5.285156 0 5.292969-8 0-8zm0 0"/><path d="m271.867188 235.347656h106.523437c5.285156 0 5.292969-8 0-8h-106.523437c-5.28125 0-5.292969 8 0 8zm0 0"/></g></svg>