<svg height="500pt" viewBox="-11 0 500 500.07544" width="500pt" xmlns="http://www.w3.org/2000/svg"><path d="m126.191406 473.59375c-10.859375 8.222656-23.078125 14.363281-36.019531 18.121094-6.980469 2.0625-14.179687 3.402344-21.480469 4.039062-3.839844.320313-6.140625.320313-6.140625.320313-32.320312 0-58.519531-26.199219-58.519531-58.5v-292.597657c0-83.480468 69.28125-141.582031 142.121094-141.019531 28.621094.21875 57.800781 9.5 83.519531 29.859375 14.761719 11.679688 27.519531 26.558594 37.460937 45.480469 0 0 113.417969 201.9375-140.941406 394.296875zm0 0" fill="#edaf85"/><path d="m126.191406 473.59375c-10.859375 8.222656-23.078125 14.363281-36.019531 18.121094-6.980469 2.0625-14.179687 3.402344-21.480469 4.039062-3.839844.320313-6.140625.320313-6.140625.320313-32.320312 0-58.519531-26.199219-58.519531-58.5v-292.597657c0-83.480468 69.28125-141.582031 142.121094-141.019531 28.621094.21875 57.800781 9.5 83.519531 29.859375 14.761719 11.679688 27.519531 26.558594 37.460937 45.480469 0 0 113.417969 201.9375-140.941406 394.296875zm0 0" fill="#edaf85"/><path d="m126.191406 473.59375c-10.859375 8.222656-23.078125 14.363281-36.019531 18.121094-29.320313-3.160156-52.140625-28-52.140625-58.140625v-292.597657c0-70.28125 49.121094-122.582031 108.121094-137.019531 28.621094.21875 57.800781 9.5 83.519531 29.859375 14.761719 11.679688 27.519531 26.558594 37.460937 45.480469 0 0 113.417969 201.9375-140.941406 394.296875zm0 0" fill="#f7c09a"/><path d="m249.851562 206.554688c-.339843 5.261718-.859374 10.519531-1.539062 15.742187-.582031-51.460937-18.421875-86.742187-19.859375-89.519531l-.101563-.140625-.417968-.820313c-6.78125-12.921875-15.402344-23.421875-26.320313-32.0625-17.203125-13.597656-37.421875-20.796875-58.5-20.796875-42.121093 0-87.203125 29.578125-97.082031 78.699219v-12.679688c0-61.160156 51.441406-99.019531 99.082031-99.019531 21.078125 0 41.296875 7.199219 58.5 20.796875 10.917969 8.640625 19.539063 19.140625 26.320313 32.0625l.417968.820313.101563.140625c1.597656 3.078125 23.320313 46.078125 19.398437 106.777344zm0 0" fill="#edaf85"/><g fill="#491352"><path d="m232.148438 30.675781c-93.488282-73.96875-232.1093755-5.6875-232.1093755 114.304688v292.589843c0 34.464844 28.0390625 62.503907 62.5039065 62.503907 19.890625 0 45.101562-7.4375 66.058593-23.285157 230.378907-174.21875 181.140626-384.71875 103.546876-446.113281zm55.882812 173.890625c-3.207031 67.03125-34.300781 167.566406-164.253906 265.84375-29.882813 22.597656-61.234375 21.664063-61.234375 21.664063-30.054688 0-54.503907-24.449219-54.503907-54.503907v-292.589843c0-111.945313 129.582032-178.894531 219.144532-108.027344 49.679687 39.308594 63.429687 113.554687 60.847656 167.613281zm0 0"/><path d="m42.039062 144.980469c0 5.285156 8 5.292969 8 0 0-32.464844 15.109376-58.070313 36.34375-74.488281 114.863282 209.257812-10.402343 284.195312-43.226562 271.152343-6.484375-2.578125-9.863281-9.796875-7.695312-16.429687l11.304687-34.574219c5.835937-17.847656-.507813-28.554687-11.160156-56.960937-6.628907-17.679688 17.101562-30.628907 28.445312-15.679688l16.488281 21.734375c3.191407 4.210937 9.574219-.617187 6.375-4.835937l-16.492187-21.734376c-7.09375-9.355468-19.867187-12.332031-30.363281-7.082031-11.207032 5.605469-16.339844 18.675781-11.941406 30.40625 17.0625 45.5 17.210937 32.804688-.257813 86.242188-4.015625 12.277343 3.148437 30.941406 29.769531 27.515625 13.074219-1.683594 25.53125-7.003906 36.035156-15.378906 30.839844-24.613282 92.378907-100.046876-.707031-269.035157 48.398438-31.460937 107.710938-14.183593 133.4375 34.84375 9.742188 18.59375 22.46875 59.070313 19.476563 105.617188-5.34375 83.089843-54.949219 160.679687-147.429688 230.621093-9.886718 7.476563-21.519531 11.972657-33.640625 13-9.875.839844-14.761719-6.066406-14.761719-12.339843 0-5.285157-8-5.292969-8 0 0 11.15625 9.078126 20.351562 20.398438 20.5 13.074219-.34375 28.128906-5.175781 40.832031-14.78125 94.421875-71.40625 145.085938-150.96875 150.585938-236.488281 3.933593-61.21875-17.410157-104.179688-19.859375-108.875-51.042969-98.0195318-191.957032-56.949219-191.957032 47.050781zm0 0"/><path d="m392.800781 17.757812c-4.269531-3.128906-8.992187 3.328126-4.734375 6.453126 107.503906 78.90625 110.039063 239.152343 2.566406 320.675781-4.214843 3.199219.621094 9.566406 4.835938 6.375 111.59375-84.652344 109.269531-251.339844-2.667969-333.503907zm0 0"/><path d="m355.308594 48.535156c-4.480469-2.8125-8.726563 3.976563-4.242188 6.78125 95.515625 59.734375 95.960938 197.644532 1.902344 258.460938-4.4375 2.867187-.097656 9.585937 4.34375 6.714844 99.136719-64.09375 98.324219-209.222657-2.003906-271.957032zm0 0"/><path d="m316.238281 80.339844c-4.824219-2.140625-8.089843 5.164062-3.242187 7.3125 83.699218 37.117187 84.308594 155.765625 1.128906 193.769531-4.808594 2.195313-1.488281 9.476563 3.324219 7.277344 89.519531-40.898438 88.671875-168.5-1.210938-208.359375zm0 0"/></g></svg>