<svg height="504pt" viewBox="-88 0 504 504.982" width="504pt" xmlns="http://www.w3.org/2000/svg"><path d="m284.835938 320.21875v7.421875c0 5.519531-4.480469 10-10 10h-220.679688c-5.519531 0-10-4.480469-10-10v-7.421875c0-36.277344 16.0625-68.796875 41.460938-90.859375 3.539062-3.097656 4.261718-8.28125 1.960937-12.378906-12.582031-22.320313-20.082031-50.261719-20.082031-80.601563 0-73.097656 43.421875-132.378906 97-132.378906 3.222656 0 6.402344.21875 9.519531.640625 49.121094 6.519531 87.480469 63.019531 87.480469 131.738281 0 30.339844-7.5 58.28125-20.078125 80.601563-2.300781 4.097656-1.582031 9.28125 1.960937 12.378906 25.398438 22.0625 41.457032 54.582031 41.457032 90.859375zm0 0" fill="#1c868e"/><path d="m284.835938 320.21875v7.421875c0 5.519531-4.480469 10-10 10h-201.679688c-5.519531 0-10-4.480469-10-10v-7.421875c0-36.277344 16.0625-68.796875 41.460938-90.859375 3.558593-3.097656 4.28125-8.28125 1.960937-12.378906-12.582031-22.320313-20.0625-50.261719-20.0625-80.601563 0-68.71875 38.382813-125.238281 87.5-131.738281 49.121094 6.519531 87.480469 63.019531 87.480469 131.738281 0 30.339844-7.5 58.28125-20.078125 80.601563-2.300781 4.097656-1.582031 9.28125 1.960937 12.378906 25.398438 22.0625 41.457032 54.582031 41.457032 90.859375zm0 0" fill="#40c4df"/><path d="m238.4375 99.738281v26.121094c0 31.640625-20.121094 58.761719-48.179688 69.28125v20.480469c0 11.597656-7.660156 21.378906-18.199218 24.617187-2.382813.722657-4.921875 1.121094-7.5625 1.121094-14.21875 0-25.757813-11.519531-25.757813-25.738281v-20.480469c-28.0625-10.519531-48.179687-37.640625-48.179687-69.28125v-26.121094c0-5.5 4.5-10 10-10h127.878906c5.5 0 10 4.5 10 10zm0 0" fill="#edaf85"/><path d="m238.4375 99.738281v26.121094c0 31.640625-20.121094 58.761719-48.179688 69.28125v20.480469c0 11.597656-7.660156 21.378906-18.199218 24.617187-10.5625-3.21875-18.222656-13.019531-18.222656-24.617187v-20.480469c-28.078126-10.519531-48.179688-37.640625-48.179688-69.28125v-26.121094c0-5.5 4.5-10 10-10h112.78125c5.5 0 10 4.5 10 10zm0 0" fill="#f7c09a"/><path d="m238.4375 99.738281v17.882813c-8.320312 12.039062-22.242188 19.9375-37.980469 19.9375-11.300781 0-21.660156-4.058594-29.679687-10.820313-3.601563-3.019531-8.960938-3.019531-12.558594 0-8.023438 6.761719-18.382812 10.820313-29.683594 10.820313-15.738281 0-29.65625-7.898438-37.976562-19.9375v-17.882813c0-5.5 4.5-10 10-10h127.878906c5.5 0 10 4.5 10 10zm0 0" fill="#1c868e"/><path d="m324.496094 303.203125v186.660156c0 5.519531-4.480469 10-10 10h-300c-5.519532 0-10-4.480469-10-10v-186.660156c0-5.519531 4.480468-10 10-10h300c5.519531 0 10 4.480469 10 10zm0 0" fill="#d8d6d7"/><path d="m324.496094 303.203125v186.660156c0 5.519531-4.480469 10-10 10h-257.578125c-5.519531 0-10-4.480469-10-10v-186.660156c0-5.519531 4.480469-10 10-10h257.578125c5.519531 0 10 4.480469 10 10zm0 0" fill="#fff"/><path d="m182.808594 397.648438 28.355468-28.355469c5.058594-5.058594 5.058594-13.257813 0-18.3125-5.054687-5.054688-13.253906-5.054688-18.3125 0l-28.355468 28.355469-28.355469-28.355469c-5.054687-5.054688-13.253906-5.054688-18.3125 0-5.054687 5.058593-5.054687 13.253906 0 18.3125l28.355469 28.355469-28.355469 28.355468c-5.054687 5.058594-5.054687 13.257813 0 18.3125 5.058594 5.054688 13.257813 5.054688 18.3125 0l28.355469-28.355468 28.355468 28.355468c5.058594 5.054688 13.257813 5.054688 18.3125 0 5.058594-5.058594 5.058594-13.257812 0-18.3125zm0 0" fill="#f85252"/><g fill="#491352"><path d="m242.4375 99.738281c0-7.71875-6.28125-14-14-14h-127.878906c-7.722656 0-14 6.28125-14 14v26.121094c0 31.375 19.25 59.960937 48.183594 72v17.757813c0 16.40625 13.347656 29.753906 29.753906 29.753906 16.410156 0 29.757812-13.347656 29.757812-29.753906v-17.757813c28.929688-12.039063 48.183594-40.625 48.183594-72 0-8.242187 0-3.992187 0-26.121094zm-53.585938 91.652344c-3.464843 1.296875-2.597656 3.140625-2.597656 24.222656 0 11.996094-9.761718 21.757813-21.757812 21.757813s-21.753906-9.761719-21.753906-21.757813c0-21.082031.863281-22.921875-2.597657-24.222656-26.484375-9.914063-44.472656-35.046875-45.488281-63.042969 18.816406 17.253906 47.121094 17.453125 66.140625 1.460938 2.109375-1.777344 5.289063-1.777344 7.398437 0 19.050782 16.015625 47.359376 15.765625 66.144532-1.460938-1.019532 27.996094-19.007813 53.128906-45.488282 63.042969zm45.585938-75.046875c-14.503906 19.746094-42.574219 22.917969-61.089844 7.34375-5.058594-4.25-12.664062-4.238281-17.699218 0-18.519532 15.578125-46.589844 12.398438-61.089844-7.34375v-16.605469c0-3.304687 2.691406-6 6-6h127.878906c3.308594 0 6 2.695313 6 6zm0 0"/><path d="m314.503906 290.316406h-29.316406c-6.140625-24.914062-19.628906-46.984375-39.175781-63.964844-2.046875-1.792968-2.511719-4.910156-1.109375-7.40625 50.519531-89.640624 2.707031-218.945312-80.40625-218.945312-83.527344 0-130.695313 129.710938-80.40625 218.9375 1.402344 2.503906.9375 5.621094-1.09375 7.40625-19.5625 16.988281-33.050782 39.058594-39.1875 63.972656h-29.316406c-7.722657 0-14 6.28125-14 14v186.664063c0 7.722656 6.277343 14 14 14h300.011718c7.722656 0 14-6.277344 14-14v-186.664063c0-7.71875-6.28125-14-14-14zm-226.253906-57.945312c4.878906-4.269532 6.058594-11.566406 2.8125-17.355469-47.625-84.496094-3.230469-207.015625 73.433594-207.015625 77.347656 0 120.625 123.285156 73.433594 207.023438-3.246094 5.785156-2.0625 13.078124 2.824218 17.355468 17.804688 15.464844 30.242188 35.414063 36.195313 57.9375h-224.902344c5.953125-22.523437 18.390625-42.472656 36.203125-57.945312zm232.253906 258.609375c0 3.308593-2.691406 6-6 6h-300.011718c-3.308594 0-6-2.691407-6-6v-186.664063c0-3.308594 2.691406-6 6-6h300.011718c3.308594 0 6 2.691406 6 6zm0 0"/><path d="m188.46875 397.648438 25.527344-25.527344c10.675781-10.675782 3.011718-28.933594-11.984375-28.933594-9.085938 0-10.542969 3.523438-37.511719 30.492188-26.976562-26.972657-28.429688-30.492188-37.511719-30.492188-14.988281 0-22.671875 18.25-11.984375 28.933594l25.527344 25.527344-25.527344 25.53125c-10.675781 10.671874-3.011718 28.929687 11.984375 28.929687 9.085938 0 10.542969-3.523437 37.511719-30.492187 26.972656 26.976562 28.429688 30.492187 37.511719 30.492187 14.984375 0 22.667969-18.246094 11.984375-28.929687zm19.867188 43.839843c-3.488282 3.488281-9.164063 3.492188-12.65625 0l-28.355469-28.355469c-1.5-1.5-4.15625-1.5-5.65625 0l-28.355469 28.355469c-3.488281 3.488281-9.164062 3.492188-12.65625 0-3.488281-3.488281-3.488281-9.164062 0-12.652343l28.355469-28.359376c1.5625-1.5625 1.5625-4.09375 0-5.65625l-28.355469-28.355468c-5.617188-5.617188-1.621094-15.273438 6.328125-15.273438 4.949219 0 4 .285156 34.683594 30.972656 1.5 1.5 4.15625 1.5 5.65625 0l28.355469-28.355468c3.492187-3.488282 9.167968-3.492188 12.65625 0 3.492187 3.488281 3.492187 9.164062 0 12.65625l-28.355469 28.355468c-1.5625 1.5625-1.5625 4.09375 0 5.65625l28.355469 28.359376c3.492187 3.488281 3.492187 9.164062 0 12.652343zm0 0"/><path d="m135.15625 112.917969c0 3.832031-3.109375 6.9375-6.9375 6.9375-3.832031 0-6.941406-3.105469-6.941406-6.9375s3.109375-6.9375 6.941406-6.9375c3.828125 0 6.9375 3.105469 6.9375 6.9375zm0 0"/><path d="m200.777344 105.980469c-3.832032 0-6.9375 3.105469-6.9375 6.9375s3.105468 6.9375 6.9375 6.9375c9.167968 0 9.175781-13.875 0-13.875zm0 0"/></g></svg>