<svg height="503pt" viewBox="-92 0 503 503.74465" width="503pt" xmlns="http://www.w3.org/2000/svg"><path d="m316.132812 15.15625v406c0 5.519531-4.480468 10-10 10h-291.761718c-5.519532 0-10-4.480469-10-10v-406c0-5.539062 4.480468-10 10-10h291.761718c5.519532 0 10 4.460938 10 10zm0 0" fill="#1c868e"/><path d="m316.132812 15.15625v406c0 5.519531-4.480468 10-10 10h-261.28125c-5.519531 0-10-4.480469-10-10v-406c0-5.539062 4.480469-10 10-10h261.28125c5.519532 0 10 4.460938 10 10zm0 0" fill="#40c4df"/><path d="m73.152344 431.148438h-34v67.242187c0 2.074219 2.464844 3.15625 3.992187 1.753906l30.007813-27.578125 30.007812 27.578125c1.523438 1.40625 3.992188.320313 3.992188-1.753906v-67.242187zm0 0" fill="#f85252"/><path d="m271.914062 191.277344h-21.242187c-1.859375-6.257813-4.359375-12.339844-7.539063-18.160156l15.039063-15.039063c3.660156-3.640625 3.660156-9.601563 0-13.28125l-20.941406-20.898437-3.65625-3.660157c-3.660157-3.660156-9.601563-3.660156-13.28125 0l-15.019531 15.019531c-5.839844-3.179687-11.941407-5.679687-18.179688-7.519531v-21.261719c0-5.179687-4.222656-9.378906-9.402344-9.378906h-34.738281c-5.199219 0-9.402344 4.199219-9.402344 9.378906v21.261719c-.078125.019531-.160156.039063-.238281.058594-6.160156 1.839844-12.160156 4.320313-17.921875 7.460937l-11.378906-11.359374-3.660157-3.660157c-3.660156-3.660156-9.621093-3.660156-13.257812 0l-24.601562 24.558594c-3.660157 3.679687-3.660157 9.640625 0 13.28125l15.039062 15.039063c-3.457031 6.320312-6.097656 12.960937-7.980469 19.800781h-20.796875c-5.203125 0-9.402344 4.199219-9.402344 9.359375v34.761718c0 5.199219 4.199219 9.417969 9.402344 9.417969h21.757813c1.761719 5.679688 4.101562 11.222657 7.019531 16.539063l-15.039062 15.023437c-3.660157 3.679688-3.660157 9.617188 0 13.277344l24.601562 24.601563c3.636719 3.660156 9.597656 3.660156 13.257812 0l15.039063-15.039063c4.621094 2.519531 9.402344 4.617187 14.300781 6.296875 1.179688.421875 2.359375.800781 3.582032 1.160156.078124.042969.179687.0625.277343.082032v21.257812c0 5.183594 4.203125 9.402344 9.402344 9.402344h34.738281c5.179688 0 9.402344-4.21875 9.402344-9.402344v-21.257812c6.238281-1.859376 12.359375-4.359376 18.199219-7.539063l6.257812 6.277344 8.742188 8.761719c3.679687 3.660156 9.621093 3.660156 13.28125 0l3.65625-3.640626 20.941406-20.960937c3.660156-3.660156 3.660156-9.597656 0-13.277344l-15.039063-15c3.179688-5.820312 5.679688-11.941406 7.539063-18.179687h21.242187c5.179688 0 9.398438-4.222656 9.398438-9.421875v-34.738281c0-5.203126-4.21875-9.402344-9.398438-9.402344zm-63 56.878906c-4.703124 7.558594-11.101562 13.960938-18.660156 18.640625-8.722656 5.378906-19 8.5-30 8.5-6.800781 0-13.339844-1.199219-19.402344-3.382813-6.621093-2.378906-12.660156-5.976562-17.898437-10.476562-4.859375-4.203125-9.019531-9.203125-12.242187-14.800781-4.839844-8.402344-7.597657-18.121094-7.597657-28.480469 0-6.160156.980469-12.101562 2.777344-17.640625 3.242187-10.078125 9.222656-18.917969 17.0625-25.679687 5.238281-4.5 11.277344-8.058594 17.898437-10.441407 6.0625-2.199219 12.601563-3.398437 19.402344-3.398437 31.558594 0 57.136719 25.578125 57.136719 57.160156 0 11-3.097656 21.261719-8.476563 30zm0 0" fill="#d8d6d7"/><path d="m271.914062 191.277344h-21.242187c-1.859375-6.257813-4.359375-12.339844-7.539063-18.160156l15.039063-15.039063c3.660156-3.640625 3.660156-9.601563 0-13.28125l-20.941406-20.898437-3.65625-3.660157c-3.660157-3.660156-9.601563-3.660156-13.28125 0l-15.019531 15.019531c-5.839844-3.179687-11.941407-5.679687-18.179688-7.519531v-21.261719c0-5.179687-4.222656-9.378906-9.402344-9.378906h-20.617187c-1.84375 2.261719-2.941407 5.140625-2.941407 8.28125v14.800782c0 1.617187-1.058593 3.039062-2.621093 3.539062-4.640625 1.519531-9.179688 3.417969-13.578125 5.679688-1.179688.597656-2.601563.398437-3.542969-.519532l-1.078125-1.082031c-6.160156 1.839844-12.160156 4.320313-17.921875 7.460937l-11.378906-11.359374-20.9375 20.898437c-3.660157 3.679687-3.660157 9.640625 0 13.28125l13.117187 13.101563c1.140625 1.160156 1.382813 2.898437.640625 4.359374-2.398437 4.757813-4.378906 9.679688-5.917969 14.699219-.5 1.578125-1.921874 2.679688-3.582031 2.679688h-18c-5.179687 0-9.398437 4.199219-9.398437 9.359375v31.0625c0 7.238281 5.859375 13.117187 13.117187 13.117187h15.339844c1.582031 0 3 .980469 3.5 2.460938 1.363281 4 3.023437 7.921875 4.980469 11.738281.722656 1.421875.421875 3.140625-.699219 4.28125l-13.097656 13.082031c-3.660157 3.679688-3.660157 9.617188 0 13.277344l20.9375 20.941406 11.378906-11.378906c4.621094 2.519531 9.402344 4.617187 14.300781 6.296875 1.179688.421875 2.359375.800781 3.582032 1.160156l.757812-.777344c1.140625-1.160156 2.78125-1.460937 4.242188-.722656 4.257812 2.160156 8.757812 4.023438 13.257812 5.5 1.542969.523438 2.601562 1.921875 2.601562 3.542969v10.078125c0 7.242188 5.859376 13.121094 13.121094 13.121094h10.4375c5.179688 0 9.402344-4.21875 9.402344-9.402344v-21.257812c6.238281-1.859376 12.359375-4.359376 18.199219-7.539063l6.257812 6.277344 8.742188 8.761719c3.679687 3.660156 9.621093 3.660156 13.28125 0l3.65625-3.640626 20.941406-20.960937c3.660156-3.660156 3.660156-9.597656 0-13.277344l-15.039063-15c3.179688-5.820312 5.679688-11.941406 7.539063-18.179687h21.242187c5.179688 0 9.398438-4.222656 9.398438-9.421875v-34.738281c0-5.203126-4.21875-9.402344-9.398438-9.402344zm-63 56.878906c-4.703124 7.558594-11.101562 13.960938-18.660156 18.640625-8.722656 5.378906-19 8.5-30 8.5-6.800781 0-13.339844-1.199219-19.402344-3.382813-6.621093-2.378906-12.660156-5.976562-17.898437-10.476562-4.859375-4.203125-9.019531-9.203125-12.242187-14.800781-4.839844-8.402344-7.597657-18.121094-7.597657-28.480469 0-6.160156.980469-12.101562 2.777344-17.640625 3.242187-10.078125 9.222656-18.917969 17.0625-25.679687 5.238281-4.5 11.277344-8.058594 17.898437-10.441407 6.0625-2.199219 12.601563-3.398437 19.402344-3.398437 31.558594 0 57.136719 25.578125 57.136719 57.160156 0 11-3.097656 21.261719-8.476563 30zm0 0" fill="#fff"/><g fill="#491352"><path d="m306.132812 0h-291.761718c-7.71875 0-14 6.28125-14 14v406.003906c0 7.71875 6.28125 14 14 14h20.777344v63.242188c0 5.542968 6.621093 8.453125 10.703124 4.699218l27.296876-25.089843c28.453124 26.148437 29.082031 28.472656 34.1875 26.238281 2.316406-1.019531 3.8125-3.3125 3.8125-5.847656v-63.238282h194.980468c7.71875 0 14-6.28125 14-14v-406.007812c.003906-7.71875-6.277344-14-13.996094-14zm-202.984374 493.5625-27.289063-25.085938c-1.53125-1.40625-3.882813-1.40625-5.414063 0l-27.292968 25.085938v-59.558594h60v59.558594zm208.984374-73.558594c0 3.308594-2.691406 6-6 6-17.476562 0-282.035156 0-291.757812 0-3.308594 0-6-2.691406-6-6v-406.003906c0-3.308594 2.691406-6 6-6h291.757812c3.308594 0 6 2.691406 6 6zm0 0"/><path d="m120.34375 170.671875c-22.574219 19.476563-27.496094 51.800781-13.101562 76.800781 31.046874 54.019532 114.152343 31.941406 114.152343-30.46875 0-51.820312-61.21875-80.613281-101.050781-46.332031zm39.914062 99.46875c-49.5 0-71.664062-61.511719-34.691406-93.410156 34.523438-29.714844 87.828125-4.875 87.828125 40.273437 0 29.203125-23.621093 53.136719-53.136719 53.136719zm0 0"/><path d="m271.90625 186.199219h-18.324219c-1.53125-4.644531-3.394531-9.140625-5.570312-13.429688l12.957031-12.957031c2.53125-2.519531 3.925781-5.878906 3.929688-9.460938.003906-3.585937-1.390626-6.957031-3.925782-9.492187l-24.605468-24.578125c-5.210938-5.214844-13.710938-5.21875-18.949219 0l-12.949219 12.949219c-4.316406-2.183594-8.820312-4.042969-13.445312-5.566407v-18.3125c0-7.390624-6.011719-13.402343-13.402344-13.402343h-34.769532c-7.390624 0-13.402343 6.011719-13.402343 13.402343v18.316407c-4.585938 1.507812-9.082031 3.371093-13.425781 5.5625l-12.960938-12.945313c-2.523438-2.535156-5.886719-3.929687-9.46875-3.929687-3.585938 0-6.953125 1.394531-9.46875 3.921875l-24.59375 24.585937c-2.53125 2.53125-3.925781 5.902344-3.921875 9.492188 0 3.578125 1.398437 6.9375 3.921875 9.453125l12.953125 12.964844c-2.425781 4.804687-4.457031 9.847656-6.070313 15.050781h-17.8125c-7.390624 0-13.402343 6.003906-13.402343 13.386719v34.785156c0 7.390625 6.011719 13.402344 13.402343 13.402344h18.871094c1.386719 4.027343 3.0625 7.980468 5.007813 11.8125l-12.953125 12.964843c-5.210938 5.230469-5.207032 13.726563.003906 18.941407l24.59375 24.609374c5.21875 5.222657 13.714844 5.21875 18.933594 0l12.964844-12.964843c4.304687 2.167969 8.800781 4.035156 13.425781 5.566406v18.328125c0 7.390625 6.011719 13.402344 13.402343 13.402344h34.773438c7.386719 0 13.398438-6.011719 13.398438-13.402344v-18.328125c4.652343-1.539063 9.15625-3.402344 13.453124-5.566406l12.953126 12.972656c5.230468 5.191406 13.722656 5.1875 18.9375-.007813l24.609374-24.609374c5.210938-5.210938 5.214844-13.710938-.003906-18.949219l-12.957031-12.933594c2.171875-4.296875 4.039063-8.800781 5.570313-13.457031h18.324218c7.386719 0 13.398438-6.011719 13.398438-13.402344v-34.769531c0-7.394531-6.011719-13.40625-13.402344-13.40625zm5.402344 48.171875c0 2.980468-2.425782 5.402344-5.402344 5.402344-21.6875 0-23.960938-.953126-25.09375 2.863281-7.851562 26.429687-15.535156 13.191406 8.5 37.179687 2.105469 2.113282 2.105469 5.542969.003906 7.640625l-24.601562 24.601563c-2.101563 2.097656-5.535156 2.09375-7.632813.007812l-15.019531-15.042968c-1.257812-1.253907-3.1875-1.539063-4.742188-.6875-5.457031 2.964843-11.320312 5.394531-17.441406 7.222656-1.695312.507812-2.855468 2.066406-2.855468 3.832031v21.261719c0 2.976562-2.421876 5.402344-5.398438 5.402344h-34.773438c-2.976562 0-5.402343-2.421876-5.402343-5.402344v-21.261719c0-1.765625-1.160157-3.324219-2.851563-3.832031-6.078125-1.816406-11.933594-4.246094-17.410156-7.222656-.601562-.328126-1.257812-.488282-1.910156-.488282-1.035156 0-2.0625.402344-2.832032 1.171875l-15.046874 15.046875c-2.101563 2.097656-5.519532 2.097656-7.617188 0l-24.59375-24.609375c-2.101562-2.101562-2.097656-5.527343 0-7.636719l15.03125-15.046874c1.257812-1.253907 1.535156-3.191407.679688-4.75-2.773438-5.058594-5.03125-10.375-6.703126-15.808594-.519531-1.675782-2.070312-2.820313-3.824218-2.820313h-21.769532c-2.980468 0-5.402343-2.425781-5.402343-5.402343v-34.785157c0-2.972656 2.421875-5.386719 5.402343-5.386719h20.804688c1.796875 0 3.375-1.203124 3.855469-2.933593 1.835937-6.636719 4.40625-13.011719 7.640625-18.949219.851562-1.558594.570312-3.488281-.683594-4.742188l-15.035156-15.054687c-1.015625-1.007813-1.574219-2.359375-1.578125-3.800781 0-1.449219.5625-2.804688 1.582031-3.824219l24.597656-24.585937c2.023438-2.035157 5.578125-2.042969 7.617188.003906l15.046875 15.03125c1.253906 1.253906 3.183593 1.53125 4.738281.683594 5.546875-3.015626 11.402344-5.441407 17.394531-7.203126 1.699219-.5 2.867188-2.0625 2.867188-3.835937v-21.261719c0-2.976562 2.421875-5.402344 5.402343-5.402344h34.773438c2.976562 0 5.398438 2.421876 5.398438 5.402344v21.261719c0 1.773437 1.167968 3.335937 2.871093 3.835937 6.0625 1.78125 11.917969 4.207032 17.40625 7.203126 1.550781.847656 3.488281.570312 4.742188-.683594l15.027343-15.023438c2.113282-2.105468 5.539063-2.109375 7.640626-.003906l24.605468 24.578125c1.023438 1.019531 1.582032 2.378906 1.582032 3.828125 0 1.441406-.558594 2.789062-1.582032 3.804688l-15.042968 15.046874c-1.257813 1.257813-1.53125 3.191407-.679688 4.75 2.980469 5.4375 5.40625 11.289063 7.21875 17.394532.503906 1.695312 2.0625 2.859375 3.832031 2.859375h21.261719c2.976562 0 5.402344 2.421875 5.402344 5.402343zm0 0"/></g></svg>