<svg height="506pt" viewBox="-50 0 505 506" width="506pt" xmlns="http://www.w3.org/2000/svg"><path d="m400.867188 114.195312v379.480469c0 5.519531-4.460938 10-10 10h-376.359376c-5.539062 0-10-4.480469-10-10v-478c0-5.523437 4.460938-10 10-10h279.378907c2.679687 0 5.261719 1.058594 7.140625 2.976563l96.980468 98.523437c1.839844 1.878907 2.859376 4.398438 2.859376 7.019531zm0 0" fill="#1c868e"/><path d="m400.867188 114.195312v379.480469c0 5.519531-4.460938 10-10 10h-345.9375c-5.523438 0-10-4.480469-10-10v-478c0-5.523437 4.476562-10 10-10h248.957031c2.679687 0 5.261719 1.058594 7.140625 2.976563l96.980468 98.523437c1.839844 1.878907 2.859376 4.398438 2.859376 7.019531zm0 0" fill="#40c4df"/><path d="m4.5 178.125h396.375v245.769531h-396.375zm0 0" fill="#fff"/><path d="m4.507812 178.132812h30.421876v245.761719h-30.421876zm0 0" fill="#d8d6d7"/><path d="m31.105469 314.375c-9.210938 0-16.417969 7.210938-16.417969 16.417969 0 9.203125 7.207031 16.414062 16.417969 16.414062 8.863281 0 16.078125-7.363281 16.078125-16.414062 0-9.054688-7.214844-16.417969-16.078125-16.417969zm0 0" fill="#40c4df"/><path d="m118.597656 289.824219h-36.835937v-38.34375h-19.058594v95h19.058594v-39.601563h36.835937v39.601563h19.054688v-95h-19.054688zm0 0" fill="#40c4df"/><path d="m150.902344 268.40625h23.9375v78.074219h19.058594v-78.074219h23.808593v-16.925781h-66.804687zm0 0" fill="#40c4df"/><path d="m279.273438 318.246094-29.601563-66.140625h-18.589844v94.375h19.058594v-50.675781l22.640625 50.675781h12.984375l22.515625-50.507813v50.507813h19.054688v-94.375h-18.460938zm0 0" fill="#40c4df"/><path d="m360.113281 329.550781v-78.070312h-19.058593v95h49.636718v-16.929688zm0 0" fill="#40c4df"/><g fill="#491352"><path d="m400.855469 102.710938-96.980469-98.53125c-2.617188-2.65625-6.25-4.179688-9.976562-4.179688h-279.398438c-7.71875 0-14 6.28125-14 14v478c0 7.71875 6.28125 14 14 14h376.375c7.71875 0 14-6.28125 14-14 0-16.128906 0-362.933594 0-379.46875 0-3.699219-1.429688-7.1875-4.019531-9.820312zm-3.980469 389.289062c0 3.308594-2.691406 6-6 6h-376.375c-3.308594 0-6-2.691406-6-6v-65.773438h388.375zm0-73.773438h-388.375v-237.769531h388.375zm0-245.769531h-388.375v-158.457031c0-3.308594 2.691406-6 6-6h279.394531c1.597657 0 3.15625.652344 4.277344 1.792969l96.980469 98.53125c1.113281 1.128906 1.722656 2.625 1.722656 4.207031zm0 0"/><path d="m31.105469 351.207031c11.070312 0 20.078125-9.15625 20.078125-20.414062 0-11.257813-9.007813-20.417969-20.078125-20.417969-11.453125 0-20.417969 8.96875-20.417969 20.417969 0 11.445312 8.964844 20.414062 20.417969 20.414062zm0-32.832031c6.660156 0 12.078125 5.570312 12.078125 12.417969 0 6.84375-5.417969 12.414062-12.078125 12.414062-6.964844 0-12.417969-5.453125-12.417969-12.414062 0-6.964844 5.453125-12.417969 12.417969-12.417969zm0 0"/><path d="m62.707031 350.480469h19.054688c2.207031 0 4-1.792969 4-4v-35.601563h28.835937v35.601563c0 2.207031 1.789063 4 4 4h19.054688c2.210937 0 4-1.792969 4-4v-95c0-2.207031-1.789063-4-4-4h-19.054688c-2.210937 0-4 1.792969-4 4v34.34375h-28.835937v-34.34375c0-2.207031-1.792969-4-4-4h-19.054688c-2.210937 0-4 1.792969-4 4v95c0 2.207031 1.789063 4 4 4zm4-95h11.054688v34.34375c0 2.210937 1.792969 4 4 4h36.835937c2.207032 0 4-1.789063 4-4v-34.34375h11.054688v87h-11.054688v-35.601563c0-2.207031-1.792968-4-4-4h-36.835937c-2.207031 0-4 1.792969-4 4v35.601563h-11.054688zm0 0"/><path d="m150.902344 272.40625h19.9375v74.074219c0 2.207031 1.792968 4 4 4h19.054687c2.210938 0 4-1.792969 4-4v-74.074219h19.8125c2.207031 0 4-1.792969 4-4v-16.925781c0-2.207031-1.792969-4-4-4h-66.804687c-2.207032 0-4 1.792969-4 4v16.925781c0 2.207031 1.792968 4 4 4zm4-16.925781h58.804687v8.925781h-19.8125c-2.207031 0-4 1.792969-4 4v74.074219h-11.054687v-74.074219c0-2.207031-1.792969-4-4-4h-19.9375zm0 0"/><path d="m231.082031 350.480469h19.054688c2.210937 0 4-1.792969 4-4v-31.917969l14.988281 33.546875c.644531 1.441406 2.074219 2.367187 3.652344 2.367187h12.988281c1.578125 0 3.007813-.925781 3.652344-2.371093l14.859375-33.335938v31.707031c0 2.210938 1.792968 4 4 4h19.054687c2.207031 0 4-1.789062 4-4v-94.371093c0-2.210938-1.792969-4-4-4h-18.460937c-1.574219 0-3.007813.925781-3.648438 2.363281l-25.953125 57.984375-25.953125-57.984375c-.640625-1.4375-2.074218-2.363281-3.648437-2.363281h-18.589844c-2.207031 0-4 1.789062-4 4v94.371093c.003906 2.210938 1.796875 4.003907 4.003906 4.003907zm4-94.375h11.996094l28.542969 63.777343c.644531 1.4375 2.074218 2.363282 3.648437 2.363282 1.578125 0 3.007813-.925782 3.652344-2.363282l28.539063-63.777343h11.871093v86.375h-11.054687v-46.507813c0-1.886718-1.320313-3.519531-3.167969-3.914062-1.84375-.394532-3.714844.558594-4.484375 2.285156l-21.457031 48.136719h-7.796875l-21.582032-48.300781c-.769531-1.726563-2.648437-2.679688-4.484374-2.28125-1.847657.394531-3.167969 2.023437-3.167969 3.910156v46.671875h-11.054688zm0 0"/><path d="m341.054688 350.480469h49.636718c2.207032 0 4-1.792969 4-4v-16.925781c0-2.207032-1.792968-4-4-4h-26.578125v-74.074219c0-2.207031-1.792969-4-4-4h-19.058593c-2.207032 0-4 1.792969-4 4v95c0 2.207031 1.792968 4 4 4zm4-95h11.058593v74.074219c0 2.207031 1.792969 4 4 4h26.578125v8.925781h-41.636718zm0 0"/></g></svg>