<svg height="509pt" viewBox="-6 0 509 509" width="509pt" xmlns="http://www.w3.org/2000/svg"><path d="m221.058594 294.089844h55.320312v168.320312h-55.320312zm0 0" fill="#d8d6d7"/><path d="m254.898438 294.089844h21.480468v168.320312h-21.480468zm0 0" fill="#fff"/><path d="m483.441406 330.542969h-469.441406c-5.523438 0-10-4.476563-10-10v-305.792969c0-5.523438 4.476562-10 10-10h469.441406c5.519532 0 10 4.476562 10 10v305.792969c0 5.523437-4.480468 10-10 10zm0 0" fill="#d8d6d7"/><path d="m467.441406 40.75v253.800781c0 5.519531-4.480468 10-10 10h-417.441406c-5.519531 0-10-4.480469-10-10v-253.800781c0-5.519531 4.480469-10 10-10h417.441406c5.519532 0 10 4.480469 10 10zm0 0" fill="#56c1b3"/><path d="m467.441406 40.75v253.800781c0 5.519531-4.480468 10-10 10h-373.941406c-5.519531 0-10-4.480469-10-10v-253.800781c0-5.519531 4.480469-10 10-10h373.941406c5.519532 0 10 4.480469 10 10zm0 0" fill="#7befe4"/><path d="m376.058594 472.410156v23.339844c0 5.519531-4.480469 10-10 10h-234.679688c-5.519531 0-10-4.480469-10-10v-23.339844c0-5.519531 4.480469-10 10-10h234.679688c5.519531 0 10 4.480469 10 10zm0 0" fill="#d8d6d7"/><g fill="#fff"><path d="m376.058594 472.410156v23.339844c0 5.519531-4.480469 10-10 10h-202.679688c-5.519531 0-10-4.480469-10-10v-23.339844c0-5.519531 4.480469-10 10-10h202.679688c5.519531 0 10 4.480469 10 10zm0 0"/><path d="m358.730469 72.847656-15.46875-15.472656c-1.585938-1.582031-4.066407-1.832031-5.933594-.597656l-41.328125 27.332031c-.78125.515625-1.390625 1.253906-1.75 2.117187l-14.1875 34.039063c7.386719 7.382813 7.910156 7.910156 15.300781 15.296875l34.066407-14.199219c.84375-.351562 1.566406-.941406 2.082031-1.699219l27.785156-40.828124c1.273437-1.875 1.035156-4.386719-.566406-5.988282zm0 0"/><path d="m357.597656 246.925781-138.109375-138.109375c4.550781-14.980468.957031-31.902344-10.882812-43.742187-11.484375-11.480469-27.742188-15.261719-42.378907-11.335938-3.492187.941407-4.640624 5.328125-2.085937 7.886719l20.582031 20.578125c5.789063 5.789063 5.78125 15.167969 0 20.945313-5.78125 5.78125-15.160156 5.789062-20.945312 0l-20.578125-20.574219c-2.5625-2.5625-6.953125-1.398438-7.890625 2.105469-4.117188 15.390624.28125 32.59375 13.210937 44.121093 11.816407 10.539063 27.714844 13.589844 41.9375 9.183594l138.039063 138.042969c8.039062 8.035156 21.066406 8.035156 29.101562 0 8.035156-8.039063 8.035156-21.066406 0-29.101563zm0 0"/></g><path d="m143.6875 271.949219c-8.035156-8.039063-8.035156-21.066407 0-29.101563l78.503906-78.5c2.28125-2.285156 5.988282-2.285156 8.269532 0l20.828124 20.828125c2.285157 2.28125 2.285157 5.984375 0 8.269531l-78.5 78.503907c-8.035156 8.035156-21.066406 8.035156-29.101562 0zm0 0" fill="#1c868e"/><path d="m483.441406 0h-469.441406c-7.71875 0-14 6.28125-14 14v305.792969c0 7.71875 6.28125 14 14 14h203.058594v123.863281h-85.671875c-7.71875 0-14 6.285156-14 14v23.34375c0 7.71875 6.28125 14 14 14h234.667969c7.71875 0 14-6.28125 14-14v-23.34375c0-7.714844-6.28125-14-14-14h-85.675782v-123.863281h203.0625c7.714844 0 14-6.28125 14-14v-305.792969c0-7.71875-6.28125-14-14-14zm-117.386718 465.65625c3.308593 0 6 2.695312 6 6v23.34375c0 3.308594-2.691407 6-6 6h-234.667969c-3.308594 0-6-2.691406-6-6v-23.34375c0-3.304688 2.691406-6 6-6zm-140.996094-8v-123.863281h47.320312v123.863281zm264.382812-137.863281c0 3.308593-2.695312 6-6 6h-469.441406c-3.308594 0-6-2.691407-6-6v-305.792969c0-3.308594 2.691406-6 6-6h469.441406c3.304688 0 6 2.691406 6 6zm0 0" fill="#491352"/><path d="m457.441406 26h-417.4375c-7.71875 0-14 6.28125-14 14v253.792969c0 7.71875 6.28125 14 14 14h417.4375c7.71875 0 14-6.28125 14-14v-253.792969c0-7.71875-6.28125-14-14-14zm6 267.792969c0 3.308593-2.695312 6-6 6h-417.4375c-3.308594 0-6-2.691407-6-6v-253.792969c0-3.308594 2.691406-6 6-6h417.4375c3.308594 0 6 2.691406 6 6zm0 0" fill="#491352"/><path d="m268.648438 152.078125 18.984374-18.835937 4.890626 4.894531c1.125 1.125 2.839843 1.496093 4.367187.863281l34.070313-14.199219c1.566406-.65625 2.898437-1.742187 3.847656-3.140625l27.785156-40.828125c2.351562-3.453125 1.914062-8.105469-1.039062-11.058593 0-.003907-.003907-.003907-.003907-.003907l-15.472656-15.472656c-2.914063-2.914063-7.527344-3.382813-10.964844-1.105469l-41.328125 27.332032c-1.445312.957031-2.5625 2.304687-3.234375 3.914062l-14.183593 34.035156c-.628907 1.496094-.285157 3.222656.863281 4.371094l4.746093 4.746094-18.984374 18.835937-39.042969-39.046875c8.871093-35.445312-23.695313-67.1875-58.757813-57.746094-6.464844 1.707032-8.632812 9.828126-3.886718 14.574219 22.023437 22.027344 23.746093 22.394531 23.75 28.203125.003906 9.613282-11.664063 14.449219-18.457032 7.660156l-20.578125-20.578124c-4.742187-4.738282-12.855469-2.585938-14.59375 3.898437-9.453125 35.496094 22.832031 67.757813 57.855469 58.835937l24.558594 24.554688-72.988282 72.988281c-9.582031 9.585938-9.582031 25.175781 0 34.757813 9.601563 9.605468 25.152344 9.605468 34.753907 0l72.988281-72.988282 77.070312 77.070313c4.640626 4.644531 10.8125 7.203125 17.375 7.203125 21.609376 0 32.996094-26.351562 17.378907-41.957031zm29.28125-64.554687c.054687-.132813.148437-.25.269531-.328126l41.324219-27.332031c.28125-.183593.664062-.148437.898437.089844l15.46875 15.472656c.242187.238281.28125.625.085937.90625l-27.785156 40.832031c-.074218.113282-.1875.203126-.3125.257813l-31.59375 13.164063-11.507812-11.507813zm-104.648438 47.386718c-1.050781-1.046875-2.59375-1.433594-4.011719-.988281-13.347656 4.125-27.585937 1.007813-38.09375-8.34375-18.65625-16.667969-13.453125-43.066406-10.8125-40.429687l20.578125 20.578124c11.839844 11.839844 32.125 3.347657 32.113282-13.324218-.003907-5.019532-1.964844-9.730469-5.515626-13.269532-19.816406-19.820312-22.210937-21.269531-20.289062-21.769531 30.027344-8.085937 57.539062 19.976563 48.394531 50.03125-.429687 1.414063-.046875 2.949219.996094 3.992188l40.667969 40.667969-16.683594 16.558593-7.34375-7.34375c-3.792969-3.792969-9.921875-3.828125-13.773438-.128906zm55.171875 55.457032c-9.761719 9.761718-64.136719 64.136718-78.503906 78.503906-6.480469 6.480468-16.964844 6.480468-23.441407 0-6.464843-6.464844-6.464843-16.980469 0-23.445313l78.5-78.5c.714844-.71875 1.890626-.722656 2.617188 0l20.828125 20.828125c.722656.722656.726563 1.886719 0 2.613282zm94.585937 87.441406c-4.425781 0-8.585937-1.722656-11.71875-4.859375l-77.085937-77.082031c3.777344-3.925782 3.628906-10.019532-.125-13.773438l-7.828125-7.824219 16.6875-16.558593 91.792969 91.796874c10.515625 10.515626 2.867187 28.300782-11.722657 28.300782zm0 0" fill="#491352"/></svg>