<svg height="477.916pt" viewBox="0 0 477.916 477.916" width="477.916pt" xmlns="http://www.w3.org/2000/svg"><path d="m238.957031 473.351562c-129.449219 0-234.394531-104.941406-234.394531-234.394531 0-129.449219 104.945312-234.394531 234.394531-234.394531 129.453125 0 234.394531 104.945312 234.394531 234.394531 0 129.453125-104.941406 234.394531-234.394531 234.394531zm0 0" fill="#7befe4"/><path d="m404.238281 238.957031c0 46.820313-19.460937 89.101563-50.761719 119.179688-29.699218 28.5625-70.058593 46.101562-114.519531 46.101562-12.097656 0-23.878906-1.300781-35.238281-3.78125-30.378906-6.578125-57.660156-21.519531-79.28125-42.320312-31.300781-30.078125-50.757812-72.359375-50.757812-119.179688 0-46.820312 19.457031-89.097656 50.757812-119.179687 21.941406-21.097656 49.71875-36.199219 80.660156-42.621094 10.921875-2.277344 22.261719-3.476562 33.859375-3.476562 44.460938 0 84.820313 17.539062 114.519531 46.097656 31.300782 30.082031 50.761719 72.359375 50.761719 119.179687zm0 0" fill="#40c4df"/><path d="m203.71875 400.457031c-30.378906-6.578125-57.660156-21.519531-79.28125-42.320312-31.300781-30.078125-50.757812-72.359375-50.757812-119.179688 0-46.820312 19.457031-89.097656 50.757812-119.179687 21.941406-21.097656 49.71875-36.199219 80.660156-42.621094-27.539062 25.460938-187.960937 186.523438-1.378906 323.300781zm0 0" fill="#1c868e"/><path d="m194.355469 211.355469 20.976562 78.289062c1.761719 6.582031 9.984375 8.785157 14.800781 3.96875l57.3125-57.3125c4.816407-4.816406 2.613282-13.039062-3.964843-14.804687l-78.289063-20.976563c-6.582031-1.761719-12.601562 4.257813-10.835937 10.835938zm0 0" fill="#fff"/><path d="m288.574219 275.515625-18.679688 18.679687c-3.484375 3.484376-9.136719 3.484376-12.621093 0l-13.863282-13.859374 31.304688-31.304688 13.859375 13.859375c3.488281 3.484375 3.488281 9.136719 0 12.625zm0 0" fill="#d8d6d7"/><g fill="#491352"><path d="m359.976562 119.867188.082032-.078126c-72.085938-69.328124-173.292969-66.269531-242.203125 0l.082031.078126c-65.171875 66.082031-65.1875 172.085937 0 238.179687l-.082031.082031c68.863281 66.230469 169.953125 69.484375 242.203125 0l-.082032-.078125c65.171876-66.085937 65.1875-172.089843 0-238.183593zm39.589844 114.527343h-62.769531c-3.121094-29.101562-13.644531-56.128906-26.621094-79.515625 15.625-7.226562 30.160157-16.898437 43.148438-28.761718 28.828125 29.160156 45.113281 67.289062 46.242187 108.277343zm-145.121094 62.625c2.519532 2.519531 5.828126 3.78125 9.140626 3.78125 3.308593 0 6.621093-1.261719 9.136718-3.78125l18.679688-18.679687c5.042968-5.039063 5.042968-13.242188 0-18.28125l-11.03125-11.03125 5.507812-5.503906h42.480469c1.585937 27.796874-4.53125 54.257812-18.375 79.421874-20.667969-9.519531-43.203125-14.773437-66.460937-15.390624v-21.457032zm-5.375-16.683593 25.648438-25.648438 11.027344 11.03125c1.921875 1.921875 1.921875 5.046875 0 6.96875l-18.675782 18.679688c-1.921874 1.921874-5.046874 1.921874-6.96875 0zm97.683594-160.519532c-12.390625 11.230469-26.285156 20.304688-41.179687 27.09375-19.054688-31.835937-41.847657-56.039062-54.378907-68.171875 34.847657 2.628907 68.324219 16.394531 95.558594 41.078125zm-103.230468-35.691406c11.527343 11.167969 34.226562 35.039062 53.289062 66.507812-16.851562 6.496094-34.832031 10.085938-53.289062 10.601563zm0 86.234375c20.101562-.53125 39.660156-4.535156 57.941406-11.765625 12.601562 22.441406 22.894531 48.261719 26.101562 75.796875h-34.292968c2.484374-6.855469-1.25-14.75-8.757813-16.757813l-40.992187-10.984374zm-9.128907-86.226563v77.101563c-18.453125-.515625-36.425781-4.105469-53.269531-10.59375 19.058594-31.457031 41.742188-55.335937 53.269531-66.507813zm-43.902343 128.257813 5.894531 22.003906h-46.03125c3.210937-27.523437 13.507812-53.347656 26.113281-75.792969 18.277344 7.226563 37.828125 11.226563 57.925781 11.757813v33.84375l-28.167969-7.550781c-9.546874-2.5625-18.300781 6.171875-15.734374 15.738281zm36.230468-133.652344c-12.53125 12.132813-35.324218 36.335938-54.378906 68.171875-14.894531-6.789062-28.792969-15.863281-41.183594-27.09375 26.507813-24.046875 59.84375-38.382812 95.5625-41.078125zm-102.128906 47.378907c12.992188 11.859374 27.523438 21.535156 43.148438 28.761718-12.976563 23.386719-23.5 50.414063-26.621094 79.515625h-62.773438c1.128906-40.988281 17.414063-79.117187 46.246094-108.277343zm-46.246094 117.40625h62.046875c-1.515625 29.25 4.839844 57.03125 19.332031 83.5-12.601562 6.660156-24.394531 14.964843-35.132812 24.773437-28.832031-29.15625-45.117188-67.285156-46.246094-108.273437zm52.8125 114.574218c10.140625-9.1875 21.292969-16.914062 33.167969-23.15625 13.957031 22.660156 33.933594 44.050782 59.847656 64.050782-34.984375-3.296876-67.035156-17.347657-93.015625-40.894532zm103.234375 37.183594c-26.992187-20.097656-47.625-41.609375-61.804687-64.390625 19.253906-8.742187 40.191406-13.605469 61.804687-14.207031zm0-87.722656c-23.261719.613281-45.796875 5.867187-66.460937 15.390625-13.828125-25.132813-19.96875-51.597657-18.375-79.425781h49.273437l12.636719 47.160156c2.261719 8.441406 13.144531 14.109375 22.925781 4.328125zm-7.089843-16.773438c-2.648438 2.648438-7.144532 1.421875-8.109376-2.175781l-20.976562-78.292969c-.964844-3.589844 2.308594-6.910156 5.9375-5.9375 84.703125 22.695313 80.703125 20.597656 81.714844 24.40625.21875.8125.535156 2.898438-1.253906 4.683594zm16.21875 25.898438c21.613281.601562 42.550781 5.46875 61.804687 14.207031-14.183594 22.78125-34.816406 44.292969-61.804687 64.390625zm10.214843 82.308594c25.917969-20 45.890625-41.390626 59.847657-64.050782 11.875 6.242188 23.03125 13.96875 33.167968 23.160156-25.234375 22.929688-57.308594 37.523438-93.015625 40.890626zm99.585938-47.195313c-10.738281-9.804687-22.535157-18.109375-35.132813-24.769531 14.488282-26.464844 20.847656-54.246094 19.332032-83.503906h62.042968c-1.128906 40.988281-17.410156 79.113281-46.242187 108.273437zm0 0"/><path d="m238.957031 0c-131.761719 0-238.957031 107.195312-238.957031 238.957031s107.195312 238.957031 238.957031 238.957031 238.957031-107.195312 238.957031-238.957031-107.195312-238.957031-238.957031-238.957031zm0 468.789062c-126.726562 0-229.828125-103.101562-229.828125-229.832031 0-126.726562 103.101563-229.828125 229.828125-229.828125 126.730469 0 229.832031 103.101563 229.832031 229.828125 0 126.730469-103.101562 229.832031-229.832031 229.832031zm0 0"/></g></svg>