<svg height="476pt" viewBox="0 0 476 476" width="476pt" xmlns="http://www.w3.org/2000/svg"><path d="m472 14v448c0 5.519531-4.480469 10-10 10h-448c-5.519531 0-10-4.480469-10-10v-448c0-5.519531 4.480469-10 10-10h448c5.519531 0 10 4.480469 10 10zm0 0" fill="#d8d6d7"/><path d="m472 14v448c0 5.519531-4.480469 10-10 10h-409c-5.519531 0-10-4.480469-10-10v-448c0-5.519531 4.480469-10 10-10h409c5.519531 0 10 4.480469 10 10zm0 0" fill="#fff"/><path d="m432 228v186c0 5.519531-4.480469 10-10 10h-368c-5.519531 0-10-4.480469-10-10v-186c0-5.519531 4.480469-10 10-10h37c5.519531 0 10-4.480469 10-10v-54c0-5.519531 4.480469-10 10-10h53.5c5.519531 0 10-4.480469 10-10v-34c0-5.519531 4.480469-10 10-10h111c5.519531 0 10 4.480469 10 10v34c0 5.519531 4.480469 10 10 10h53.5c5.519531 0 10 4.480469 10 10v54c0 5.519531 4.480469 10 10 10h33c5.519531 0 10 4.480469 10 10zm0 0" fill="#40c4df"/><path d="m119.5 94h-73c-5.523438 0-10-4.476562-10-10v-22c0-5.523438 4.476562-10 10-10h73c5.523438 0 10 4.476562 10 10v22c0 5.523438-4.476562 10-10 10zm0 0" fill="#40c4df"/><path d="m429.5 94h-73c-5.523438 0-10-4.476562-10-10v-22c0-5.523438 4.476562-10 10-10h73c5.523438 0 10 4.476562 10 10v22c0 5.523438-4.476562 10-10 10zm0 0" fill="#40c4df"/><path d="m99.5 382h-15c-5.523438 0-10-4.476562-10-10v-99c0-5.523438 4.476562-10 10-10h15c5.523438 0 10 4.476562 10 10v99c0 5.523438-4.476562 10-10 10zm0 0" fill="#1c868e"/><path d="m172.5 382h-15c-5.523438 0-10-4.476562-10-10v-99c0-5.523438 4.476562-10 10-10h15c5.523438 0 10 4.476562 10 10v99c0 5.523438-4.476562 10-10 10zm0 0" fill="#1c868e"/><path d="m245.5 382h-15c-5.523438 0-10-4.476562-10-10v-99c0-5.523438 4.476562-10 10-10h15c5.523438 0 10 4.476562 10 10v99c0 5.523438-4.476562 10-10 10zm0 0" fill="#1c868e"/><path d="m318.5 382h-15c-5.523438 0-10-4.476562-10-10v-99c0-5.523438 4.476562-10 10-10h15c5.523438 0 10 4.476562 10 10v99c0 5.523438-4.476562 10-10 10zm0 0" fill="#1c868e"/><path d="m391.5 382h-15c-5.523438 0-10-4.476562-10-10v-99c0-5.523438 4.476562-10 10-10h15c5.523438 0 10 4.476562 10 10v99c0 5.523438-4.476562 10-10 10zm0 0" fill="#1c868e"/><g fill="#491352"><path d="m462 0h-448c-7.71875 0-14 6.28125-14 14v448c0 7.71875 6.28125 14 14 14h448c7.71875 0 14-6.28125 14-14v-448c0-7.71875-6.28125-14-14-14zm6 462c0 3.308594-2.691406 6-6 6h-448c-3.308594 0-6-2.691406-6-6v-448c0-3.308594 2.691406-6 6-6h448c3.308594 0 6 2.691406 6 6zm0 0"/><path d="m422 214h-33c-3.308594 0-6-2.691406-6-6v-54c0-7.71875-6.28125-14-14-14h-53.5c-3.308594 0-6-2.691406-6-6v-34c0-7.71875-6.28125-14-14-14h-111c-7.71875 0-14 6.28125-14 14v34c0 3.308594-2.691406 6-6 6h-53.5c-7.71875 0-14 6.28125-14 14v54c0 3.308594-2.691406 6-6 6h-37c-7.71875 0-14 6.28125-14 14v186c0 7.71875 6.28125 14 14 14h368c7.71875 0 14-6.28125 14-14v-186c0-7.71875-6.28125-14-14-14zm6 200c0 3.308594-2.691406 6-6 6h-368c-3.308594 0-6-2.691406-6-6v-186c0-3.308594 2.691406-6 6-6h37c7.71875 0 14-6.28125 14-14v-54c0-3.308594 2.691406-6 6-6h53.5c7.71875 0 14-6.28125 14-14v-34c0-3.308594 2.691406-6 6-6h111c3.308594 0 6 2.691406 6 6v34c0 7.71875 6.28125 14 14 14h53.5c3.308594 0 6 2.691406 6 6v54c0 7.71875 6.28125 14 14 14h33c3.308594 0 6 2.691406 6 6zm0 0"/><path d="m119.5 98c7.71875 0 14-6.28125 14-14v-22c0-7.71875-6.28125-14-14-14h-73c-7.71875 0-14 6.28125-14 14v22c0 7.71875 6.28125 14 14 14zm-79-14v-22c0-3.308594 2.691406-6 6-6h73c3.308594 0 6 2.691406 6 6v22c0 3.308594-2.691406 6-6 6h-73c-3.308594 0-6-2.691406-6-6zm0 0"/><path d="m429.5 48h-73c-7.71875 0-14 6.28125-14 14v22c0 7.71875 6.28125 14 14 14h73c7.71875 0 14-6.28125 14-14v-22c0-7.71875-6.28125-14-14-14zm6 36c0 3.308594-2.691406 6-6 6h-73c-3.308594 0-6-2.691406-6-6v-22c0-3.308594 2.691406-6 6-6h73c3.308594 0 6 2.691406 6 6zm0 0"/><path d="m99.5 259h-15c-7.71875 0-14 6.28125-14 14v99c0 7.71875 6.28125 14 14 14h15c7.71875 0 14-6.28125 14-14v-99c0-7.71875-6.28125-14-14-14zm6 113c0 3.308594-2.691406 6-6 6h-15c-3.308594 0-6-2.691406-6-6v-99c0-3.308594 2.691406-6 6-6h15c3.308594 0 6 2.691406 6 6zm0 0"/><path d="m172.5 259h-15c-7.71875 0-14 6.28125-14 14v99c0 7.71875 6.28125 14 14 14h15c7.71875 0 14-6.28125 14-14v-99c0-7.71875-6.28125-14-14-14zm6 113c0 3.308594-2.691406 6-6 6h-15c-3.308594 0-6-2.691406-6-6v-99c0-3.308594 2.691406-6 6-6h15c3.308594 0 6 2.691406 6 6zm0 0"/><path d="m245.5 259h-15c-7.71875 0-14 6.28125-14 14v99c0 7.71875 6.28125 14 14 14h15c7.71875 0 14-6.28125 14-14v-99c0-7.71875-6.28125-14-14-14zm6 113c0 3.308594-2.691406 6-6 6h-15c-3.308594 0-6-2.691406-6-6v-99c0-3.308594 2.691406-6 6-6h15c3.308594 0 6 2.691406 6 6zm0 0"/><path d="m318.5 259h-15c-7.71875 0-14 6.28125-14 14v99c0 7.71875 6.28125 14 14 14h15c7.71875 0 14-6.28125 14-14v-99c0-7.71875-6.28125-14-14-14zm6 113c0 3.308594-2.691406 6-6 6h-15c-3.308594 0-6-2.691406-6-6v-99c0-3.308594 2.691406-6 6-6h15c3.308594 0 6 2.691406 6 6zm0 0"/><path d="m391.5 259h-15c-7.71875 0-14 6.28125-14 14v99c0 7.71875 6.28125 14 14 14h15c7.71875 0 14-6.28125 14-14v-99c0-7.71875-6.28125-14-14-14zm6 113c0 3.308594-2.691406 6-6 6h-15c-3.308594 0-6-2.691406-6-6v-99c0-3.308594 2.691406-6 6-6h15c3.308594 0 6 2.691406 6 6zm0 0"/></g></svg>