<svg height="506pt" viewBox="-51 0 506 506.01457" width="506pt" xmlns="http://www.w3.org/2000/svg"><path d="m400.375 114.207031v379.480469c0 5.519531-4.460938 10-10 10h-376.359375c-5.539063 0-10-4.480469-10-10v-478c0-5.519531 4.460937-10 10-10h279.378906c2.679688 0 5.261719 1.0625 7.140625 2.980469l96.980469 98.519531c1.839844 1.878906 2.859375 4.402344 2.859375 7.019531zm0 0" fill="#1c868e"/><path d="m400.375 114.207031v379.480469c0 5.519531-4.460938 10-10 10h-345.941406c-5.519532 0-10-4.480469-10-10v-478c0-5.519531 4.480468-10 10-10h248.960937c2.679688 0 5.261719 1.0625 7.140625 2.980469l96.980469 98.519531c1.839844 1.878906 2.859375 4.402344 2.859375 7.019531zm0 0" fill="#40c4df"/><path d="m4.007812 178.136719h396.375v245.773437h-396.375zm0 0" fill="#fff"/><path d="m4.015625 178.148438h30.417969v245.761718h-30.417969zm0 0" fill="#d8d6d7"/><path d="m84.589844 253.140625h-21.894532v117.605469h60.429688v-19.210938h-38.535156zm0 0" fill="#40c4df"/><path d="m191.777344 251.875c-33.65625 0-59.039063 25.789062-59.039063 59.988281s25.382813 59.984375 59.039063 59.984375 59.039062-25.785156 59.039062-59.984375-25.382812-59.988281-59.039062-59.988281zm0 99.976562c-22.03125 0-36.828125-16.070312-36.828125-39.988281s14.796875-39.988281 36.828125-39.988281 36.828125 16.070312 36.828125 39.988281-14.796875 39.988281-36.828125 39.988281zm0 0" fill="#40c4df"/><path d="m317.949219 303.839844v19.207031h43.320312c-7.820312 40.769531-71.179687 38.089844-71.179687-11.183594 0-44.054687 52.136718-52.953125 67.921875-19.296875h25.097656c-25.660156-66.140625-115.230469-46.445312-115.230469 19.296875 0 34.105469 25.382813 59.828125 59.039063 59.828125 30.644531 0 54.933593-22.160156 57.757812-52.691406l.015625-15.160156zm0 0" fill="#40c4df"/><path d="m33 329.902344c-9.207031 0-16.417969 7.210937-16.417969 16.417968 0 9.203126 7.210938 16.414063 16.417969 16.414063 8.867188 0 16.078125-7.363281 16.078125-16.414063 0-9.054687-7.210937-16.417968-16.078125-16.417968zm0 0" fill="#40c4df"/><g fill="#491352"><path d="m400.359375 102.722656c-104.640625-106.316406-98.855469-102.707031-106.957031-102.707031h-279.394532c-7.71875 0-13.9999995 6.277344-13.9999995 14v478c0 7.71875 6.2812495 14 13.9999995 14h376.375c7.71875 0 14-6.28125 14-14 0-16.128906 0-362.933594 0-379.472656 0-3.695313-1.425781-7.183594-4.023437-9.820313zm-3.976563 389.292969c0 3.308594-2.691406 6-6 6h-376.375c-3.308593 0-6-2.691406-6-6v-65.769531h388.375zm0-73.773437h-388.375v-237.769532h388.375zm0-245.769532h-388.375v-158.457031c0-3.308594 2.691407-6 6-6 298.28125 0 281.046876-.875 283.671876 1.789063l96.980468 98.53125c1.109375 1.128906 1.722656 2.625 1.722656 4.207031zm0 0"/><path d="m370.15625 135.347656h-335.921875c-2.210937 0-4 1.792969-4 4 0 2.207032 1.789063 4 4 4h335.921875c2.210938 0 4-1.792968 4-4 0-2.207031-1.789062-4-4-4zm0 0"/><path d="m34.234375 106.222656h308.960937c2.207032 0 4-1.789062 4-4 0-2.207031-1.792968-4-4-4h-308.960937c-2.210937 0-4 1.792969-4 4 0 2.210938 1.789063 4 4 4zm0 0"/><path d="m62.695312 374.746094h60.429688c2.207031 0 4-1.792969 4-4v-19.210938c0-2.207031-1.792969-4-4-4h-34.535156v-94.394531c0-2.207031-1.792969-4-4-4h-21.894532c-2.207031 0-4 1.792969-4 4v117.605469c0 2.207031 1.792969 4 4 4zm4-117.605469h13.894532v94.394531c0 2.210938 1.792968 4 4 4h34.539062v11.210938h-52.433594zm0 0"/><path d="m232.605469 311.863281c0-58.972656-81.65625-59-81.65625 0 0 58.972657 81.65625 59 81.65625 0zm-40.828125-35.988281c19.945312 0 32.828125 14.125 32.828125 35.988281 0 21.859375-12.882813 35.988281-32.828125 35.988281-19.945313 0-32.828125-14.128906-32.828125-35.988281 0-21.863281 12.882812-35.988281 32.828125-35.988281zm0 0"/><path d="m191.777344 375.847656c35.9375 0 63.039062-27.507812 63.039062-63.984375 0-36.480469-27.101562-63.988281-63.039062-63.988281s-63.039063 27.507812-63.039063 63.988281c0 36.476563 27.101563 63.984375 63.039063 63.984375zm0-119.96875c31.375 0 55.039062 24.066406 55.039062 55.984375s-23.664062 55.988281-55.039062 55.988281-55.039063-24.070312-55.039063-55.988281c0-31.914062 23.664063-55.984375 55.039063-55.984375zm0 0"/><path d="m326.917969 375.691406c38.984375 0 61.761719-32.839844 61.761719-56.6875l.015624-15.164062c.003907-2.210938-1.789062-4.003906-4-4.003906h-66.746093c-2.210938 0-4 1.792968-4 4v19.207031c0 2.210937 1.789062 4 4 4h38.140625c-5.28125 15.488281-20.085938 21.417969-32.667969 20.222656-37.96875-3.609375-39.394531-62.496094-4.019531-70.382813 12.09375-2.691406 27.601562 1.632813 34.988281 17.378907 1.453125 3.097656 2.246094 2.300781 28.71875 2.300781 2.8125 0 4.742187-2.832031 3.730469-5.445312-14.875-38.339844-47.824219-46.769532-71.515625-42.328126-74.515625 13.953126-65.824219 126.902344 11.59375 126.902344zm-10.121094-119.035156c22.46875-4.207031 47.445313 5.234375 60.230469 31.910156h-16.550782c-9.660156-17.878906-28.21875-22.75-42.816406-19.488281-43.984375 9.800781-42.070312 81.679687 5.003906 86.15625 17.808594 1.695313 38.144532-8.558594 42.535157-31.433594.222656-1.171875-.085938-2.382812-.847657-3.300781-1.652343-2-.136718-1.453125-42.40625-1.453125v-11.207031h58.742188l-.011719 10.972656c-2.707031 28.335938-25.289062 48.878906-53.757812 48.878906-67.613281 0-75.15625-98.863281-10.121094-111.035156zm0 0"/><path d="m33 366.734375c11.074219 0 20.078125-9.15625 20.078125-20.414063 0-11.257812-9.003906-20.417968-20.078125-20.417968-11.449219 0-20.417969 8.96875-20.417969 20.417968 0 11.445313 8.972657 20.414063 20.417969 20.414063zm0-32.832031c6.660156 0 12.078125 5.570312 12.078125 12.417968 0 6.84375-5.417969 12.414063-12.078125 12.414063-6.960938 0-12.417969-5.453125-12.417969-12.414063 0-6.964843 5.457031-12.417968 12.417969-12.417968zm0 0"/></g></svg>