<svg height="506pt" viewBox="-50 0 505 506" width="506pt" xmlns="http://www.w3.org/2000/svg"><path d="m400.867188 112.527344v379.480468c0 5.519532-4.460938 10-10 10h-376.359376c-5.539062 0-10-4.480468-10-10v-478c0-5.523437 4.460938-10 10-10h279.378907c2.679687 0 5.261719 1.058594 7.140625 2.976563l96.980468 98.523437c1.839844 1.878907 2.859376 4.398438 2.859376 7.019532zm0 0" fill="#1c868e"/><path d="m400.867188 112.527344v379.480468c0 5.519532-4.460938 10-10 10h-345.9375c-5.523438 0-10-4.480468-10-10v-478c0-5.523437 4.476562-10 10-10h248.957031c2.679687 0 5.261719 1.058594 7.140625 2.976563l96.980468 98.523437c1.839844 1.878907 2.859376 4.398438 2.859376 7.019532zm0 0" fill="#40c4df"/><path d="m4.5 176.457031h396.375v245.773438h-396.375zm0 0" fill="#fff"/><path d="m4.507812 176.464844h30.421876v245.761718h-30.421876zm0 0" fill="#d8d6d7"/><path d="m37.328125 331.5625c-9.207031 0-16.417969 7.210938-16.417969 16.417969s7.210938 16.414062 16.417969 16.414062c8.867187 0 16.078125-7.363281 16.078125-16.414062s-7.210938-16.417969-16.078125-16.417969zm0 0" fill="#40c4df"/><path d="m111.875 234.292969h-43.800781v129.09375h27.292969v-48.886719h16.511718c34.273438 0 46.484375-20.628906 46.484375-39.9375-.003906-19.464844-12.214843-40.269531-46.488281-40.269531zm0 55.605469h-16.511719v-31.007813h16.511719c16.625 0 18.863281 7.921875 18.863281 15.671875 0 7.140625-2.144531 15.335938-18.863281 15.335938zm0 0" fill="#40c4df"/><path d="m249.300781 285.699219h-47.636719v-51.40625h-27.289062v129.09375h27.289062v-53.085938h47.636719v53.085938h27.289063v-129.09375h-27.289063zm0 0" fill="#40c4df"/><path d="m337.976562 234.292969h-43.796874v129.09375h27.289062v-48.886719h16.511719c34.277343 0 46.488281-20.628906 46.488281-39.9375-.003906-19.464844-12.214844-40.269531-46.492188-40.269531zm-5.378906 55.605469h-16.511718v-31.007813h16.511718c16.621094 0 18.863282 7.921875 18.863282 15.671875-.003907 7.140625-2.148438 15.335938-18.863282 15.335938zm0 0" fill="#40c4df"/><g fill="#491352"><path d="m400.855469 102.710938-96.980469-98.53125c-2.617188-2.65625-6.253906-4.179688-9.976562-4.179688h-279.398438c-7.71875 0-14 6.28125-14 14v478c0 7.71875 6.28125 14 14 14h376.375c7.71875 0 14-6.28125 14-14 0-16.128906 0-362.933594 0-379.46875 0-3.699219-1.425781-7.1875-4.019531-9.820312zm-3.980469 389.289062c0 3.308594-2.691406 6-6 6h-376.375c-3.308594 0-6-2.691406-6-6v-65.769531h388.375zm0-73.769531h-388.375v-237.773438h388.375zm0-245.773438h-388.375v-158.457031c0-3.308594 2.691406-6 6-6h279.394531c1.597657 0 3.15625.652344 4.277344 1.792969l96.976563 98.527343c1.117187 1.132813 1.726562 2.625 1.726562 4.210938zm0 0"/><path d="m37.328125 368.394531c11.070313 0 20.078125-9.15625 20.078125-20.414062 0-11.257813-9.007812-20.417969-20.078125-20.417969-11.449219 0-20.417969 8.96875-20.417969 20.417969s8.96875 20.414062 20.417969 20.414062zm0-32.832031c6.660156 0 12.078125 5.570312 12.078125 12.417969 0 6.84375-5.417969 12.414062-12.078125 12.414062-16.457031 0-16.464844-24.832031 0-24.832031zm0 0"/><path d="m68.074219 367.386719h27.289062c2.207031 0 4-1.789063 4-4v-44.886719h12.511719c37.265625 0 50.484375-23.667969 50.484375-43.9375 0-20.421875-13.21875-44.269531-50.484375-44.269531h-43.800781c-2.207031 0-4 1.792969-4 4v129.09375c0 2.210937 1.792969 4 4 4zm4-129.09375h39.800781c39.417969 0 42.484375 27.761719 42.484375 36.269531 0 8.429688-3.066406 35.9375-42.484375 35.9375h-16.511719c-2.210937 0-4 1.792969-4 4v44.886719h-19.292969v-121.09375zm0 0"/><path d="m95.363281 293.898438h16.511719c15.171875 0 22.863281-6.503907 22.863281-19.335938 0-13.238281-7.476562-19.671875-22.863281-19.671875h-16.511719c-2.207031 0-4 1.792969-4 4v31.007813c0 2.210937 1.789063 4 4 4zm4-31.007813h12.511719c13.726562 0 14.863281 5.523437 14.863281 11.671875 0 5.738281-1.144531 11.335938-14.863281 11.335938h-12.511719zm0 0"/><path d="m174.375 367.386719h27.289062c2.210938 0 4-1.789063 4-4v-49.085938h39.636719v49.085938c0 2.210937 1.792969 4 4 4h27.292969c2.207031 0 4-1.789063 4-4v-129.09375c0-2.207031-1.792969-4-4-4h-27.292969c-2.207031 0-4 1.792969-4 4v47.40625h-39.636719v-47.40625c0-2.207031-1.789062-4-4-4h-27.289062c-2.207031 0-4 1.792969-4 4v129.09375c0 2.210937 1.789062 4 4 4zm4-129.09375h19.289062v47.40625c0 2.207031 1.792969 4 4 4h47.636719c2.210938 0 4-1.792969 4-4v-47.40625h19.292969v121.09375h-19.292969v-49.085938c0-2.207031-1.789062-4-4-4h-47.636719c-2.207031 0-4 1.792969-4 4v49.085938h-19.289062zm0 0"/><path d="m294.175781 367.386719h27.289063c2.210937 0 4-1.789063 4-4v-44.886719h12.511718c37.265626 0 50.488282-23.667969 50.488282-43.9375 0-20.421875-13.222656-44.269531-50.488282-44.269531h-43.796874c-2.210938 0-4 1.792969-4 4v129.09375c-.003907 2.210937 1.789062 4 3.996093 4zm4-129.09375h39.800781c39.421876 0 42.488282 27.761719 42.488282 36.269531 0 8.429688-3.066406 35.9375-42.488282 35.9375h-16.511718c-2.207032 0-4 1.792969-4 4v44.886719h-19.289063zm0 0"/><path d="m355.457031 274.5625c0-13.238281-7.476562-19.671875-22.863281-19.671875h-16.511719c-2.207031 0-4 1.792969-4 4v31.007813c0 2.210937 1.792969 4 4 4h16.511719c15.171875 0 22.863281-6.503907 22.863281-19.335938zm-35.375-11.671875h12.511719c13.726562 0 14.863281 5.523437 14.863281 11.671875 0 5.738281-1.148437 11.335938-14.863281 11.335938h-12.511719zm0 0"/></g></svg>