<svg height="508pt" viewBox="-5 0 508 508.998" width="508pt" xmlns="http://www.w3.org/2000/svg"><path d="m483.9375 329.792969h-469.4375c-5.523438 0-10-4.476563-10-10v-305.792969c0-5.523438 4.476562-10 10-10h469.4375c5.523438 0 10 4.476562 10 10v305.792969c0 5.523437-4.476562 10-10 10zm0 0" fill="#d8d6d7"/><path d="m467.9375 40.5v253.800781c0 5.519531-4.476562 10-10 10h-417.4375c-5.519531 0-10-4.480469-10-10v-253.800781c0-5.519531 4.480469-10 10-10h417.4375c5.523438 0 10 4.480469 10 10zm0 0" fill="#56c1b3"/><path d="m467.9375 40v253.800781c0 5.519531-4.476562 10-10 10h-373.9375c-5.523438 0-10-4.480469-10-10v-253.800781c0-5.523438 4.476562-10 10-10h373.9375c5.523438 0 10 4.476562 10 10zm0 0" fill="#7befe4"/><path d="m371.484375 281.960938h-244.53125c-5.519531 0-10-4.480469-10-10v-210.125c0-5.523438 4.480469-10 10-10h244.527344c5.523437 0 10 4.476562 10 10v210.125c.003906 5.519531-4.476563 10-9.996094 10zm0 0" fill="#f85252"/><path d="m381.480469 89.5v182.460938c0 5.519531-4.480469 10-10 10h-244.519531c-5.523438 0-10-4.480469-10-10v-210.121094c0-5.519532 4.476562-10 10-10h59.558593l27.320313 33.941406c1.898437 2.359375 4.757812 3.71875 7.777344 3.71875zm0 0" fill="#fff"/><path d="m339.433594 71c0 4.078125-3.304688 7.386719-7.382813 7.386719-4.082031 0-7.386719-3.308594-7.386719-7.386719s3.304688-7.386719 7.386719-7.386719c4.078125 0 7.382813 3.308594 7.382813 7.386719zm0 0" fill="#fff"/><path d="m366.46875 71c0 4.078125-3.304688 7.386719-7.386719 7.386719-4.078125 0-7.386719-3.308594-7.386719-7.386719s3.308594-7.386719 7.386719-7.386719c4.082031 0 7.386719 3.308594 7.386719 7.386719zm0 0" fill="#fff"/><path d="m221.558594 329.800781h55.320312v131.859375h-55.320312zm0 0" fill="#d8d6d7"/><path d="m376.558594 471.660156v23.339844c0 5.519531-4.480469 10-10 10h-234.679688c-5.519531 0-10-4.480469-10-10v-23.339844c0-5.519531 4.480469-10 10-10h234.679688c5.519531 0 10 4.480469 10 10zm0 0" fill="#d8d6d7"/><path d="m255.398438 329.800781h21.480468v131.859375h-21.480468zm0 0" fill="#fff"/><path d="m376.558594 471.660156v23.339844c0 5.519531-4.480469 10-10 10h-202.679688c-5.519531 0-10-4.480469-10-10v-23.339844c0-5.519531 4.480469-10 10-10h202.679688c5.519531 0 10 4.480469 10 10zm0 0" fill="#fff"/><g fill="#491352"><path d="m332.050781 59.613281c-6.28125 0-11.386719 5.109375-11.386719 11.386719s5.105469 11.386719 11.386719 11.386719c6.277344 0 11.382813-5.109375 11.382813-11.386719s-5.105469-11.386719-11.382813-11.386719zm0 14.773438c-1.871093 0-3.386719-1.519531-3.386719-3.386719s1.515626-3.386719 3.386719-3.386719c1.867188 0 3.382813 1.519531 3.382813 3.386719s-1.515625 3.386719-3.382813 3.386719zm0 0"/><path d="m359.082031 59.613281c-6.277343 0-11.386719 5.109375-11.386719 11.386719s5.109376 11.386719 11.386719 11.386719c6.277344 0 11.386719-5.109375 11.386719-11.386719s-5.109375-11.386719-11.386719-11.386719zm0 14.773438c-1.867187 0-3.386719-1.519531-3.386719-3.386719s1.519532-3.386719 3.386719-3.386719c1.867188 0 3.386719 1.519531 3.386719 3.386719s-1.519531 3.386719-3.386719 3.386719zm0 0"/><path d="m483.9375 0h-469.4375c-7.722656 0-14 6.28125-14 14v305.792969c0 7.71875 6.277344 14 14 14h203.058594v123.863281h-85.671875c-7.722657 0-14 6.28125-14 14v23.339844c0 7.722656 6.277343 14 14 14h234.664062c7.71875 0 14-6.277344 14-14v-23.339844c0-7.71875-6.28125-14-14-14h-85.671875v-123.863281h203.058594c7.722656 0 14-6.28125 14-14v-305.792969c0-7.71875-6.277344-14-14-14zm-117.382812 465.65625c3.304687 0 6 2.695312 6 6v23.34375c0 3.308594-2.695313 6-6 6h-234.667969c-3.308594 0-6-2.691406-6-6v-23.34375c0-3.304688 2.691406-6 6-6h89.640625c.011718 0 .023437.003906.03125.003906h55.320312c.011719 0 .019532-.003906.03125-.003906zm-140.996094-8v-123.863281h47.320312v123.863281zm264.378906-137.863281c0 3.308593-2.691406 6-6 6h-469.4375c-3.308594 0-6-2.691407-6-6v-305.792969c0-3.308594 2.691406-6 6-6h469.4375c3.308594 0 6 2.691406 6 6zm0 0"/><path d="m457.9375 26h-417.4375c-7.722656 0-14 6.28125-14 14v253.792969c0 7.71875 6.277344 14 14 14h417.4375c7.722656 0 14-6.28125 14-14v-253.792969c0-7.71875-6.277344-14-14-14zm6 267.792969c0 3.308593-2.691406 6-6 6h-417.4375c-3.308594 0-6-2.691407-6-6v-253.792969c0-3.308594 2.691406-6 6-6h417.4375c3.308594 0 6 2.691406 6 6zm0 0"/><path d="m371.484375 47.835938h-244.53125c-7.71875 0-14 6.277343-14 14v210.125c0 7.71875 6.28125 14 14 14h244.53125c7.71875 0 14-6.28125 14-14v-210.125c0-7.722657-6.28125-14-14-14zm6 224.125c0 3.308593-2.695313 6-6 6h-244.53125c-3.304687 0-6-2.691407-6-6v-210.125c0-3.308594 2.695313-6 6-6h57.644531l26.125 32.453124c2.671875 3.316407 6.644532 5.21875 10.90625 5.21875h155.855469zm0-186.453126h-155.855469c-1.828125 0-3.53125-.816406-4.675781-2.238281l-22.085937-27.4375h176.617187c3.304687 0 6 2.691407 6 6zm0 0"/><path d="m182.792969 75.5c0-2.207031-1.792969-4-4-4h-36.992188c-2.210937 0-4 1.792969-4 4s1.789063 4 4 4h36.992188c2.207031 0 4-1.792969 4-4zm0 0"/><path d="m178.21875 125.164062v77.667969c0 7.71875 6.28125 14 14 14h25.339844v16.664063c0 7.722656 6.28125 14 14 14h77.667968c7.71875 0 14-6.277344 14-14v-77.660156c0-7.722657-6.28125-14-14-14h-25.339843v-16.667969c0-7.71875-6.28125-14-14-14h-77.667969c-7.71875-.003907-14 6.28125-14 13.996093zm105.667969 77.671876v-53h25.339843c3.304688 0 6 2.691406 6 6v77.664062c0 3.308594-2.695312 6-6 6h-77.667968c-3.308594 0-6-2.691406-6-6v-16.664062h44.328125c7.71875 0 14-6.285157 14-14zm-58.328125 6v-53c0-3.308594 2.691406-6 6-6h44.328125v53c0 3.304687-2.691407 6-6 6zm50.328125-83.671876v16.667969h-44.328125c-7.71875 0-14 6.28125-14 14v53h-25.339844c-3.308594 0-6-2.691406-6-6v-77.667969c0-3.304687 2.691406-6 6-6h77.667969c3.308593 0 6 2.695313 6 6zm0 0"/></g></svg>