<svg height="502pt" viewBox="0 -76 502.418 502" width="502pt" xmlns="http://www.w3.org/2000/svg"><path d="m454.289062 39v248.800781h-406.160156v-248.800781c0-17.742188 13.277344-32.402344 30.460938-34.519531 1.417968-.179688 2.878906-.28125 4.339844-.28125h336.558593c19.21875 0 34.800781 15.578125 34.800781 34.800781zm0 0" fill="#1c868e"/><path d="m454.289062 39v248.800781h-375.699218v-283.320312c1.417968-.179688 2.878906-.28125 4.339844-.28125h336.558593c19.21875 0 34.800781 15.578125 34.800781 34.800781zm0 0" fill="#40c4df"/><path d="m498.40625 299.9375v9.339844c0 20.121094-16.296875 36.441406-36.417969 36.441406h-421.558593c-20.121094 0-36.421876-16.320312-36.421876-36.441406v-9.339844c0-6.699219 5.441407-12.136719 12.140626-12.136719h470.121093c6.699219 0 12.136719 5.4375 12.136719 12.136719zm0 0" fill="#56c1b3"/><path d="m498.40625 299.9375v9.339844c0 20.121094-16.296875 36.441406-36.417969 36.441406h-391.101562c-20.117188 0-36.417969-16.320312-36.417969-36.441406v-9.339844c0-6.699219 5.4375-12.136719 12.140625-12.136719h439.660156c6.699219 0 12.136719 5.4375 12.136719 12.136719zm0 0" fill="#7befe4"/><path d="m307.46875 287.800781v10.21875c0 10.34375-8.402344 18.746094-18.746094 18.746094h-75.03125c-10.34375 0-18.746094-8.402344-18.746094-18.746094v-10.21875zm0 0" fill="#56c1b3"/><path d="m432.707031 35.800781v252h-363v-252c0-5.140625 3.882813-9.382812 8.882813-9.921875.359375-.058594.738281-.078125 1.117187-.078125h343c5.519531 0 10 4.476563 10 10zm0 0" fill="#d8d6d7"/><path d="m432.707031 35.800781v252h-332.539062v-262h322.539062c5.519531 0 10 4.476563 10 10zm0 0" fill="#fff"/><path d="m454.289062 39v248.800781h-21.582031v-252c0-5.523437-4.480469-10-10-10h-343c-.378906 0-.757812.019531-1.117187.078125v-21.398437c1.417968-.179688 2.878906-.28125 4.339844-.28125h336.558593c19.21875 0 34.800781 15.578125 34.800781 34.800781zm0 0" fill="#40c4df"/><path d="m373.472656 260.992188h-244.527344c-5.523437 0-10-4.480469-10-10v-188.398438c0-5.519531 4.476563-10 10-10h244.523438c5.523438 0 10 4.480469 10 10v188.398438c.003906 5.523437-4.476562 10-9.996094 10zm0 0" fill="#f85252"/><path d="m373.472656 260.992188h-244.527344c-5.523437 0-10-4.480469-10-10v-188.398438c0-5.519531 4.476563-10 10-10h59.558594l27.320313 33.945312c1.898437 2.359376 4.761719 3.730469 7.789062 3.730469h159.855469v160.722657c.003906 5.523437-4.476562 10-9.996094 10zm0 0" fill="#40c4df"/><path d="m341.425781 71.761719c0 4.078125-3.308593 7.386719-7.386719 7.386719-4.082031 0-7.386718-3.308594-7.386718-7.386719s3.304687-7.386719 7.386718-7.386719c4.078126 0 7.386719 3.308594 7.386719 7.386719zm0 0" fill="#fff"/><path d="m368.457031 71.761719c0 4.078125-3.304687 7.386719-7.386719 7.386719-4.078124 0-7.382812-3.308594-7.382812-7.386719s3.304688-7.386719 7.382812-7.386719c4.082032 0 7.386719 3.308594 7.386719 7.386719zm0 0" fill="#fff"/><path d="m165.804688 202.902344c-1.9375 0-3.878907-.738282-5.359376-2.21875l-19.96875-19.96875c-1.425781-1.421875-2.222656-3.351563-2.222656-5.363282 0-2.011718.800782-3.9375 2.222656-5.359374l20.757813-20.757813c2.960937-2.960937 7.761719-2.960937 10.722656 0 2.960938 2.960937 2.960938 7.761719 0 10.726563l-15.394531 15.390624 14.605469 14.609376c2.960937 2.960937 2.960937 7.761718 0 10.722656-1.480469 1.480468-3.421875 2.21875-5.363281 2.21875zm0 0" fill="#fff"/><path d="m335.820312 202.902344c-1.9375 0-3.878906-.738282-5.359374-2.21875-2.964844-2.960938-2.964844-7.761719 0-10.722656l15.394531-15.394532-14.605469-14.605468c-2.960938-2.964844-2.960938-7.765626 0-10.726563s7.765625-2.960937 10.722656 0l19.964844 19.96875c2.960938 2.960937 2.960938 7.761719 0 10.722656l-20.753906 20.757813c-1.480469 1.480468-3.421875 2.21875-5.363282 2.21875zm0 0" fill="#fff"/><path d="m267.082031 182.539062h-72.070312c-4.1875 0-7.582031-3.394531-7.582031-7.578124 0-4.1875 3.394531-7.582032 7.582031-7.582032h72.070312c4.1875 0 7.582031 3.394532 7.582031 7.582032 0 4.183593-3.394531 7.578124-7.582031 7.578124zm0 0" fill="#fff"/><path d="m292.046875 201.675781c-.859375 0-1.738281-.148437-2.59375-.457031-3.933594-1.433594-5.964844-5.785156-4.53125-9.71875l13.929687-38.269531c1.429688-3.933594 5.785157-5.964844 9.714844-4.53125 3.9375 1.433593 5.964844 5.785156 4.535156 9.71875l-13.929687 38.265625c-1.117187 3.082031-4.027344 4.992187-7.125 4.992187zm0 0" fill="#fff"/><g fill="#491352"><path d="m486.277344 283.800781h-27.980469v-244.792969c0-21.394531-17.40625-38.796874-38.800781-38.796874h-336.578125c-21.394531 0-38.800781 17.402343-38.800781 38.796874v244.792969h-27.976563c-8.902344 0-16.140625 7.238281-16.140625 16.136719v9.347656c0 22.292969 18.132812 40.425782 40.421875 40.425782h421.574219c22.289062 0 40.421875-18.132813 40.421875-40.425782v-9.347656c-.003907-8.898438-7.242188-16.136719-16.140625-16.136719zm-434.160156-244.792969c0-16.984374 13.816406-30.796874 30.800781-30.796874h336.578125c16.984375 0 30.800781 13.8125 30.800781 30.796874v244.792969h-13.589844v-248.007812c0-7.71875-6.28125-14-14-14h-343c-7.71875 0-14 6.28125-14 14v248.007812h-13.589843zm146.832031 252.792969h104.519531v6.222657c0 8.128906-6.613281 14.746093-14.746094 14.746093h-75.03125c-8.128906 0-14.742187-6.613281-14.742187-14.746093zm229.757812-8.007812h-355v-248c0-3.308594 2.691407-6 6-6h343c3.308594 0 6 2.691406 6 6zm65.707031 25.496093c0 17.878907-14.542968 32.421876-32.421874 32.421876h-421.570313c-17.878906 0-32.425781-14.542969-32.425781-32.421876v-9.347656c0-4.488281 3.652344-8.140625 8.140625-8.140625h174.808593v6.222657c0 12.542968 10.203126 22.746093 22.746094 22.746093h75.03125c12.542969 0 22.742188-10.203125 22.742188-22.746093v-6.222657h174.808594c4.488281 0 8.140624 3.652344 8.140624 8.140625zm0 0"/><path d="m373.472656 48.59375c-28.957031 0-238.617187 0-244.527344 0-7.71875 0-14 6.28125-14 14v188.398438c0 7.71875 6.28125 14 14 14h244.527344c7.71875 0 14-6.28125 14-14 0-23.015626 0-167.527344 0-188.398438 0-7.71875-6.28125-14-14-14zm6 14v23.675781h-155.855468c-1.828126 0-3.53125-.816406-4.675782-2.238281l-22.085937-27.4375h176.617187c3.308594 0 6 2.691406 6 6zm0 188.398438c0 3.308593-2.691406 6-6 6h-244.527344c-3.308593 0-6-2.691407-6-6v-188.398438c0-3.308594 2.691407-6 6-6h57.640626l26.125 32.453125c2.667968 3.316406 6.644531 5.222656 10.90625 5.222656h155.855468zm0 0"/><path d="m184.78125 76.261719c0-2.207031-1.792969-4-4-4h-36.996094c-2.207031 0-4 1.792969-4 4s1.792969 4 4 4h36.996094c2.207031 0 4-1.789063 4-4zm0 0"/><path d="m334.039062 83.148438c6.277344 0 11.386719-5.109376 11.386719-11.386719 0-6.277344-5.109375-11.386719-11.386719-11.386719-6.277343 0-11.386718 5.109375-11.386718 11.386719 0 6.277343 5.109375 11.386719 11.386718 11.386719zm0-14.773438c1.867188 0 3.386719 1.519531 3.386719 3.386719 0 1.867187-1.523437 3.386719-3.386719 3.386719-1.867187 0-3.386718-1.519532-3.386718-3.386719 0-1.867188 1.519531-3.386719 3.386718-3.386719zm0 0"/><path d="m361.070312 83.148438c6.28125 0 11.386719-5.109376 11.386719-11.386719 0-6.277344-5.105469-11.386719-11.386719-11.386719-6.277343 0-11.382812 5.109375-11.382812 11.386719 0 6.277343 5.105469 11.386719 11.382812 11.386719zm0-14.773438c1.871094 0 3.386719 1.519531 3.386719 3.386719 0 1.867187-1.519531 3.386719-3.386719 3.386719-1.863281 0-3.382812-1.519532-3.382812-3.386719 0-1.867188 1.515625-3.386719 3.382812-3.386719zm0 0"/><path d="m174.785156 146.40625c-4.523437-4.523438-11.855468-4.527344-16.378906 0l-20.757812 20.753906c-4.464844 4.460938-4.578126 11.808594 0 16.378906l19.96875 19.96875c4.511718 4.519532 11.84375 4.539063 16.378906 0 4.515625-4.515624 4.515625-11.863281 0-16.378906l-11.78125-11.777344 12.570312-12.566406c4.515625-4.515625 4.515625-11.863281 0-16.378906zm-5.65625 10.722656-15.394531 15.394532c-1.5625 1.566406-1.558594 4.097656 0 5.65625l14.609375 14.605468c1.394531 1.398438 1.394531 3.671875 0 5.070313-1.359375 1.351562-3.714844 1.355469-5.066406 0l-19.96875-19.96875c-1.421875-1.417969-1.375-3.6875 0-5.066407l20.757812-20.753906c1.398438-1.398437 3.667969-1.398437 5.066406 0 1.394532 1.394532 1.394532 3.667969-.003906 5.0625zm0 0"/><path d="m327.632812 203.511719c4.527344 4.527343 11.851563 4.523437 16.378907 0l20.753906-20.757813c4.53125-4.53125 4.527344-11.855468 0-16.378906l-19.964844-19.96875c-4.519531-4.523438-11.855469-4.523438-16.378906 0-4.515625 4.515625-4.515625 11.863281 0 16.378906l11.777344 11.78125-12.566407 12.566406c-4.53125 4.527344-4.527343 11.851563 0 16.378907zm5.65625-10.726563 15.394532-15.390625c1.558594-1.5625 1.558594-4.09375 0-5.65625l-14.609375-14.605469c-1.394531-1.398437-1.394531-3.671874 0-5.070312 1.398437-1.398438 3.667969-1.398438 5.066406 0l19.96875 19.96875c1.398437 1.398438 1.40625 3.660156 0 5.066406l-20.757813 20.753906c-1.355468 1.351563-3.710937 1.351563-5.066406 0-1.402344-1.398437-1.398437-3.664062.003906-5.066406zm0 0"/><path d="m183.429688 174.960938c0 6.382812 5.195312 11.582031 11.582031 11.582031h72.070312c6.386719 0 11.582031-5.195313 11.582031-11.582031 0-6.390626-5.195312-11.585938-11.582031-11.585938h-72.070312c-6.386719 0-11.582031 5.199219-11.582031 11.585938zm87.234374 0c0 1.972656-1.605468 3.582031-3.578124 3.582031h-72.074219c-1.972657 0-3.582031-1.609375-3.582031-3.582031 0-1.976563 1.609374-3.585938 3.582031-3.585938h72.070312c1.976563 0 3.582031 1.609375 3.582031 3.585938zm0 0"/><path d="m288.085938 204.976562c6.074218 2.207032 12.6875-.988281 14.84375-6.921874l13.933593-38.269532c2.179688-6-.925781-12.65625-6.925781-14.84375-6-2.183594-12.65625.898438-14.84375 6.921875l-13.933594 38.269531c-2.179687 6 .925782 12.660157 6.925782 14.84375zm.59375-12.109374 13.933593-38.269532c.671875-1.859375 2.734375-2.816406 4.589844-2.136718 1.855469.675781 2.816406 2.734374 2.140625 4.589843l-13.933594 38.269531c-.648437 1.800782-2.746094 2.8125-4.585937 2.140626-1.855469-.679688-2.816407-2.738282-2.144531-4.59375zm0 0"/></g></svg>