<svg height="495pt" viewBox="0 0 495.77928 495" width="495pt" xmlns="http://www.w3.org/2000/svg"><path d="m482.535156 60.910156-58.960937 86.617188c-1.082031 1.621094-2.621094 2.859375-4.421875 3.601562-3.179688 1.320313-49.058594 20.460938-66.097656 27.558594-3.742188 1.5625-8.0625.699219-10.921876-2.160156-.578124-.578125-1.117187-1.117188-1.640624-1.660156-.660157-.640626-1.257813-1.257813-1.859376-1.839844l-133.878906 133.882812-15.941406-15.941406 133.882812-133.878906c-1.082031-1.101563-2.261718-2.261719-3.542968-3.542969-2.859375-2.859375-3.71875-7.179687-2.160156-10.917969l27.523437-66.039062c.777344-1.839844 2.058594-3.402344 3.71875-4.5l87.679687-57.980469c3.980469-2.621094 9.238282-2.101563 12.601563 1.257813l21.199219 21.203124 11.617187 11.636719c3.402344 3.402344 3.902344 8.722657 1.203125 12.703125zm0 0" fill="#d8d6d7"/><path d="m482.535156 60.910156-58.960937 86.617188c-1.082031 1.621094-2.621094 2.859375-4.421875 3.601562-3.179688 1.320313-49.058594 20.460938-66.097656 27.558594-3.742188 1.5625-8.0625.699219-10.921876-2.160156-.578124-.578125-1.117187-1.117188-1.640624-1.660156l31.121093-74.679688c.878907-2.140625 2.402344-3.960938 4.339844-5.238281l91.582031-60.5625 2.179688 2.183593 11.617187 11.636719c3.402344 3.402344 3.902344 8.722657 1.203125 12.703125zm0 0" fill="#fff"/><path d="m253.375 304.089844-21.882812 21.878906-144.699219 144.699219c-17.039063 17.039062-44.699219 17.039062-61.738281 0-1.960938-1.960938-3.679688-4.058594-5.179688-6.257813-11.660156-17-9.921875-40.402344 5.179688-55.5l166.558593-166.5625c4.859375-4.839844 12.71875-4.839844 17.558594 0l44.203125 44.199219c4.839844 4.839844 4.839844 12.703125 0 17.542969zm0 0" fill="#d73735"/><path d="m231.492188 325.96875-144.699219 144.699219c-17.039063 17.039062-44.699219 17.039062-61.738281 0-1.960938-1.960938-3.679688-4.058594-5.179688-6.257813l166.238281-166.261718c4.859375-4.839844 12.699219-4.839844 17.558594 0zm0 0" fill="#f85252"/><path d="m491.734375 448.449219c0 .917969-.019531 1.820312-.082031 2.738281-.636719 10.222656-4.878906 20.300781-12.71875 28.121094-17.039063 17.058594-44.699219 17.058594-61.738282 0l-292.839843-292.820313c-30.183594 9.359375-63.960938 2.800781-89.042969-19.558593-27.4375-24.460938-36.777344-60.960938-28.039062-93.621094 1.980468-7.441406 11.300781-9.898438 16.742187-4.460938l43.65625 43.660156c12.28125 12.28125 32.183594 12.261719 44.441406 0 12.28125-12.257812 12.300781-32.160156 0-44.4375l-43.660156-43.683593c-5.417969-5.417969-2.980469-14.738281 4.421875-16.71875 31.058594-8.339844 65.558594-.320313 89.917969 24.039062 25.140625 25.140625 32.859375 61.101563 23.160156 92.882813l292.980469 292.980468c8.539062 8.519532 12.800781 19.699219 12.800781 30.878907zm0 0" fill="#1c868e"/><path d="m491.734375 448.449219c0 .917969-.019531 1.820312-.082031 2.738281-16.898438 10.882812-39.679688 8.921875-54.457032-5.878906l-285.386718-285.367188c-4.453125-4.453125-10.839844-6.25-17.019532-5.039062-27.578124 5.402344-57.015624-1.949219-79.476562-21.972656-19.238281-17.160157-29.597656-40.257813-31.019531-63.800782l43.378906 43.382813c12.28125 12.277343 32.183594 12.257812 44.441406 0 12.28125-12.261719 12.300781-32.160157 0-44.441407l-43.660156-43.679687c-5.417969-5.421875-2.980469-14.738281 4.421875-16.71875 31.058594-8.339844 65.558594-.320313 89.917969 24.039063 25.140625 25.140624 32.859375 61.097656 23.160156 92.878906l292.980469 292.980468c8.539062 8.519532 12.800781 19.699219 12.800781 30.878907zm0 0" fill="#40c4df"/><g fill="#491352"><path d="m481.753906 414.742188-189.589844-189.59375 46.46875-46.46875c5.179688 5.179687 6.648438 7.582031 9.78125 6.277343 78.492188-32.714843 75.246094-30.429687 78.46875-35.171875l58.953126-86.632812c3.78125-5.550782 3.074218-13.027344-1.671876-17.777344l-32.832031-32.832031c-4.6875-4.683594-12.097656-5.429688-17.625-1.773438-94.804687 62.699219-90.578125 58.757813-92.882812 64.285157-32.414063 77.773437-31.902344 73.921874-29.238281 76.582031l5.449218 5.449219-46.46875 46.464843-80.105468-80.109375c20.113281-72.394531-46.292969-139.054687-118.628907-119.644531-10.367187 2.785156-13.832031 15.804687-6.210937 23.421875l43.667968 43.667969c10.695313 10.695312 10.695313 28.089843 0 38.789062-10.691406 10.691407-28.089843 10.691407-38.789062 0l-43.660156-43.664062c-7.621094-7.625-20.652344-4.148438-23.4375 6.257812-19.523438 72.96875 48.210937 139.019531 119.796875 118.726563l57.054687 57.050781-158.03125 158.035156c-18.640625 18.632813-18.640625 48.777344 0 67.414063 18.613282 18.617187 48.777344 18.617187 67.394532 0l158.046874-158.042969 166.695313 166.683594c8.996094 9.003906 20.964844 13.96875 33.699219 13.96875 42.101562 0 63.820312-51.25 33.695312-81.363281zm-133.546875-336.613282c1.015625-2.441406-4.714843 1.894532 89.914063-60.691406 2.371094-1.566406 5.542968-1.246094 7.550781.761719l32.832031 32.832031c2.035156 2.035156 2.335938 5.238281.71875 7.621094-63.664062 93.554687-59.230468 87.804687-61.601562 88.792968l-69.8125 29.097657-28.667969-28.667969zm-25.515625 84.613282 10.285156 10.28125-46.46875 46.46875-10.285156-10.285157zm-238.730468 305.097656c-25.0625 25.0625-67.710938 6.960937-67.710938-28.050782 0-10.59375 4.128906-20.554687 11.625-28.050781l158.03125-158.035156 56.097656 56.089844zm364.097656 20.265625c-10.597656 0-20.554688-4.128907-28.042969-11.625-312.605469-312.582031-293.214844-294.945313-296.847656-293.820313-66.253907 20.574219-130.179688-40.515625-112.035157-108.320312 1.1875-4.4375 6.773438-5.949219 10.050782-2.671875l43.660156 43.664062c13.816406 13.8125 36.292969 13.8125 50.101562 0 13.8125-13.8125 13.8125-36.289062 0-50.097656l-43.667968-43.671875c-3.226563-3.226562-1.851563-8.835938 2.628906-10.039062 67.164062-18.027344 128.683594 44.8125 108.214844 111.9375-1.035156 3.394531-18.769532-15.816407 293.980468 296.933593 25.023438 25.027344 6.984376 67.710938-28.042968 67.710938zm0 0"/><path d="m428.40625 428.792969c-8.453125 8.453125-8.453125 22.210937 0 30.664062 13.652344 13.65625 37.019531 3.859375 37.019531-15.332031 0-19.132812-23.328125-29.027344-37.019531-15.332031zm25.011719 25.007812c-5.332031 5.335938-14.015625 5.339844-19.355469 0-8.601562-8.601562-2.457031-23.351562 9.675781-23.351562 12.148438 0 18.277344 14.753906 9.679688 23.351562zm0 0"/></g></svg>