<svg height="484pt" viewBox="-1 0 484 484.29736" width="484pt" xmlns="http://www.w3.org/2000/svg"><path d="m123.277344 260.097656-6.121094 30.582032-47.121094 171.378906c-1.679687 6.101562-5.539062 11.140625-10.597656 14.359375-3.878906 2.480469-8.460938 3.882812-13.320312 3.882812-16.402344 0-28.300782-15.640625-23.921876-31.441406l43.839844-158.179687 8.242188-30.582032zm0 0" fill="#1c868e"/><path d="m123.277344 260.097656-6.121094 30.582032-47.121094 171.378906c-1.679687 6.101562-5.539062 11.140625-10.597656 14.359375-8.761719-5.617188-13.621094-16.539063-10.5625-27.558594l43.820312-158.179687 8.242188-30.582032zm0 0" fill="#40c4df"/><path d="m125.917969 184.417969v106.261719h-68.640625c-29.339844 0-53.121094-23.78125-53.121094-53.121094 0-8.238282 1.878906-16.039063 5.21875-23 2.601562-5.4375 6.121094-10.359375 10.339844-14.578125 9.601562-9.601563 22.882812-15.5625 37.5625-15.5625zm0 0" fill="#d73735"/><path d="m329.238281 109.257812v275.863282c0 7.597656-8.140625 12.417968-14.800781 8.757812l-188.519531-103.199218v-106.261719l189.238281-84.296875c6.621094-2.941406 14.082031 1.898437 14.082031 9.136718zm0 0" fill="#d8d6d7"/><path d="m125.917969 184.417969v60.261719h-68.640625c-21.101563 0-39.320313-12.300782-47.902344-30.121094 2.601562-5.4375 6.121094-10.359375 10.339844-14.578125 9.601562-9.601563 22.882812-15.5625 37.5625-15.5625zm0 0" fill="#f85252"/><path d="m329.238281 109.257812v229.863282c0 7.597656-8.140625 12.417968-14.800781 8.757812l-188.519531-103.199218v-60.261719l189.238281-84.296875c6.621094-2.941406 14.082031 1.898437 14.082031 9.136718zm0 0" fill="#fff"/><path d="m414.441406 85.875c0 13.078125-10.597656 23.675781-23.675781 23.675781-13.074219 0-23.675781-10.597656-23.675781-23.675781 0-13.074219 10.601562-23.675781 23.675781-23.675781 13.078125 0 23.675781 10.601562 23.675781 23.675781zm0 0" fill="#40c4df"/><path d="m478.28125 138.648438c0 13.074218-10.597656 23.675781-23.675781 23.675781-13.074219 0-23.675781-10.601563-23.675781-23.675781 0-13.078126 10.601562-23.675782 23.675781-23.675782 13.078125 0 23.675781 10.597656 23.675781 23.675782zm0 0" fill="#40c4df"/><path d="m478.28125 395.175781c0 13.078125-10.597656 23.675781-23.675781 23.675781-13.074219 0-23.675781-10.597656-23.675781-23.675781 0-13.074219 10.601562-23.675781 23.675781-23.675781 13.078125 0 23.675781 10.601562 23.675781 23.675781zm0 0" fill="#40c4df"/><g fill="#491352"><path d="m368.761719 144.320312c-4.8125-2.207031-8.140625 5.070313-3.335938 7.273438 81.339844 37.296875 82 153.035156.707031 191.0625-4.785156 2.238281-1.398437 9.488281 3.390626 7.246094 87.539062-40.949219 86.644531-165.5-.761719-205.582032zm0 0"/><path d="m356.183594 164.992188c-4.871094-2.054688-7.976563 5.320312-3.105469 7.375 66.164063 27.859374 66.347656 121.355468.554687 149.597656-4.855468 2.082031-1.707031 9.433594 3.15625 7.351562 72.308594-31.039062 72.003907-133.746094-.605468-164.324218zm0 0"/><path d="m343.382812 185.785156c-4.984374-1.769531-7.652343 5.785156-2.664062 7.542969 50.515625 17.828125 50.917969 89.5.410156 107.765625-4.933594 1.785156-2.289062 9.339844 2.71875 7.527344 57.519532-20.800782 57.167969-102.492188-.464844-122.835938zm0 0"/><path d="m333.234375 207.726562v-98.476562c0-10.132812-10.449219-16.90625-19.699219-12.789062l-188.472656 83.964843h-67.785156c-31.503906 0-57.128906 25.628907-57.128906 57.128907 0 29.257812 22.234374 57.125 60.625 57.125l-42.425782 153.109374c-5.085937 18.359376 8.699219 36.507813 27.769532 36.507813 12.933593 0 24.359374-8.707031 27.789062-21.175781l46.296875-168.441406h4.691406l187.621094 102.71875c9.328125 5.105468 20.722656-1.640626 20.722656-12.28125v-98.265626c39.574219-11.382812 39.328125-67.683593-.003906-79.125zm-267.046875 253.273438c-2.476562 9.007812-10.730469 15.296875-20.070312 15.296875-13.765626 0-23.738282-13.097656-20.058594-26.375l43.019531-155.242187h42.824219zm55.726562-174.320312h-64.636718c-27.089844 0-49.128906-22.039063-49.128906-49.125 0-27.089844 22.039062-49.128907 49.128906-49.128907h64.636718zm203.320313 98.4375c0 4.566406-4.871094 7.460937-8.882813 5.261718l-186.4375-102.066406v-101.292969l186.875-83.25c3.996094-1.769531 8.445313 1.136719 8.445313 5.480469v96.683594l-.023437-.003906c.035156 8.632812.023437-13.53125.023437 179.1875zm8.257813-106.773438-.242188-62.207031c28.664062 10.628906 28.925781 51.40625.242188 62.207031zm0 0"/><path d="m416.992188.921875c-2.621094-2.160156-6.550782-.277344-6.550782 3.085937v62.433594c-17.375-17.589844-47.347656-5.160156-47.347656 19.4375 0 15.257813 12.414062 27.671875 27.671875 27.671875 15.261719 0 27.675781-12.414062 27.675781-27.671875v-73.375l55.839844 46.15625v60.554688c-17.378906-17.59375-47.347656-5.15625-47.347656 19.433594 0 15.257812 12.414062 27.675781 27.671875 27.675781 15.261719 0 27.675781-12.417969 27.675781-27.675781v-81.867188c0-2.695312 3.910156 1.347656-65.289062-55.859375zm-26.226563 104.628906c-10.847656 0-19.671875-8.824219-19.671875-19.671875 0-10.851562 8.824219-19.675781 19.671875-19.675781 10.851563 0 19.675781 8.824219 19.675781 19.675781 0 10.847656-8.824218 19.671875-19.675781 19.671875zm63.839844 52.773438c-10.847657 0-19.671875-8.828125-19.671875-19.675781 0-10.847657 8.824218-19.675782 19.671875-19.675782 10.851562 0 19.675781 8.828125 19.675781 19.675782 0 10.847656-8.824219 19.675781-19.675781 19.675781zm0 0"/><path d="m474.28125 313.308594v62.433594c-17.375-17.589844-47.347656-5.164063-47.347656 19.433593 0 15.261719 12.414062 27.675781 27.671875 27.675781 15.261719 0 27.675781-12.417968 27.675781-27.675781v-81.867187c0-5.285156-8-5.292969-8 0zm-19.675781 101.542968c-10.847657 0-19.671875-8.828124-19.671875-19.675781 0-10.847656 8.824218-19.675781 19.671875-19.675781 10.851562 0 19.675781 8.828125 19.675781 19.675781 0 10.847657-8.824219 19.675781-19.675781 19.675781zm0 0"/></g></svg>