<svg height="507pt" viewBox="-100 0 507 507" width="507pt" xmlns="http://www.w3.org/2000/svg"><path d="m303.160156 14v479c0 5.519531-4.480468 10-10 10h-279.160156c-5.519531 0-10-4.480469-10-10v-479c0-5.519531 4.480469-10 10-10h279.160156c5.519532 0 10 4.480469 10 10zm0 0" fill="#40c4df"/><path d="m303.160156 14v406.160156c0 5.519532-4.480468 10-10 10h-279.160156c-5.519531 0-10-4.480468-10-10v-406.160156c0-5.519531 4.480469-10 10-10h279.160156c5.519532 0 10 4.480469 10 10zm0 0" fill="#7befe4"/><path d="m53.839844 38.792969c0 7.285156-5.90625 13.191406-13.191406 13.191406-7.285157 0-13.191407-5.90625-13.191407-13.191406 0-7.285157 5.90625-13.1875 13.191407-13.1875 7.285156 0 13.191406 5.902343 13.191406 13.1875zm0 0" fill="#40c4df"/><path d="m279.703125 38.792969c0 7.285156-5.90625 13.191406-13.191406 13.191406-7.285157 0-13.191407-5.90625-13.191407-13.191406 0-7.285157 5.90625-13.1875 13.191407-13.1875 7.285156 0 13.191406 5.902343 13.191406 13.1875zm0 0" fill="#40c4df"/><path d="m53.839844 395.367188c0 7.285156-5.90625 13.1875-13.191406 13.1875-7.285157 0-13.191407-5.902344-13.191407-13.1875 0-7.285157 5.90625-13.191407 13.191407-13.191407 7.285156 0 13.191406 5.90625 13.191406 13.191407zm0 0" fill="#40c4df"/><path d="m279.703125 395.367188c0 7.285156-5.90625 13.1875-13.191406 13.1875-7.285157 0-13.191407-5.902344-13.191407-13.1875 0-7.285157 5.90625-13.191407 13.191407-13.191407 7.285156 0 13.191406 5.90625 13.191406 13.191407zm0 0" fill="#40c4df"/><path d="m153.578125 68.121094c-67.136719 0-121.578125 54.4375-121.578125 121.578125s54.441406 121.582031 121.578125 121.582031c67.140625 0 121.582031-54.441406 121.582031-121.582031s-54.441406-121.578125-121.582031-121.578125zm0 165.160156c-24.019531 0-43.578125-19.542969-43.578125-43.582031 0-24.019531 19.558594-43.578125 43.578125-43.578125 24.023437 0 43.582031 19.558594 43.582031 43.578125 0 24.039062-19.558594 43.582031-43.582031 43.582031zm0 0" fill="#fff"/><path d="m37.460938 4c-5.519532 0-10 5.539062-10 12.339844v413.820312h-13.460938c-5.519531 0-10-4.480468-10-10v-406.160156c0-5.519531 4.480469-10 10-10zm0 0" fill="#56c1b3"/><path d="m14 430.160156c-5.519531 0-10-4.480468-10-10v72.839844c0 5.519531 4.480469 10 10 10h13.460938v-72.839844zm0 0" fill="#1c868e"/><g fill="#491352"><path d="m293.160156 0h-279.160156c-7.71875 0-14 6.28125-14 14v479c0 7.71875 6.28125 14 14 14h279.160156c7.71875 0 14-6.28125 14-14 0-19.136719 0-452.914062 0-479 0-7.71875-6.28125-14-14-14zm6 493c0 3.308594-2.691406 6-6 6h-279.160156c-3.308594 0-6-2.691406-6-6v-60.210938c4.269531 2.039063-14.21875 1.371094 285.160156 1.371094 2.148438 0 4.179688-.503906 6-1.371094zm0-72.839844c0 3.308594-2.691406 6-6 6h-279.160156c-3.308594 0-6-2.691406-6-6v-406.160156c0-3.308594 2.691406-6 6-6h279.160156c3.308594 0 6 2.691406 6 6zm0 0"/><path d="m40.648438 55.984375c9.476562 0 17.191406-7.710937 17.191406-17.191406 0-9.476563-7.710938-17.1875-17.191406-17.1875-9.480469 0-17.191407 7.710937-17.191407 17.1875 0 9.480469 7.714844 17.191406 17.191407 17.191406zm0-26.378906c5.066406 0 9.191406 4.121093 9.191406 9.1875 0 5.070312-4.125 9.191406-9.191406 9.191406-5.070313 0-9.191407-4.121094-9.191407-9.191406 0-5.066407 4.121094-9.1875 9.191407-9.1875zm0 0"/><path d="m266.511719 21.605469c-9.476563 0-17.191407 7.710937-17.191407 17.1875 0 9.480469 7.710938 17.191406 17.191407 17.191406s17.191406-7.710937 17.191406-17.191406c0-9.476563-7.714844-17.1875-17.191406-17.1875zm0 26.378906c-5.066407 0-9.191407-4.121094-9.191407-9.191406 0-5.066407 4.125-9.1875 9.191407-9.1875 5.066406 0 9.191406 4.121093 9.191406 9.1875 0 5.070312-4.125 9.191406-9.191406 9.191406zm0 0"/><path d="m40.648438 378.175781c-9.476563 0-17.191407 7.710938-17.191407 17.1875 0 9.480469 7.710938 17.191407 17.191407 17.191407 9.480468 0 17.191406-7.710938 17.191406-17.191407 0-9.476562-7.714844-17.1875-17.191406-17.1875zm0 26.378907c-5.070313 0-9.191407-4.121094-9.191407-9.191407 0-5.066406 4.121094-9.1875 9.191407-9.1875 5.066406 0 9.191406 4.121094 9.191406 9.1875 0 5.070313-4.125 9.191407-9.191406 9.191407zm0 0"/><path d="m266.511719 378.175781c-9.476563 0-17.191407 7.710938-17.191407 17.1875 0 9.480469 7.710938 17.191407 17.191407 17.191407s17.191406-7.710938 17.191406-17.191407c0-9.476562-7.714844-17.1875-17.191406-17.1875zm0 26.378907c-5.066407 0-9.191407-4.121094-9.191407-9.191407 0-5.066406 4.125-9.1875 9.191407-9.1875 5.066406 0 9.191406 4.121094 9.191406 9.1875 0 5.070313-4.125 9.191407-9.191406 9.191407zm0 0"/><path d="m153.578125 64.128906c-69.238281 0-125.570313 56.335938-125.570313 125.578125 0 69.242188 56.332032 125.574219 125.570313 125.574219 69.242187 0 125.574219-56.335938 125.574219-125.578125s-56.332032-125.574219-125.574219-125.574219zm0 243.152344c-64.828125 0-117.570313-52.746094-117.570313-117.578125s52.742188-117.574219 117.570313-117.574219c64.832031 0 117.574219 52.746094 117.574219 117.578125s-52.742188 117.574219-117.574219 117.574219zm0 0"/><path d="m153.578125 142.128906c-26.230469 0-47.570313 21.34375-47.570313 47.578125s21.339844 47.574219 47.570313 47.574219c26.234375 0 47.574219-21.34375 47.574219-47.578125s-21.339844-47.574219-47.574219-47.574219zm0 87.152344c-21.816406 0-39.570313-17.753906-39.570313-39.578125s17.753907-39.574219 39.570313-39.574219c21.820313 0 39.574219 17.753906 39.574219 39.578125s-17.753906 39.574219-39.574219 39.574219zm0 0"/><path d="m89.113281 366.125c0-10.382812 14.339844-11.851562 24.109375-6.523438l2.269532-6.710937c-11.644532-6.601563-34.695313-3.4375-34.695313 14.179687 0 20.992188 28.835937 14.167969 28.835937 30.726563 0 12.65625-17.277343 13.359375-28.082031 6.714844l-2.078125 6.898437c10.566406 7.046875 38.574219 6.515625 38.574219-14.273437-.003906-21.742188-28.933594-15.636719-28.933594-31.011719zm0 0"/><path d="m135.71875 366.125c0-10.394531 14.347656-11.84375 24.105469-6.523438l2.273437-6.710937c-11.648437-6.601563-34.699218-3.4375-34.699218 14.179687 0 20.992188 28.835937 14.167969 28.835937 30.726563 0 12.65625-17.277344 13.359375-28.082031 6.714844l-2.078125 6.898437c10.566406 7.046875 38.574219 6.515625 38.574219-14.273437 0-21.757813-28.929688-15.628907-28.929688-31.011719zm0 0"/><path d="m175.890625 351.660156v62.683594c29.160156 3.3125 52.285156-3.054688 52.285156-33.183594 0-10.304687-3.308593-17.679687-8.980469-22.878906-10.382812-9.679688-29.25-8.742188-43.304687-6.621094zm16.546875 56.820313c-3.214844 0-6.238281-.09375-8.320312-.46875v-50.296875c2.175781-.472656 5.390624-.851563 9.644531-.851563 17.394531 0 25.902343 9.546875 25.808593 24.582031 0 17.203126-9.546874 27.035157-27.132812 27.035157zm0 0"/></g></svg>