<svg height="507pt" viewBox="-14 0 507 507.32" width="507pt" xmlns="http://www.w3.org/2000/svg"><path d="m311.058594 14v479.320312c0 5.519532-4.480469 10-10 10h-286.898438c-5.539062 0-10-4.480468-10-10v-479.320312c0-5.519531 4.460938-10 10-10h286.898438c5.519531 0 10 4.480469 10 10zm0 0" fill="#1c868e"/><path d="m311.058594 14v479.320312c0 5.519532-4.480469 10-10 10h-252.117188c-5.519531 0-10-4.480468-10-10v-479.320312c0-5.519531 4.480469-10 10-10h252.117188c5.519531 0 10 4.480469 10 10zm0 0" fill="#40c4df"/><path d="m186.378906 83.441406c0 10.660156-5.777344 19.957032-14.378906 24.9375-4.238281 2.460938-9.140625 3.859375-14.398438 3.859375-15.902343 0-28.78125-12.898437-28.78125-28.796875 0-15.902344 12.878907-28.78125 28.78125-28.78125 5.257813 0 10.160157 1.398438 14.398438 3.859375 8.601562 4.960938 14.378906 14.261719 14.378906 24.921875zm0 0" fill="#d73735"/><path d="m186.378906 83.441406c0 10.660156-5.777344 19.957032-14.378906 24.9375-8.601562-4.980468-14.398438-14.277344-14.398438-24.9375s5.796876-19.960937 14.398438-24.921875c8.601562 4.960938 14.378906 14.261719 14.378906 24.921875zm0 0" fill="#f85252"/><path d="m330.839844 475.660156h-19.789063v-73h19.789063c5.523437 0 10 4.476563 10 10v53c0 5.523438-4.476563 10-10 10zm0 0" fill="#1c868e"/><path d="m474.859375 106.5v34.179688c0 19.980468-12.460937 37.039062-30.019531 43.839843-5.28125 2.058594-11 3.179688-17 3.179688-25.980469 0-47.019532-21.039063-47.019532-47.019531v-34.179688c0-8.199219 6.640626-14.859375 14.839844-14.859375h64.359375c8.199219 0 14.839844 6.660156 14.839844 14.859375zm0 0" fill="#1c868e"/><path d="m474.859375 106.5v34.179688c0 19.980468-12.460937 37.039062-30.019531 43.839843-17.578125-6.78125-30.058594-23.839843-30.058594-43.839843v-34.179688c0-8.199219 6.640625-14.859375 14.839844-14.859375h30.398437c8.199219 0 14.839844 6.660156 14.839844 14.859375zm0 0" fill="#40c4df"/><g fill="#491352"><path d="m157.601562 116.238281c18.078126 0 32.777344-14.71875 32.777344-32.796875 0-18.082031-14.699218-32.78125-32.777344-32.78125-18.082031 0-32.78125 14.699219-32.78125 32.78125 0 18.078125 14.699219 32.796875 32.78125 32.796875zm0-57.578125c13.679688 0 24.777344 11.121094 24.777344 24.78125 0 13.679688-11.097656 24.796875-24.777344 24.796875-13.660156 0-24.78125-11.117187-24.78125-24.796875 0-13.660156 11.121094-24.78125 24.78125-24.78125zm0 0"/><path d="m57.363281 54.660156v400c0 5.285156 8 5.292969 8 0v-400c0-5.285156-8-5.292968-8 0zm0 0"/><path d="m249.839844 54.660156v400c0 5.285156 8 5.292969 8 0v-400c0-5.285156-8-5.292968-8 0zm0 0"/><path d="m112.238281 392.660156h87.367188c5.28125 0 5.289062-8 0-8h-87.367188c-5.285156 0-5.292969 8 0 8zm0 0"/><path d="m215.601562 416.660156h-116c-5.285156 0-5.292968 8 0 8h116c5.285157 0 5.292969-8 0-8zm0 0"/><path d="m460.019531 87.640625h-2.34375v-31.664063c0-5.285156-8-5.292968-8 0v31.664063h-43.667969v-31.664063c0-5.285156-8-5.292968-8 0v31.664063h-2.347656c-10.378906 0-18.839844 8.460937-18.839844 18.859375v34.179688c0 26.800781 20.738282 48.820312 47.019532 50.859374v237.621094c0 3.300782-2.699219 6-6 6h-73v-22.5c0-7.71875-6.28125-14-14-14h-15.78125v-384.660156c0-7.71875-6.277344-14-14-14h-286.898438c-7.71875 0-14 6.28125-14 14v479.320312c0 7.71875 6.28125 14 14 14h286.898438c7.722656 0 14-6.28125 14-14v-13.660156h15.78125c7.71875 0 14-6.28125 14-14v-22.5h73c7.71875 0 14-6.28125 14-14v-237.621094c26.28125-2.039062 47.019531-24.058593 47.019531-50.859374v-34.179688c0-10.398438-8.460937-18.859375-18.839844-18.859375zm-152.960937 405.679687c0 3.320313-2.699219 6-6 6h-286.898438c-3.320312 0-6-2.679687-6-6v-479.320312c0-3.320312 2.679688-6 6-6h286.898438c3.300781 0 6 2.679688 6 6zm29.78125-27.660156c0 3.300782-2.699219 6-6 6h-15.78125v-65h15.78125c3.300781 0 6 2.699219 6 6zm134.019531-324.980468c0 23.75-19.332031 43.019531-43.019531 43.019531-23.648438 0-43.019532-19.234375-43.019532-43.019531v-34.179688c0-5.980469 4.859376-10.859375 10.839844-10.859375h64.359375c5.980469 0 10.839844 4.878906 10.839844 10.859375zm0 0"/></g></svg>