<svg height="507pt" viewBox="-71 0 507 507.674" width="507pt" xmlns="http://www.w3.org/2000/svg"><path d="m124.535156 14v56.679688h-93.398437v-56.679688c0-5.519531 4.480469-10 10-10h73.398437c5.523438 0 10 4.480469 10 10zm0 0" fill="#d8d6d7"/><path d="m91.171875 263.671875h-26.667969c-5.523437 0-10-4.476563-10-10v-56.664063h46.667969v56.664063c0 5.523437-4.476563 10-10 10zm0 0" fill="#1c868e"/><path d="m151.335938 47.339844v113c0 34.28125-24.640626 62.800781-57.179688 68.820312-4.160156.78125-8.4375 1.179688-12.820312 1.179688h-7c-38.660157 0-70-31.339844-70-70v-113c0-5.519532 4.480468-10 10-10h127c5.519531 0 10 4.480468 10 10zm0 0" fill="#1c868e"/><path d="m341.835938 14v56.679688h-75.039063v-56.679688c0-5.519531 4.480469-10 10-10h55.039063c5.519531 0 10 4.480469 10 10zm0 0" fill="#d8d6d7"/><path d="m124.535156 14v56.679688h-59.398437v-56.679688c0-5.519531 4.480469-10 10-10h39.398437c5.523438 0 10 4.480469 10 10zm0 0" fill="#fff"/><path d="m341.835938 14v56.679688h-41.039063v-56.679688c0-5.519531 4.480469-10 10-10h21.039063c5.519531 0 10 4.480469 10 10zm0 0" fill="#fff"/><path d="m317.652344 263.671875h-26.667969c-5.523437 0-10-4.476563-10-10v-56.664063h46.667969v56.664063c0 5.523437-4.476563 10-10 10zm0 0" fill="#1c868e"/><path d="m361.9375 47.339844v125.378906c0 26.140625-17.421875 48.222656-41.28125 55.261719-5.179688 1.539062-10.660156 2.359375-16.339844 2.359375-31.820312 0-57.621094-25.800782-57.621094-57.621094v-125.378906c0-5.519532 4.480469-10 10-10h95.242188c5.519531 0 10 4.480468 10 10zm0 0" fill="#1c868e"/><path d="m151.335938 47.339844v113c0 34.28125-24.640626 62.800781-57.179688 68.820312-32.519531-6.019531-57.160156-34.539062-57.160156-68.820312v-113c0-5.519532 4.480468-10 10-10h94.339844c5.519531 0 10 4.480468 10 10zm0 0" fill="#40c4df"/><path d="m361.9375 47.339844v125.378906c0 26.140625-17.421875 48.222656-41.28125 55.261719-23.878906-7.019531-41.300781-29.101563-41.300781-55.261719v-125.378906c0-5.519532 4.480469-10 10-10h62.582031c5.519531 0 10 4.480468 10 10zm0 0" fill="#40c4df"/><g fill="#491352"><path d="m351.9375 33.339844h-6.101562v-19.339844c0-7.71875-6.277344-14-14-14h-55.039063c-7.71875 0-14 6.28125-14 14v19.339844h-6.101563c-7.71875 0-14 6.28125-14 14v125.378906c0 24.160156 13.980469 45.140625 34.28125 55.222656v25.738282c0 7.71875 6.28125 14 14 14h9.339844v205.996093c0 14.335938-11.664062 26-26 26h-12.160156c-14.335938 0-26-11.664062-26-26v-180c0-18.75-15.253906-34-34-34h-20.816406c-18.75 0-34 15.25-34 34v180c0 14.335938-11.664063 26-26 26h-13.5c-14.335938 0-26-11.664062-26-26v-205.996093h9.335937c7.722657 0 14-6.28125 14-14v-23.28125c29.140625-9.9375 50.160157-37.597657 50.160157-70.058594v-113c0-7.71875-6.277344-14-14-14h-12.800782v-19.339844c0-7.71875-6.277344-14-14-14h-73.398437c-7.71875 0-14 6.28125-14 14v19.339844h-12.800781c-7.71875 0-14 6.28125-14 14v113c0 32.460937 21.019531 60.121094 50.160156 70.058594v23.28125c0 7.71875 6.28125 14 14 14h9.34375v205.996093c0 18.746094 15.25 34 34 34h13.5c18.746094 0 34-15.253906 34-34v-180c0-14.335937 11.664062-26 26-26h20.816406c14.335938 0 26 11.664063 26 26v180c0 18.746094 15.25 34 34 34h12.160156c18.75 0 34-15.253906 34-34v-205.996093h9.339844c7.722656 0 14-6.28125 14-14v-25.738282c20.300781-10.082031 34.28125-31.0625 34.28125-55.222656v-125.378906c0-7.71875-6.28125-14-14-14zm-316.800781-19.339844c0-3.300781 2.699219-6 6-6h73.398437c3.300782 0 6 2.699219 6 6v19.339844h-85.398437zm-26.800781 146.339844v-113c0-3.300782 2.699218-6 6-6h127c3.300781 0 6 2.699218 6 6v113c0 28-17.519532 51.980468-42.160157 61.558594-47.027343 18.085937-96.839843-13.1875-96.839843-61.558594zm56.160156 99.339844c-3.300782 0-6-2.699219-6-6v-21.039063c10.691406 2.347656 27.523437 2.449219 38.679687 0v21.039063c0 3.300781-2.699219 6-6 6zm206.300781-245.679688c0-3.300781 2.699219-6 6-6h55.039063c3.300781 0 6 2.699219 6 6v19.339844h-67.039063zm52.859375 239.679688c0 3.300781-2.699219 6-6 6h-26.679688c-3.300781 0-6-2.699219-6-6v-22.460938c12.523438 4.160156 26.152344 4.164062 38.679688 0zm34.28125-80.960938c0 41.433594-45.425781 67.367188-80.960938 46.101562-15.71875-9.359374-26.28125-26.519531-26.28125-46.101562v-125.378906c0-3.300782 2.703126-6 6-6h95.242188c3.300781 0 6 2.699218 6 6zm0 0"/><path d="m294.441406 16.921875h-12.125c-5.285156 0-5.292968 8 0 8h12.125c2.207032 0 4-1.792969 4-4s-1.789062-4-4-4zm0 0"/><path d="m326.316406 16.921875h-12.125c-2.207031 0-4 1.792969-4 4s1.792969 4 4 4h12.125c5.285156 0 5.292969-8 0-8zm0 0"/><path d="m61.902344 16.921875h-12.128906c-5.28125 0-5.289063 8 0 8h12.128906c5.28125 0 5.289062-8 0-8zm0 0"/><path d="m105.902344 16.921875h-12.128906c-5.28125 0-5.289063 8 0 8h12.128906c5.28125 0 5.289062-8 0-8zm0 0"/></g></svg>