<svg height="502pt" viewBox="0 -32 502 501" width="502pt" xmlns="http://www.w3.org/2000/svg"><path d="m488 434.257812h-474c-5.523438 0-10-4.476562-10-10v-409.753906c0-5.523437 4.476562-10 10-10h474c5.523438 0 10 4.476563 10 10v409.757813c0 5.519531-4.476562 9.996093-10 9.996093zm0 0" fill="#f85252"/><path d="m498 74.859375v349.402344c0 5.519531-4.480469 10-10 10h-474c-5.519531 0-10-4.480469-10-10v-409.761719c0-5.519531 4.480469-10 10-10h119.898438l51.023437 63.398438c3.539063 4.402343 8.898437 6.960937 14.558594 6.960937zm0 0" fill="#d8d6d7"/><path d="m498 74.859375v349.402344c0 5.519531-4.476562 10-10 10h-443.539062c-5.523438 0-10-4.480469-10-10v-409.761719c0-5.523438 4.476562-10 10-10h89.4375l51.023437 63.398438c3.539063 4.402343 8.898437 6.960937 14.558594 6.960937zm0 0" fill="#fff"/><path d="m419.476562 40.292969c0 7.617187-6.175781 13.792969-13.792968 13.792969-7.617188 0-13.792969-6.175782-13.792969-13.792969 0-7.617188 6.175781-13.789063 13.792969-13.789063 7.617187 0 13.792968 6.171875 13.792968 13.789063zm0 0" fill="#fff"/><path d="m469.960938 40.292969c0 7.617187-6.175782 13.792969-13.792969 13.792969-7.617188 0-13.792969-6.175782-13.792969-13.792969 0-7.617188 6.175781-13.789063 13.792969-13.789063 7.617187 0 13.792969 6.171875 13.792969 13.789063zm0 0" fill="#fff"/><path d="m293.679688 159.058594c0 23.5625-19.121094 42.660156-42.679688 42.660156s-42.679688-19.097656-42.679688-42.660156c0-23.558594 19.121094-42.679688 42.679688-42.679688s42.679688 19.121094 42.679688 42.679688zm0 0" fill="#f85252"/><path d="m293.679688 159.058594c0 23.5625-19.121094 42.660156-42.679688 42.660156v-85.339844c23.558594 0 42.679688 19.121094 42.679688 42.679688zm0 0" fill="#d73735"/><path d="m330.453125 262.535156c0 43.882813-35.570313 79.453125-79.453125 79.453125s-79.453125-35.570312-79.453125-79.453125c0-43.878906 35.570313-79.453125 79.453125-79.453125s79.453125 35.574219 79.453125 79.453125zm0 0" fill="#40c4df"/><path d="m330.453125 262.535156c0 43.890625-35.566406 79.453125-79.453125 79.453125v-158.902343c43.886719-.003907 79.453125 35.5625 79.453125 79.449218zm0 0" fill="#1c868e"/><path d="m313.054688 392.878906h-124.109376c-6.804687 0-11.152343-7.253906-7.945312-13.253906l62.054688-116.128906c3.394531-6.351563 12.496093-6.351563 15.890624 0l62.054688 116.128906c3.207031 6-1.140625 13.253906-7.945312 13.253906zm0 0" fill="#f85252"/><path d="m251.890625 292.949219h-1.78125c-3.367187 0-6.089844 2.726562-6.089844 6.089843v40.523438c0 3.367188 2.722657 6.089844 6.089844 6.089844h1.78125c3.367187 0 6.089844-2.722656 6.089844-6.089844v-40.523438c0-3.363281-2.722657-6.089843-6.089844-6.089843zm0 0" fill="#fff"/><path d="m251.890625 358.269531h-1.78125c-3.367187 0-6.089844 2.722657-6.089844 6.089844v4.488281c0 3.363282 2.722657 6.089844 6.089844 6.089844h1.78125c3.367187 0 6.089844-2.726562 6.089844-6.089844v-4.488281c0-3.367187-2.722657-6.089844-6.089844-6.089844zm0 0" fill="#fff"/><g fill="#491352"><path d="m367.101562 259.28125h-32.722656c-.617187-12.578125-4-24.417969-9.578125-34.9375l33.960938-17.460938c1.976562-1 2.738281-3.421874 1.738281-5.378906-1-1.960937-3.421875-2.742187-5.378906-1.742187l-34.421875 17.679687c-8.140625-12.359375-19.480469-22.417968-32.839844-29.019531 6.140625-7.898437 9.820313-17.839844 9.820313-28.621094 0-14.539062-6.679688-27.558593-17.140626-36.140625l11.804688-17.265625c1.246094-1.824219.78125-4.308593-1.042969-5.558593-1.828125-1.25-4.3125-.777344-5.5625 1.042968l-11.8125 17.28125h-.003906c-6.78125-3.839844-14.601563-6.039062-22.917969-6.039062-8.320312 0-16.140625 2.199218-22.921875 6.039062h-.003906l-11.8125-17.28125c-1.246094-1.820312-3.730469-2.289062-5.5625-1.042968-1.824219 1.25-2.292969 3.734374-1.042969 5.558593l11.804688 17.265625c-10.460938 8.582032-17.140625 21.601563-17.140625 36.140625 0 10.78125 3.679687 20.722657 9.820312 28.621094-13.359375 6.601563-24.699219 16.660156-32.839843 29.019531l-34.421876-17.679687c-1.957031-1-4.359374-.21875-5.378906 1.742187-1 1.957032-.238281 4.378906 1.738282 5.378906l33.960937 17.460938c-5.578125 10.519531-8.960937 22.359375-9.578125 34.9375h-32.726562c-2.199219 0-4 1.78125-4 4 0 2.199219 1.800781 4 4 4h32.722656c.617187 12.582031 4 24.421875 9.578125 34.941406l-33.960938 17.460938c-1.976562 1-2.738281 3.417968-1.738281 5.378906.976562 1.875 3.300781 2.796875 5.378906 1.71875l34.421875-17.660156c5.679688 8.640625 12.960938 16.179687 21.378907 22.179687l-25.199219 47.179688c-4.640625 8.683593 1.636719 19.140625 11.460937 19.140625h124.117188c9.816406 0 16.105468-10.449219 11.460937-19.140625l-25.199219-47.179688c8.417969-6 15.699219-13.539062 21.378907-22.179687l34.421875 17.660156c2.074218 1.078125 4.402344.15625 5.378906-1.71875 1-1.960938.238281-4.378906-1.738281-5.378906l-33.960938-17.460938c5.578125-10.519531 8.960938-22.359375 9.578125-34.941406h32.722656c2.199219 0 4-1.800781 4-4 0-2.21875-1.800781-4-4-4zm-154.78125-99.480469c0-13.238281 6.699219-24.9375 16.878907-31.917969.082031-.039062.140625-.101562.199219-.140624 6.179687-4.179688 13.601562-6.621094 21.601562-6.621094s15.421875 2.441406 21.601562 6.621094c.058594.039062.117188.101562.199219.140624 10.179688 6.980469 16.878907 18.679688 16.878907 31.917969 0 9.660157-3.558594 18.5-9.460938 25.300781-18.738281-7.042968-39.691406-7.042968-58.4375 0-5.902344-6.800781-9.460938-15.640624-9.460938-25.300781zm34.679688 28.121094v68.199219c-3.160156 1-5.859375 3.222656-7.480469 6.242187l-33.019531 61.796875c-54.785156-39.957031-32.882812-132.34375 40.5-136.238281zm70.480469 194.339844c1.785156 3.359375-.648438 7.359375-4.421875 7.359375h-124.117188c-3.777344 0-6.207031-4-4.421875-7.359375.515625-.964844 61.894531-115.898438 62.480469-116.820313.941406-1.238281 2.398438-1.960937 4-1.960937s3.058594.722656 4 1.960937c.585938.921875 61.964844 115.855469 62.480469 116.820313zm-21.980469-58.101563-33.019531-61.796875c-1.621094-3.019531-4.320313-5.242187-7.480469-6.242187 0-14.066406 0-54.507813 0-68.199219 73.160156 4.722656 96.160156 97.230469 40.5 136.238281zm0 0"/><path d="m250.40625 289.691406c-6.753906.21875-10.386719 5.15625-10.386719 10.089844v40.519531c0 5.441407 4.425781 10.101563 10.082031 10.101563h1.796876c5.65625 0 10.082031-4.660156 10.082031-10.101563 0-23.496093 0-16.78125 0-40.519531 0-5.027344-3.722657-9.972656-10.632813-10.097656-.316406-.007813-.628906-.003906-.941406.007812zm3.574219 10.089844v40.519531c0 1.160157-.941407 2.101563-2.082031 2.101563h-1.796876c-1.140624 0-2.082031-.941406-2.082031-2.101563 0-14.003906 0-26.621093 0-40.519531 0-1.160156.941407-2.078125 2.082031-2.078125h1.796876c1.140624 0 2.082031.917969 2.082031 2.078125zm0 0"/><path d="m251.898438 355.023438h-1.796876c-5.5625 0-10.082031 4.519531-10.082031 10.078124v4.480469c0 5.578125 4.519531 10.101563 10.082031 10.101563h1.796876c5.5625 0 10.082031-4.523438 10.082031-10.101563v-4.480469c0-5.558593-4.519531-10.078124-10.082031-10.078124zm2.082031 14.558593c0 1.160157-.941407 2.101563-2.082031 2.101563h-1.796876c-1.140624 0-2.082031-.941406-2.082031-2.101563v-4.480469c0-1.160156.941407-2.078124 2.082031-2.078124h1.796876c1.140624 0 2.082031.917968 2.082031 2.078124zm0 0"/><path d="m488 .5h-474c-7.71875 0-14 6.28125-14 14v409.761719c0 7.71875 6.28125 14 14 14h474c7.71875 0 14-6.28125 14-14v-409.761719c0-7.71875-6.28125-14-14-14zm0 8c3.300781 0 6 2.699219 6 6v56.359375h-294.519531c-4.480469 0-8.640625-2-11.441407-5.480469l-45.777343-56.878906zm-473.558594 421.761719c-3.5625 0-6.441406-2.882813-6.441406-6.441407v-408.878906c0-3.5625 2.878906-6.441406 6.441406-6.441406h117.539063l49.820312 61.898438c4.339844 5.382812 10.777344 8.460937 17.679688 8.460937h294.519531v344.960937c0 3.558594-2.878906 6.441407-6.441406 6.441407zm0 0"/><path d="m112.519531 38.617188h-69.085937c-2.207032 0-4 1.789062-4 4 0 2.207031 1.792968 4 4 4h69.085937c2.207031 0 4-1.792969 4-4 0-2.210938-1.792969-4-4-4zm0 0"/><path d="m405.679688 58.078125c9.820312 0 17.800781-7.976563 17.800781-17.777344 0-9.820312-7.980469-17.800781-17.800781-17.800781-9.800782 0-17.78125 7.980469-17.78125 17.800781 0 9.800781 7.980468 17.777344 17.78125 17.777344zm0-27.578125c5.398437 0 9.800781 4.398438 9.800781 9.800781 0 5.398438-4.402344 9.777344-9.800781 9.777344-5.398438 0-9.78125-4.378906-9.78125-9.777344 0-5.402343 4.382812-9.800781 9.78125-9.800781zm0 0"/><path d="m456.160156 58.078125c9.820313 0 17.800782-7.976563 17.800782-17.777344 0-9.820312-7.980469-17.800781-17.800782-17.800781-9.800781 0-17.78125 7.980469-17.78125 17.800781 0 9.800781 7.980469 17.777344 17.78125 17.777344zm0-27.578125c5.398438 0 9.800782 4.398438 9.800782 9.800781 0 5.398438-4.402344 9.777344-9.800782 9.777344-5.398437 0-9.78125-4.378906-9.78125-9.777344 0-5.402343 4.382813-9.800781 9.78125-9.800781zm0 0"/></g></svg>