<svg height="502pt" viewBox="0 -19 502.96 502" width="502pt" xmlns="http://www.w3.org/2000/svg"><path d="m358.871094 91.519531c0 14.664063-11.890625 26.554688-26.554688 26.554688-14.664062 0-26.554687-11.890625-26.554687-26.554688 0-14.664062 11.890625-26.554687 26.554687-26.554687 14.664063 0 26.554688 11.890625 26.554688 26.554687zm0 0" fill="#40c4df"/><path d="m322.316406 103.90625h20v178.835938h-20zm0 0" fill="#40c4df"/><path d="m79.753906 461.40625h-23.332031c-5.523437 0-10-4.476562-10-10v-75.332031h43.335937v75.332031c-.003906 5.523438-4.480468 10-10.003906 10zm0 0" fill="#40c4df"/><path d="m446.539062 461.40625h-23.335937c-5.519531 0-10-4.476562-10-10v-75.332031h43.335937v75.332031c0 5.523438-4.476562 10-10 10zm0 0" fill="#40c4df"/><path d="m498.960938 292.746094v86c0 22.082031-17.902344 40-40 40h-414.960938c-22.101562 0-40-17.917969-40-40v-86c0-5.519532 4.480469-10 10-10h474.960938c5.519531 0 10 4.480468 10 10zm0 0" fill="#d8d6d7"/><path d="m498.960938 292.746094v44.660156c0 22.101562-17.902344 40-40 40h-414.960938c-22.101562 0-40-17.898438-40-40v-44.660156c0-5.519532 4.480469-10 10-10h474.960938c5.519531 0 10 4.480468 10 10zm0 0" fill="#fff"/><path d="m77.042969 333.527344c0 11.410156-9.253907 20.664062-20.667969 20.664062s-20.664062-9.253906-20.664062-20.664062c0-11.414063 9.25-20.667969 20.664062-20.667969s20.667969 9.253906 20.667969 20.667969zm0 0" fill="#f85252"/><path d="m153.042969 333.527344c0 11.410156-9.253907 20.664062-20.667969 20.664062s-20.664062-9.253906-20.664062-20.664062c0-11.414063 9.25-20.667969 20.664062-20.667969s20.667969 9.253906 20.667969 20.667969zm0 0" fill="#f85252"/><path d="m229.042969 333.527344c0 11.410156-9.253907 20.664062-20.667969 20.664062s-20.664062-9.253906-20.664062-20.664062c0-11.414063 9.25-20.667969 20.664062-20.667969s20.667969 9.253906 20.667969 20.667969zm0 0" fill="#f85252"/><g fill="#491352"><path d="m488.960938 278.746094h-142.640626v-160.097656c28.265626-14.566407 17.945313-57.679688-14-57.679688-31.960937 0-42.296874 43.097656-14 57.679688v160.097656h-304.320312c-7.71875 0-14 6.28125-14 14v86c0 23.722656 18.878906 43.140625 42.421875 43.960937v28.699219c0 7.722656 6.277344 14 14 14h23.339844c7.71875 0 14-6.277344 14-14v-28.660156h315.4375v28.660156c0 7.722656 6.28125 14 14 14h23.339843c7.722657 0 14-6.277344 14-14v-28.699219c23.539063-.820312 42.421876-20.238281 42.421876-43.960937v-86c0-7.71875-6.28125-14-14-14zm-156.640626-209.777344c12.441407 0 22.539063 10.117188 22.539063 22.558594 0 18.910156-21.882813 29.289062-36.539063 17.640625-16.714843-13.195313-7.300781-40.199219 14-40.199219zm6 52.5v157.277344h-12v-157.277344c3.882813.796875 8.113282.796875 12 0zm-252.558593 329.9375c0 3.300781-2.703125 6-6 6h-23.339844c-3.300781 0-6-2.699219-6-6v-28.660156h35.339844zm366.777343 0c0 3.300781-2.699218 6-6 6h-23.339843c-3.300781 0-6-2.699219-6-6v-28.660156h35.339843zm42.421876-72.660156c0 19.84375-16.144532 36-36 36-7.195313 0-414.667969.035156-416.539063-.039063-19.140625-.820312-34.421875-16.660156-34.421875-35.960937v-86c0-3.320313 2.699219-6 6-6h474.960938c3.300781 0 6 2.679687 6 6zm0 0"/><path d="m271.808594 182.148438c4.859375 2.230468 8.089844-5.089844 3.332031-7.273438-70.980469-32.546875-71.550781-133.542969-.621094-166.722656 4.800781-2.246094 1.386719-9.488282-3.390625-7.246094-77.042968 36.039062-76.539062 145.832031.679688 181.242188zm0 0"/><path d="m288.855469 164.019531c4.910156 2.074219 7.9375-5.335937 3.105469-7.371093-57.644532-24.273438-57.804688-105.734376-.484376-130.335938 4.855469-2.085938 1.707032-9.4375-3.15625-7.351562-63.835937 27.398437-63.5625 118.066406.535157 145.058593zm0 0"/><path d="m306.109375 145.789062c5.027344 1.78125 7.609375-5.800781 2.664063-7.542968-43.984376-15.523438-44.136719-77.785156-.359376-93.617188 4.972657-1.800781 2.257813-9.324218-2.71875-7.527344-50.988281 18.441407-50.441406 90.738282.414063 108.6875zm0 0"/><path d="m389.488281 8.164062c70.976563 32.550782 71.554688 133.542969.621094 166.726563-4.789063 2.238281-1.402344 9.488281 3.390625 7.246094 77.019531-36.03125 76.570312-145.816407-.679688-181.242188-4.800781-2.203125-8.144531 5.0625-3.332031 7.269531zm0 0"/><path d="m372.671875 26.394531c57.644531 24.273438 57.804687 105.730469.484375 130.332031-4.808594 2.066407-1.757812 9.457032 3.15625 7.351563 63.832031-27.398437 63.5625-118.066406-.535156-145.058594-4.875-2.050781-7.984375 5.320313-3.105469 7.375zm0 0"/><path d="m355.855469 44.796875c43.984375 15.523437 44.136719 77.785156.355469 93.617187-4.925782 1.78125-2.300782 9.335938 2.722656 7.523438 50.988281-18.441406 50.441406-90.734375-.417969-108.683594-4.96875-1.773437-7.65625 5.78125-2.660156 7.542969zm0 0"/><path d="m56.378906 308.867188c-13.597656 0-24.679687 11.058593-24.679687 24.660156 0 13.601562 11.082031 24.660156 24.679687 24.660156 13.601563 0 24.660156-11.058594 24.660156-24.660156 0-13.601563-11.058593-24.660156-24.660156-24.660156zm0 41.320312c-9.199218 0-16.679687-7.480469-16.679687-16.660156 0-9.199219 7.480469-16.660156 16.679687-16.660156 9.179688 0 16.660156 7.460937 16.660156 16.660156 0 9.179687-7.480468 16.660156-16.660156 16.660156zm0 0"/><path d="m132.378906 308.867188c-13.597656 0-24.679687 11.058593-24.679687 24.660156 0 13.601562 11.082031 24.660156 24.679687 24.660156 13.601563 0 24.660156-11.058594 24.660156-24.660156 0-13.601563-11.058593-24.660156-24.660156-24.660156zm0 41.320312c-9.199218 0-16.679687-7.480469-16.679687-16.660156 0-9.199219 7.480469-16.660156 16.679687-16.660156 9.179688 0 16.660156 7.460937 16.660156 16.660156 0 9.179687-7.480468 16.660156-16.660156 16.660156zm0 0"/><path d="m208.378906 308.867188c-13.597656 0-24.679687 11.058593-24.679687 24.660156 0 13.601562 11.082031 24.660156 24.679687 24.660156 13.601563 0 24.660156-11.058594 24.660156-24.660156 0-13.601563-11.058593-24.660156-24.660156-24.660156zm0 41.320312c-9.199218 0-16.679687-7.480469-16.679687-16.660156 0-9.199219 7.480469-16.660156 16.679687-16.660156 9.179688 0 16.660156 7.460937 16.660156 16.660156 0 9.179687-7.480468 16.660156-16.660156 16.660156zm0 0"/></g></svg>