<svg height="506pt" viewBox="-50 0 505 506" width="506pt" xmlns="http://www.w3.org/2000/svg"><path d="m400.871094 115.875v379.480469c0 5.519531-4.460938 10-10 10h-376.363282c-5.539062 0-10-4.480469-10-10v-478c0-5.519531 4.460938-10 10-10h279.378907c2.679687 0 5.261719 1.058593 7.140625 2.980469l96.980468 98.519531c1.84375 1.878906 2.863282 4.402343 2.863282 7.019531zm0 0" fill="#1c868e"/><path d="m400.871094 115.875v379.480469c0 5.519531-4.460938 10-10 10h-345.941406c-5.523438 0-10-4.480469-10-10v-478c0-5.519531 4.476562-10 10-10h248.957031c2.679687 0 5.261719 1.058593 7.140625 2.980469l96.980468 98.519531c1.84375 1.878906 2.863282 4.402343 2.863282 7.019531zm0 0" fill="#40c4df"/><path d="m4.5 179.808594h396.375v245.769531h-396.375zm0 0" fill="#fff"/><path d="m4.507812 179.816406h30.421876v245.757813h-30.421876zm0 0" fill="#d8d6d7"/><path d="m54.492188 331.5625c-9.207032 0-16.417969 7.210938-16.417969 16.414062 0 9.207032 7.210937 16.417969 16.417969 16.417969 8.867187 0 16.078124-7.363281 16.078124-16.417969 0-9.050781-7.210937-16.414062-16.078124-16.414062zm0 0" fill="#40c4df"/><path d="m220.542969 234.289062v129.097657h27.289062c0-18.441407 0-110.933594 0-129.097657zm0 0" fill="#40c4df"/><path d="m320.8125 234.289062h-43.800781v129.097657h27.289062v-48.890625h16.511719c34.277344 0 46.488281-20.628906 46.488281-39.933594 0-19.46875-12.210937-40.273438-46.488281-40.273438zm-5.382812 55.609376h-16.515626v-31.007813h16.515626c16.621093 0 18.863281 7.921875 18.863281 15.671875 0 7.140625-2.144531 15.335938-18.863281 15.335938zm0 0" fill="#40c4df"/><path d="m146.222656 331.316406 44.792969-72.359375v-24.152343h-89.125v32.4375h44.167969l-44.792969 72.355468v24.15625h90.0625v-32.4375zm0 0" fill="#40c4df"/><g fill="#491352"><path d="m400.855469 102.710938-96.980469-98.535157c-2.617188-2.652343-6.253906-4.175781-9.976562-4.175781h-279.398438c-7.71875 0-14 6.28125-14 14v478c0 7.71875 6.28125 14 14 14h376.375c7.71875 0 14-6.28125 14-14 0-16.128906 0-362.933594 0-379.46875 0-3.695312-1.425781-7.183594-4.019531-9.820312zm-3.980469 389.292968c0 3.304688-2.691406 6-6 6h-376.375c-3.308594 0-6-2.695312-6-6v-65.773437h388.375zm0-73.773437h-388.375v-237.769531h388.375zm0-245.769531h-388.375v-158.457032c0-3.308594 2.691406-6 6-6h279.398438c1.59375 0 3.15625.648438 4.277343 1.789063l96.976563 98.53125c1.113281 1.128906 1.722656 2.625 1.722656 4.210937zm0 0"/><path d="m54.496094 368.390625c11.070312 0 20.078125-9.15625 20.078125-20.414063 0-11.257812-9.007813-20.417968-20.078125-20.417968-11.449219 0-20.417969 8.96875-20.417969 20.417968 0 11.449219 8.96875 20.414063 20.417969 20.414063zm0-32.832031c6.660156 0 12.078125 5.570312 12.078125 12.417968 0 6.84375-5.417969 12.414063-12.078125 12.414063-6.960938 0-12.417969-5.453125-12.417969-12.414063 0-6.960937 5.453125-12.417968 12.417969-12.417968zm0 0"/><path d="m220.542969 367.382812h27.289062c2.207031 0 4-1.789062 4-4v-129.09375c0-2.207031-1.792969-4-4-4h-27.289062c-2.207031 0-4 1.792969-4 4v129.09375c0 2.210938 1.792969 4 4 4zm4-129.089843h19.289062v121.09375h-19.289062zm0 0"/><path d="m277.011719 367.382812h27.289062c2.207031 0 4-1.789062 4-4v-44.886718h12.511719c37.265625 0 50.488281-23.667969 50.488281-43.933594 0-20.425781-13.222656-44.273438-50.488281-44.273438h-43.800781c-2.207031 0-4 1.789063-4 4v129.09375c0 2.210938 1.789062 4 4 4zm4-129.09375h39.796875c39.425781 0 42.488281 27.765626 42.488281 36.273438 0 8.429688-3.0625 35.9375-42.488281 35.9375h-16.511719c-2.207031 0-4 1.792969-4 4v44.886719h-19.289063v-121.097657zm0 0"/><path d="m338.292969 274.5625c0-13.238281-7.480469-19.671875-22.863281-19.671875h-16.515626c-2.207031 0-4 1.792969-4 4v31.007813c0 2.207031 1.792969 4 4 4h16.515626c15.171874 0 22.863281-6.507813 22.863281-19.335938zm-35.375-11.671875h12.511719c13.726562 0 14.863281 5.519531 14.863281 11.671875 0 5.734375-1.148438 11.335938-14.863281 11.335938h-12.511719zm0 0"/><path d="m101.265625 367.753906h90.058594c2.210937 0 4-1.792968 4-4v-32.4375c0-2.207031-1.789063-4-4-4h-37.921875l41.011718-66.253906c.394532-.628906.601563-1.359375.601563-2.105469v-24.152343c0-2.207032-1.792969-4-4-4h-89.125c-2.207031 0-4 1.792968-4 4v32.4375c0 2.207031 1.792969 4 4 4h36.988281l-41.015625 66.25c-.390625.632812-.597656 1.363281-.597656 2.105468v24.15625c0 2.207032 1.792969 4 4 4zm4-27.019531 44.195313-71.386719c.761718-1.234375.796874-2.785156.089843-4.050781-.703125-1.265625-2.039062-2.054687-3.492187-2.054687h-40.167969v-24.433594h81.125v19.011718l-44.195313 71.390626c-.765624 1.234374-.796874 2.785156-.09375 4.054687.707032 1.265625 2.042969 2.050781 3.496094 2.050781h41.105469v24.4375h-82.058594v-19.019531zm0 0"/></g></svg>