<svg width="24" height="24" viewBox="0 0 24 24" fill="none" xmlns="http://www.w3.org/2000/svg">
<g clip-path="url(#clip0)">
<path d="M17.2491 24C16.4744 24 15.7063 23.863 14.9551 23.5901C11.646 22.388 8.57438 20.4301 6.0723 17.9281C3.57021 15.4261 1.61233 12.3544 0.410265 9.04529C0.0239839 7.98183 -0.0900114 6.88406 0.0715601 5.78236C0.222913 4.7504 0.622647 3.74858 1.22759 2.88518C1.83521 2.01798 2.64527 1.2967 3.57017 0.799327C4.55647 0.268958 5.633 0 6.76996 0C7.12357 0 7.42918 0.247068 7.50329 0.592804L8.68046 6.08628C8.73375 6.33504 8.6573 6.59387 8.47745 6.77377L6.46599 8.78519C8.3635 12.5578 11.4425 15.6368 15.2151 17.5343L17.2265 15.5229C17.4064 15.343 17.6653 15.2667 17.914 15.3199L23.4075 16.497C23.7533 16.5711 24.0003 16.8767 24.0003 17.2304C24.0003 18.3673 23.7314 19.4439 23.2009 20.4302C22.7036 21.3551 21.9823 22.1652 21.1151 22.7728C20.2517 23.3777 19.2499 23.7774 18.2179 23.9288C17.8945 23.9763 17.5712 24 17.2491 24ZM6.17073 1.53275C4.67103 1.69831 3.33993 2.48437 2.45599 3.74596C1.462 5.16457 1.23022 6.90942 1.82007 8.5332C4.1311 14.8951 9.10531 19.8693 15.4672 22.1803C17.0909 22.7702 18.8358 22.5385 20.2545 21.5444C21.516 20.6605 22.3021 19.3294 22.4677 17.8297L17.9987 16.8721L15.8981 18.9727C15.6745 19.1963 15.3349 19.2556 15.0489 19.1212C10.587 17.0251 6.97536 13.4134 4.87919 8.95154C4.74481 8.66547 4.80415 8.32583 5.02769 8.10234L7.12835 6.00168L6.17073 1.53275Z" fill="white"/>
</g>
<defs>
<clipPath id="clip0">
<rect width="24" height="24" fill="white"/>
</clipPath>
</defs>
</svg>
